<ttFont>
    <TTGlyph name="A" xMin="-80" yMin="0" xMax="480" yMax="630">
      <contour>
        <pt x="361" y="18" on="1"/>
        <pt x="334" y="211" on="1"/>
        <pt x="113" y="211" on="1"/>
        <pt x="5" y="18" on="1"/>
        <pt x="67" y="18" on="1"/>
        <pt x="64" y="0" on="1"/>
        <pt x="-80" y="0" on="1"/>
        <pt x="-76" y="18" on="1"/>
        <pt x="-41" y="18" on="1"/>
        <pt x="-27" y="18" on="0"/>
        <pt x="-20" y="32" on="1"/>
        <pt x="316" y="630" on="1"/>
        <pt x="348" y="630" on="1"/>
        <pt x="430" y="32" on="1"/>
        <pt x="432" y="18" on="0"/>
        <pt x="445" y="18" on="1"/>
        <pt x="480" y="18" on="1"/>
        <pt x="477" y="0" on="1"/>
        <pt x="296" y="0" on="1"/>
        <pt x="299" y="18" on="1"/>
      </contour>
      <contour>
        <pt x="291" y="528" on="1"/>
        <pt x="128" y="239" on="1"/>
        <pt x="330" y="239" on="1"/>
      </contour>
    </TTGlyph>
    <TTGlyph name="AE" xMin="-165" yMin="-9" xMax="721" yMax="639">
      <contour>
        <pt x="366" y="286" on="1"/>
        <pt x="310" y="23" on="1"/>
        <pt x="531" y="23" on="1"/>
        <pt x="555" y="23" on="0"/>
        <pt x="562" y="45" on="1"/>
        <pt x="604" y="167" on="1"/>
        <pt x="626" y="167" on="1"/>
        <pt x="616" y="120" on="1"/>
        <pt x="597" y="31" on="0"/>
        <pt x="597" y="-9" on="1"/>
        <pt x="568" y="0" on="0"/>
        <pt x="494" y="0" on="1"/>
        <pt x="179" y="0" on="1"/>
        <pt x="182" y="18" on="1"/>
        <pt x="228" y="18" on="1"/>
        <pt x="241" y="18" on="0"/>
        <pt x="244" y="33" on="1"/>
        <pt x="297" y="286" on="1"/>
        <pt x="113" y="286" on="1"/>
        <pt x="-78" y="18" on="1"/>
        <pt x="-16" y="18" on="1"/>
        <pt x="-19" y="0" on="1"/>
        <pt x="-165" y="0" on="1"/>
        <pt x="-161" y="18" on="1"/>
        <pt x="-127" y="18" on="1"/>
        <pt x="-116" y="18" on="0"/>
        <pt x="-106" y="32" on="1"/>
        <pt x="299" y="592" on="1"/>
        <pt x="306" y="601" on="0"/>
        <pt x="306" y="612" on="0"/>
        <pt x="299" y="612" on="1"/>
        <pt x="266" y="612" on="1"/>
        <pt x="269" y="630" on="1"/>
        <pt x="613" y="630" on="1"/>
        <pt x="689" y="630" on="0"/>
        <pt x="721" y="639" on="1"/>
        <pt x="706" y="604" on="0"/>
        <pt x="685" y="510" on="1"/>
        <pt x="675" y="463" on="1"/>
        <pt x="653" y="463" on="1"/>
        <pt x="666" y="590" on="1"/>
        <pt x="666" y="607" on="0"/>
        <pt x="644" y="607" on="1"/>
        <pt x="433" y="607" on="1"/>
        <pt x="371" y="314" on="1"/>
        <pt x="573" y="314" on="1"/>
        <pt x="583" y="315" on="0"/>
        <pt x="587" y="328" on="1"/>
        <pt x="607" y="390" on="1"/>
        <pt x="624" y="390" on="1"/>
        <pt x="585" y="210" on="1"/>
        <pt x="568" y="210" on="1"/>
        <pt x="577" y="272" on="1"/>
        <pt x="577" y="286" on="0"/>
        <pt x="566" y="286" on="1"/>
      </contour>
      <contour>
        <pt x="345" y="607" on="1"/>
        <pt x="133" y="314" on="1"/>
        <pt x="303" y="314" on="1"/>
        <pt x="365" y="607" on="1"/>
      </contour>
    </TTGlyph>
    <TTGlyph name="Aacute" xMin="-80" yMin="0" xMax="480" yMax="837">
      <component glyphName="A" x="0" y="0" flags="0x1004"/>
      <component glyphName="acute" x="233" y="198" flags="0x1004"/>
    </TTGlyph>
    <TTGlyph name="Acircumflex" xMin="-80" yMin="0" xMax="480" yMax="837">
      <component glyphName="A" x="0" y="0" flags="0x1004"/>
      <component glyphName="circumflex" x="220" y="198" flags="0x1004"/>
    </TTGlyph>
    <TTGlyph name="Adieresis" xMin="-80" yMin="0" xMax="480" yMax="819">
      <contour>
        <pt x="361" y="18" on="1"/>
        <pt x="334" y="211" on="1"/>
        <pt x="113" y="211" on="1"/>
        <pt x="5" y="18" on="1"/>
        <pt x="67" y="18" on="1"/>
        <pt x="64" y="0" on="1"/>
        <pt x="-80" y="0" on="1"/>
        <pt x="-76" y="18" on="1"/>
        <pt x="-41" y="18" on="1"/>
        <pt x="-27" y="18" on="0"/>
        <pt x="-20" y="32" on="1"/>
        <pt x="316" y="630" on="1"/>
        <pt x="348" y="630" on="1"/>
        <pt x="430" y="32" on="1"/>
        <pt x="432" y="18" on="0"/>
        <pt x="445" y="18" on="1"/>
        <pt x="480" y="18" on="1"/>
        <pt x="477" y="0" on="1"/>
        <pt x="296" y="0" on="1"/>
        <pt x="299" y="18" on="1"/>
      </contour>
      <contour>
        <pt x="291" y="528" on="1"/>
        <pt x="128" y="239" on="1"/>
        <pt x="330" y="239" on="1"/>
      </contour>
      <contour>
        <pt x="227" y="755" on="0"/>
        <pt x="227" y="793" on="0"/>
        <pt x="253" y="819" on="0"/>
        <pt x="291" y="819" on="0"/>
        <pt x="317" y="793" on="0"/>
        <pt x="317" y="755" on="0"/>
        <pt x="291" y="729" on="0"/>
        <pt x="253" y="729" on="0"/>
      </contour>
      <contour>
        <pt x="387" y="755" on="0"/>
        <pt x="387" y="793" on="0"/>
        <pt x="413" y="819" on="0"/>
        <pt x="451" y="819" on="0"/>
        <pt x="477" y="793" on="0"/>
        <pt x="477" y="755" on="0"/>
        <pt x="451" y="729" on="0"/>
        <pt x="413" y="729" on="0"/>
      </contour>
    </TTGlyph>
    <TTGlyph name="Agrave" xMin="-80" yMin="0" xMax="480" yMax="837">
      <component glyphName="A" x="0" y="0" flags="0x1004"/>
      <component glyphName="grave" x="233" y="198" flags="0x1004"/>
    </TTGlyph>
    <TTGlyph name="Aring" xMin="-80" yMin="0" xMax="480" yMax="858">
      <component glyphName="A" x="0" y="0" flags="0x1004"/>
      <component glyphName="ring" x="238" y="198" flags="0x1004"/>
    </TTGlyph>
    <TTGlyph name="Atilde" xMin="-80" yMin="0" xMax="489" yMax="832">
      <contour>
        <pt x="361" y="18" on="1"/>
        <pt x="334" y="211" on="1"/>
        <pt x="113" y="211" on="1"/>
        <pt x="5" y="18" on="1"/>
        <pt x="67" y="18" on="1"/>
        <pt x="64" y="0" on="1"/>
        <pt x="-80" y="0" on="1"/>
        <pt x="-76" y="18" on="1"/>
        <pt x="-41" y="18" on="1"/>
        <pt x="-27" y="18" on="0"/>
        <pt x="-20" y="32" on="1"/>
        <pt x="316" y="630" on="1"/>
        <pt x="348" y="630" on="1"/>
        <pt x="430" y="32" on="1"/>
        <pt x="432" y="18" on="0"/>
        <pt x="445" y="18" on="1"/>
        <pt x="480" y="18" on="1"/>
        <pt x="477" y="0" on="1"/>
        <pt x="296" y="0" on="1"/>
        <pt x="299" y="18" on="1"/>
      </contour>
      <contour>
        <pt x="291" y="528" on="1"/>
        <pt x="128" y="239" on="1"/>
        <pt x="330" y="239" on="1"/>
      </contour>
      <contour>
        <pt x="471" y="832" on="1"/>
        <pt x="489" y="825" on="1"/>
        <pt x="467" y="770" on="0"/>
        <pt x="424" y="728" on="0"/>
        <pt x="386" y="728" on="0"/>
        <pt x="322" y="751" on="0"/>
        <pt x="288" y="751" on="0"/>
        <pt x="263" y="733" on="0"/>
        <pt x="246" y="706" on="1"/>
        <pt x="229" y="713" on="1"/>
        <pt x="266" y="809" on="0"/>
        <pt x="316" y="809" on="1"/>
        <pt x="330" y="809" on="0"/>
        <pt x="394" y="786" on="0"/>
        <pt x="430" y="786" on="0"/>
        <pt x="454" y="805" on="0"/>
      </contour>
    </TTGlyph>
    <TTGlyph name="B" xMin="10" yMin="0" xMax="510" yMax="630">
      <contour>
        <pt x="140" y="612" on="1"/>
        <pt x="143" y="630" on="1"/>
        <pt x="359" y="630" on="1"/>
        <pt x="422" y="630" on="0"/>
        <pt x="510" y="565" on="0"/>
        <pt x="510" y="454" on="0"/>
        <pt x="434" y="359" on="0"/>
        <pt x="376" y="336" on="1"/>
        <pt x="427" y="326" on="0"/>
        <pt x="489" y="260" on="0"/>
        <pt x="489" y="210" on="1"/>
        <pt x="489" y="118" on="0"/>
        <pt x="345" y="0" on="0"/>
        <pt x="256" y="0" on="1"/>
        <pt x="10" y="0" on="1"/>
        <pt x="13" y="18" on="1"/>
        <pt x="59" y="18" on="1"/>
        <pt x="72" y="18" on="0"/>
        <pt x="75" y="33" on="1"/>
        <pt x="195" y="601" on="0"/>
        <pt x="195" y="612" on="0"/>
        <pt x="184" y="612" on="1"/>
      </contour>
      <contour>
        <pt x="320" y="321" on="1"/>
        <pt x="204" y="321" on="1"/>
        <pt x="141" y="23" on="1"/>
        <pt x="257" y="23" on="1"/>
        <pt x="323" y="23" on="0"/>
        <pt x="413" y="144" on="0"/>
        <pt x="413" y="212" on="1"/>
        <pt x="413" y="260" on="0"/>
        <pt x="366" y="321" on="0"/>
      </contour>
      <contour>
        <pt x="334" y="607" on="1"/>
        <pt x="264" y="607" on="1"/>
        <pt x="208" y="341" on="1"/>
        <pt x="277" y="341" on="1"/>
        <pt x="351" y="341" on="0"/>
        <pt x="447" y="445" on="0"/>
        <pt x="447" y="506" on="1"/>
        <pt x="447" y="550" on="0"/>
        <pt x="390" y="607" on="0"/>
      </contour>
    </TTGlyph>
    <TTGlyph name="C" xMin="50" yMin="-12" xMax="589" yMax="642">
      <contour>
        <pt x="437" y="14" on="1"/>
        <pt x="438" y="22" on="1"/>
        <pt x="438" y="35" on="0"/>
        <pt x="427" y="35" on="1"/>
        <pt x="419" y="35" on="0"/>
        <pt x="396" y="24" on="1"/>
        <pt x="327" y="-12" on="0"/>
        <pt x="265" y="-12" on="1"/>
        <pt x="166" y="-12" on="0"/>
        <pt x="50" y="108" on="0"/>
        <pt x="50" y="216" on="1"/>
        <pt x="50" y="289" on="0"/>
        <pt x="98" y="437" on="0"/>
        <pt x="185" y="563" on="0"/>
        <pt x="323" y="642" on="0"/>
        <pt x="404" y="642" on="1"/>
        <pt x="466" y="642" on="0"/>
        <pt x="520" y="606" on="1"/>
        <pt x="538" y="595" on="0"/>
        <pt x="546" y="595" on="1"/>
        <pt x="558" y="595" on="0"/>
        <pt x="565" y="616" on="1"/>
        <pt x="571" y="636" on="1"/>
        <pt x="589" y="636" on="1"/>
        <pt x="552" y="463" on="1"/>
        <pt x="535" y="463" on="1"/>
        <pt x="536" y="471" on="0"/>
        <pt x="536" y="486" on="1"/>
        <pt x="536" y="551" on="0"/>
        <pt x="459" y="613" on="0"/>
        <pt x="329" y="613" on="0"/>
        <pt x="219" y="529" on="0"/>
        <pt x="186" y="466" on="1"/>
        <pt x="119" y="334" on="0"/>
        <pt x="119" y="204" on="1"/>
        <pt x="119" y="115" on="0"/>
        <pt x="197" y="17" on="0"/>
        <pt x="335" y="17" on="0"/>
        <pt x="447" y="90" on="0"/>
        <pt x="472" y="167" on="1"/>
        <pt x="489" y="167" on="1"/>
        <pt x="454" y="0" on="1"/>
        <pt x="436" y="0" on="1"/>
      </contour>
    </TTGlyph>
    <TTGlyph name="Ccedilla" xMin="50" yMin="-216" xMax="589" yMax="642">
      <contour>
        <pt x="437" y="14" on="1"/>
        <pt x="438" y="22" on="1"/>
        <pt x="438" y="35" on="0"/>
        <pt x="427" y="35" on="1"/>
        <pt x="419" y="35" on="0"/>
        <pt x="396" y="24" on="1"/>
        <pt x="327" y="-12" on="0"/>
        <pt x="265" y="-12" on="1"/>
        <pt x="166" y="-12" on="0"/>
        <pt x="50" y="108" on="0"/>
        <pt x="50" y="216" on="1"/>
        <pt x="50" y="289" on="0"/>
        <pt x="98" y="437" on="0"/>
        <pt x="185" y="563" on="0"/>
        <pt x="323" y="642" on="0"/>
        <pt x="404" y="642" on="1"/>
        <pt x="466" y="642" on="0"/>
        <pt x="520" y="606" on="1"/>
        <pt x="538" y="595" on="0"/>
        <pt x="546" y="595" on="1"/>
        <pt x="558" y="595" on="0"/>
        <pt x="565" y="616" on="1"/>
        <pt x="571" y="636" on="1"/>
        <pt x="589" y="636" on="1"/>
        <pt x="552" y="463" on="1"/>
        <pt x="535" y="463" on="1"/>
        <pt x="536" y="471" on="0"/>
        <pt x="536" y="486" on="1"/>
        <pt x="536" y="551" on="0"/>
        <pt x="459" y="613" on="0"/>
        <pt x="329" y="613" on="0"/>
        <pt x="219" y="529" on="0"/>
        <pt x="186" y="466" on="1"/>
        <pt x="119" y="334" on="0"/>
        <pt x="119" y="204" on="1"/>
        <pt x="119" y="115" on="0"/>
        <pt x="197" y="17" on="0"/>
        <pt x="335" y="17" on="0"/>
        <pt x="447" y="90" on="0"/>
        <pt x="472" y="167" on="1"/>
        <pt x="489" y="167" on="1"/>
        <pt x="454" y="0" on="1"/>
        <pt x="436" y="0" on="1"/>
      </contour>
      <contour>
        <pt x="244" y="0" on="1"/>
        <pt x="260" y="0" on="1"/>
        <pt x="241" y="-46" on="1"/>
        <pt x="272" y="-52" on="0"/>
        <pt x="304" y="-92" on="0"/>
        <pt x="304" y="-153" on="0"/>
        <pt x="244" y="-216" on="0"/>
        <pt x="194" y="-216" on="1"/>
        <pt x="168" y="-216" on="0"/>
        <pt x="131" y="-183" on="0"/>
        <pt x="131" y="-132" on="0"/>
        <pt x="153" y="-105" on="0"/>
        <pt x="186" y="-105" on="0"/>
        <pt x="193" y="-112" on="1"/>
        <pt x="176" y="-133" on="0"/>
        <pt x="176" y="-194" on="0"/>
        <pt x="205" y="-194" on="1"/>
        <pt x="224" y="-194" on="0"/>
        <pt x="260" y="-156" on="0"/>
        <pt x="260" y="-125" on="1"/>
        <pt x="260" y="-84" on="0"/>
        <pt x="213" y="-75" on="1"/>
      </contour>
    </TTGlyph>
    <TTGlyph name="D" xMin="10" yMin="0" xMax="601" yMax="630">
      <contour>
        <pt x="379" y="607" on="1"/>
        <pt x="264" y="607" on="1"/>
        <pt x="141" y="23" on="1"/>
        <pt x="257" y="23" on="1"/>
        <pt x="321" y="23" on="0"/>
        <pt x="429" y="103" on="0"/>
        <pt x="462" y="164" on="1"/>
        <pt x="530" y="291" on="0"/>
        <pt x="530" y="417" on="1"/>
        <pt x="530" y="507" on="0"/>
        <pt x="447" y="607" on="0"/>
      </contour>
      <contour>
        <pt x="143" y="630" on="1"/>
        <pt x="385" y="630" on="1"/>
        <pt x="485" y="630" on="0"/>
        <pt x="601" y="513" on="0"/>
        <pt x="601" y="408" on="1"/>
        <pt x="601" y="337" on="0"/>
        <pt x="552" y="194" on="0"/>
        <pt x="466" y="75" on="0"/>
        <pt x="331" y="0" on="0"/>
        <pt x="252" y="0" on="1"/>
        <pt x="10" y="0" on="1"/>
        <pt x="13" y="18" on="1"/>
        <pt x="59" y="18" on="1"/>
        <pt x="72" y="18" on="0"/>
        <pt x="75" y="33" on="1"/>
        <pt x="195" y="601" on="0"/>
        <pt x="195" y="612" on="0"/>
        <pt x="184" y="612" on="1"/>
        <pt x="140" y="612" on="1"/>
      </contour>
    </TTGlyph>
    <TTGlyph name="Delta" xMin="2" yMin="0" xMax="531" yMax="700">
      <contour>
        <pt x="385" y="700" on="1"/>
        <pt x="442" y="700" on="1"/>
        <pt x="531" y="0" on="1"/>
        <pt x="2" y="0" on="1"/>
      </contour>
      <contour>
        <pt x="377" y="619" on="1"/>
        <pt x="75" y="58" on="1"/>
        <pt x="442" y="58" on="1"/>
      </contour>
    </TTGlyph>
    <TTGlyph name="E" xMin="10" yMin="-9" xMax="552" yMax="639">
      <contour>
        <pt x="143" y="630" on="1"/>
        <pt x="444" y="630" on="1"/>
        <pt x="520" y="630" on="0"/>
        <pt x="552" y="639" on="1"/>
        <pt x="537" y="604" on="0"/>
        <pt x="516" y="510" on="1"/>
        <pt x="506" y="463" on="1"/>
        <pt x="484" y="463" on="1"/>
        <pt x="497" y="590" on="1"/>
        <pt x="497" y="607" on="0"/>
        <pt x="475" y="607" on="1"/>
        <pt x="264" y="607" on="1"/>
        <pt x="205" y="329" on="1"/>
        <pt x="407" y="329" on="1"/>
        <pt x="417" y="330" on="0"/>
        <pt x="421" y="343" on="1"/>
        <pt x="441" y="405" on="1"/>
        <pt x="458" y="405" on="1"/>
        <pt x="419" y="225" on="1"/>
        <pt x="402" y="225" on="1"/>
        <pt x="411" y="287" on="1"/>
        <pt x="411" y="301" on="0"/>
        <pt x="400" y="301" on="1"/>
        <pt x="200" y="301" on="1"/>
        <pt x="141" y="23" on="1"/>
        <pt x="362" y="23" on="1"/>
        <pt x="386" y="23" on="0"/>
        <pt x="393" y="45" on="1"/>
        <pt x="435" y="167" on="1"/>
        <pt x="457" y="167" on="1"/>
        <pt x="447" y="120" on="1"/>
        <pt x="428" y="31" on="0"/>
        <pt x="428" y="-9" on="1"/>
        <pt x="399" y="0" on="0"/>
        <pt x="325" y="0" on="1"/>
        <pt x="10" y="0" on="1"/>
        <pt x="13" y="18" on="1"/>
        <pt x="59" y="18" on="1"/>
        <pt x="72" y="18" on="0"/>
        <pt x="75" y="33" on="1"/>
        <pt x="195" y="601" on="0"/>
        <pt x="195" y="612" on="0"/>
        <pt x="184" y="612" on="1"/>
        <pt x="140" y="612" on="1"/>
      </contour>
    </TTGlyph>
    <TTGlyph name="Eacute" xMin="10" yMin="-9" xMax="552" yMax="837">
      <component glyphName="E" x="0" y="0" flags="0x1004"/>
      <component glyphName="acute" x="285" y="198" flags="0x1004"/>
    </TTGlyph>
    <TTGlyph name="Ecircumflex" xMin="10" yMin="-9" xMax="552" yMax="837">
      <contour>
        <pt x="143" y="630" on="1"/>
        <pt x="444" y="630" on="1"/>
        <pt x="520" y="630" on="0"/>
        <pt x="552" y="639" on="1"/>
        <pt x="537" y="604" on="0"/>
        <pt x="516" y="510" on="1"/>
        <pt x="506" y="463" on="1"/>
        <pt x="484" y="463" on="1"/>
        <pt x="497" y="590" on="1"/>
        <pt x="497" y="607" on="0"/>
        <pt x="475" y="607" on="1"/>
        <pt x="264" y="607" on="1"/>
        <pt x="205" y="329" on="1"/>
        <pt x="407" y="329" on="1"/>
        <pt x="417" y="330" on="0"/>
        <pt x="421" y="343" on="1"/>
        <pt x="441" y="405" on="1"/>
        <pt x="458" y="405" on="1"/>
        <pt x="419" y="225" on="1"/>
        <pt x="402" y="225" on="1"/>
        <pt x="411" y="287" on="1"/>
        <pt x="411" y="301" on="0"/>
        <pt x="400" y="301" on="1"/>
        <pt x="200" y="301" on="1"/>
        <pt x="141" y="23" on="1"/>
        <pt x="362" y="23" on="1"/>
        <pt x="386" y="23" on="0"/>
        <pt x="393" y="45" on="1"/>
        <pt x="435" y="167" on="1"/>
        <pt x="457" y="167" on="1"/>
        <pt x="447" y="120" on="1"/>
        <pt x="428" y="31" on="0"/>
        <pt x="428" y="-9" on="1"/>
        <pt x="399" y="0" on="0"/>
        <pt x="325" y="0" on="1"/>
        <pt x="10" y="0" on="1"/>
        <pt x="13" y="18" on="1"/>
        <pt x="59" y="18" on="1"/>
        <pt x="72" y="18" on="0"/>
        <pt x="75" y="33" on="1"/>
        <pt x="195" y="601" on="0"/>
        <pt x="195" y="612" on="0"/>
        <pt x="184" y="612" on="1"/>
        <pt x="140" y="612" on="1"/>
      </contour>
      <contour>
        <pt x="472" y="687" on="1"/>
        <pt x="402" y="772" on="1"/>
        <pt x="300" y="687" on="1"/>
        <pt x="287" y="703" on="1"/>
        <pt x="372" y="815" on="1"/>
        <pt x="390" y="837" on="0"/>
        <pt x="435" y="837" on="0"/>
        <pt x="444" y="814" on="1"/>
        <pt x="488" y="696" on="1"/>
      </contour>
    </TTGlyph>
    <TTGlyph name="Edieresis" xMin="10" yMin="-9" xMax="552" yMax="819">
      <component glyphName="E" x="0" y="0" flags="0x1004"/>
      <component glyphName="dieresis" x="247" y="198" flags="0x1004"/>
    </TTGlyph>
    <TTGlyph name="Egrave" xMin="10" yMin="-9" xMax="552" yMax="837">
      <contour>
        <pt x="143" y="630" on="1"/>
        <pt x="444" y="630" on="1"/>
        <pt x="520" y="630" on="0"/>
        <pt x="552" y="639" on="1"/>
        <pt x="537" y="604" on="0"/>
        <pt x="516" y="510" on="1"/>
        <pt x="506" y="463" on="1"/>
        <pt x="484" y="463" on="1"/>
        <pt x="497" y="590" on="1"/>
        <pt x="497" y="607" on="0"/>
        <pt x="475" y="607" on="1"/>
        <pt x="264" y="607" on="1"/>
        <pt x="205" y="329" on="1"/>
        <pt x="407" y="329" on="1"/>
        <pt x="417" y="330" on="0"/>
        <pt x="421" y="343" on="1"/>
        <pt x="441" y="405" on="1"/>
        <pt x="458" y="405" on="1"/>
        <pt x="419" y="225" on="1"/>
        <pt x="402" y="225" on="1"/>
        <pt x="411" y="287" on="1"/>
        <pt x="411" y="301" on="0"/>
        <pt x="400" y="301" on="1"/>
        <pt x="200" y="301" on="1"/>
        <pt x="141" y="23" on="1"/>
        <pt x="362" y="23" on="1"/>
        <pt x="386" y="23" on="0"/>
        <pt x="393" y="45" on="1"/>
        <pt x="435" y="167" on="1"/>
        <pt x="457" y="167" on="1"/>
        <pt x="447" y="120" on="1"/>
        <pt x="428" y="31" on="0"/>
        <pt x="428" y="-9" on="1"/>
        <pt x="399" y="0" on="0"/>
        <pt x="325" y="0" on="1"/>
        <pt x="10" y="0" on="1"/>
        <pt x="13" y="18" on="1"/>
        <pt x="59" y="18" on="1"/>
        <pt x="72" y="18" on="0"/>
        <pt x="75" y="33" on="1"/>
        <pt x="195" y="601" on="0"/>
        <pt x="195" y="612" on="0"/>
        <pt x="184" y="612" on="1"/>
        <pt x="140" y="612" on="1"/>
      </contour>
      <contour>
        <pt x="449" y="687" on="1"/>
        <pt x="318" y="764" on="1"/>
        <pt x="291" y="779" on="0"/>
        <pt x="291" y="804" on="1"/>
        <pt x="291" y="818" on="0"/>
        <pt x="307" y="837" on="0"/>
        <pt x="338" y="837" on="0"/>
        <pt x="351" y="823" on="1"/>
        <pt x="462" y="703" on="1"/>
      </contour>
    </TTGlyph>
    <TTGlyph name="Eth" xMin="10" yMin="0" xMax="601" yMax="630">
      <component glyphName="D" x="0" y="0" flags="0x1004"/>
      <component glyphName="endash" x="19" y="84" flags="0x1004"/>
    </TTGlyph>
    <TTGlyph name="Euro" xMin="-17" yMin="-12" xMax="448" yMax="579">
      <contour>
        <pt x="336" y="276" on="1"/>
        <pt x="322" y="246" on="1"/>
        <pt x="116" y="246" on="1"/>
        <pt x="106" y="191" on="0"/>
        <pt x="106" y="148" on="1"/>
        <pt x="106" y="16" on="0"/>
        <pt x="201" y="16" on="1"/>
        <pt x="252" y="16" on="0"/>
        <pt x="318" y="89" on="0"/>
        <pt x="318" y="134" on="1"/>
        <pt x="318" y="147" on="0"/>
        <pt x="317" y="153" on="1"/>
        <pt x="341" y="168" on="0"/>
        <pt x="366" y="168" on="1"/>
        <pt x="388" y="168" on="0"/>
        <pt x="388" y="140" on="1"/>
        <pt x="388" y="81" on="0"/>
        <pt x="278" y="-12" on="0"/>
        <pt x="115" y="-12" on="0"/>
        <pt x="41" y="89" on="0"/>
        <pt x="41" y="171" on="1"/>
        <pt x="41" y="210" on="0"/>
        <pt x="48" y="246" on="1"/>
        <pt x="-17" y="246" on="1"/>
        <pt x="-3" y="276" on="1"/>
        <pt x="54" y="276" on="1"/>
        <pt x="63" y="312" on="1"/>
        <pt x="15" y="312" on="1"/>
        <pt x="29" y="342" on="1"/>
        <pt x="74" y="342" on="1"/>
        <pt x="111" y="443" on="0"/>
        <pt x="249" y="579" on="0"/>
        <pt x="333" y="579" on="1"/>
        <pt x="391" y="579" on="0"/>
        <pt x="448" y="527" on="0"/>
        <pt x="448" y="451" on="0"/>
        <pt x="421" y="399" on="0"/>
        <pt x="372" y="399" on="0"/>
        <pt x="357" y="414" on="1"/>
        <pt x="385" y="454" on="0"/>
        <pt x="385" y="493" on="1"/>
        <pt x="385" y="551" on="0"/>
        <pt x="271" y="551" on="0"/>
        <pt x="170" y="432" on="0"/>
        <pt x="140" y="342" on="1"/>
        <pt x="365" y="342" on="1"/>
        <pt x="350" y="312" on="1"/>
        <pt x="131" y="312" on="1"/>
        <pt x="130" y="308" on="0"/>
        <pt x="128" y="300" on="1"/>
        <pt x="124" y="284" on="0"/>
        <pt x="122" y="276" on="1"/>
      </contour>
    </TTGlyph>
    <TTGlyph name="F" xMin="10" yMin="0" xMax="546" yMax="639">
      <contour>
        <pt x="143" y="630" on="1"/>
        <pt x="439" y="630" on="1"/>
        <pt x="514" y="630" on="0"/>
        <pt x="546" y="639" on="1"/>
        <pt x="533" y="609" on="0"/>
        <pt x="511" y="510" on="1"/>
        <pt x="501" y="463" on="1"/>
        <pt x="479" y="463" on="1"/>
        <pt x="489" y="586" on="1"/>
        <pt x="489" y="602" on="0"/>
        <pt x="467" y="602" on="1"/>
        <pt x="263" y="602" on="1"/>
        <pt x="205" y="329" on="1"/>
        <pt x="402" y="329" on="1"/>
        <pt x="414" y="331" on="0"/>
        <pt x="417" y="343" on="1"/>
        <pt x="435" y="405" on="1"/>
        <pt x="452" y="405" on="1"/>
        <pt x="413" y="225" on="1"/>
        <pt x="396" y="225" on="1"/>
        <pt x="406" y="287" on="1"/>
        <pt x="406" y="301" on="0"/>
        <pt x="394" y="301" on="1"/>
        <pt x="199" y="301" on="1"/>
        <pt x="142" y="28" on="1"/>
        <pt x="142" y="18" on="0"/>
        <pt x="152" y="18" on="1"/>
        <pt x="235" y="18" on="1"/>
        <pt x="232" y="0" on="1"/>
        <pt x="10" y="0" on="1"/>
        <pt x="13" y="18" on="1"/>
        <pt x="59" y="18" on="1"/>
        <pt x="72" y="18" on="0"/>
        <pt x="75" y="33" on="1"/>
        <pt x="195" y="601" on="0"/>
        <pt x="195" y="612" on="0"/>
        <pt x="184" y="612" on="1"/>
        <pt x="140" y="612" on="1"/>
      </contour>
    </TTGlyph>
    <TTGlyph name="G" xMin="50" yMin="-12" xMax="589" yMax="642">
      <contour>
        <pt x="531" y="226" on="1"/>
        <pt x="524" y="192" on="1"/>
        <pt x="505" y="103" on="0"/>
        <pt x="360" y="-12" on="0"/>
        <pt x="166" y="-12" on="0"/>
        <pt x="50" y="108" on="0"/>
        <pt x="50" y="216" on="1"/>
        <pt x="50" y="289" on="0"/>
        <pt x="98" y="437" on="0"/>
        <pt x="185" y="563" on="0"/>
        <pt x="323" y="642" on="0"/>
        <pt x="404" y="642" on="1"/>
        <pt x="466" y="642" on="0"/>
        <pt x="520" y="606" on="1"/>
        <pt x="538" y="595" on="0"/>
        <pt x="546" y="595" on="1"/>
        <pt x="558" y="595" on="0"/>
        <pt x="565" y="616" on="1"/>
        <pt x="571" y="636" on="1"/>
        <pt x="589" y="636" on="1"/>
        <pt x="552" y="463" on="1"/>
        <pt x="535" y="463" on="1"/>
        <pt x="536" y="471" on="0"/>
        <pt x="536" y="486" on="1"/>
        <pt x="536" y="551" on="0"/>
        <pt x="459" y="613" on="0"/>
        <pt x="329" y="613" on="0"/>
        <pt x="219" y="529" on="0"/>
        <pt x="186" y="466" on="1"/>
        <pt x="119" y="334" on="0"/>
        <pt x="119" y="204" on="1"/>
        <pt x="119" y="114" on="0"/>
        <pt x="199" y="17" on="0"/>
        <pt x="354" y="17" on="0"/>
        <pt x="446" y="119" on="0"/>
        <pt x="464" y="229" on="1"/>
        <pt x="464" y="240" on="0"/>
        <pt x="454" y="240" on="1"/>
        <pt x="391" y="240" on="1"/>
        <pt x="394" y="258" on="1"/>
        <pt x="577" y="258" on="1"/>
        <pt x="574" y="240" on="1"/>
        <pt x="549" y="240" on="1"/>
        <pt x="534" y="240" on="0"/>
      </contour>
    </TTGlyph>
    <TTGlyph name="H" xMin="10" yMin="0" xMax="693" yMax="630">
      <contour>
        <pt x="628" y="598" on="1"/>
        <pt x="508" y="28" on="1"/>
        <pt x="508" y="18" on="0"/>
        <pt x="519" y="18" on="1"/>
        <pt x="563" y="18" on="1"/>
        <pt x="560" y="0" on="1"/>
        <pt x="376" y="0" on="1"/>
        <pt x="379" y="18" on="1"/>
        <pt x="425" y="18" on="1"/>
        <pt x="438" y="18" on="0"/>
        <pt x="441" y="33" on="1"/>
        <pt x="498" y="301" on="1"/>
        <pt x="198" y="301" on="1"/>
        <pt x="142" y="36" on="0"/>
        <pt x="142" y="18" on="0"/>
        <pt x="153" y="18" on="1"/>
        <pt x="197" y="18" on="1"/>
        <pt x="194" y="0" on="1"/>
        <pt x="10" y="0" on="1"/>
        <pt x="13" y="18" on="1"/>
        <pt x="59" y="18" on="1"/>
        <pt x="72" y="18" on="0"/>
        <pt x="75" y="33" on="1"/>
        <pt x="195" y="601" on="0"/>
        <pt x="195" y="612" on="0"/>
        <pt x="184" y="612" on="1"/>
        <pt x="140" y="612" on="1"/>
        <pt x="143" y="630" on="1"/>
        <pt x="327" y="630" on="1"/>
        <pt x="324" y="612" on="1"/>
        <pt x="279" y="612" on="1"/>
        <pt x="266" y="612" on="0"/>
        <pt x="262" y="598" on="1"/>
        <pt x="204" y="329" on="1"/>
        <pt x="503" y="329" on="1"/>
        <pt x="561" y="602" on="0"/>
        <pt x="561" y="612" on="0"/>
        <pt x="550" y="612" on="1"/>
        <pt x="506" y="612" on="1"/>
        <pt x="509" y="630" on="1"/>
        <pt x="693" y="630" on="1"/>
        <pt x="690" y="612" on="1"/>
        <pt x="645" y="612" on="1"/>
        <pt x="632" y="612" on="0"/>
      </contour>
    </TTGlyph>
    <TTGlyph name="I" xMin="10" yMin="0" xMax="327" yMax="630">
      <contour>
        <pt x="262" y="598" on="1"/>
        <pt x="142" y="28" on="1"/>
        <pt x="142" y="18" on="0"/>
        <pt x="153" y="18" on="1"/>
        <pt x="197" y="18" on="1"/>
        <pt x="194" y="0" on="1"/>
        <pt x="10" y="0" on="1"/>
        <pt x="13" y="18" on="1"/>
        <pt x="59" y="18" on="1"/>
        <pt x="72" y="18" on="0"/>
        <pt x="75" y="33" on="1"/>
        <pt x="195" y="601" on="0"/>
        <pt x="195" y="612" on="0"/>
        <pt x="184" y="612" on="1"/>
        <pt x="140" y="612" on="1"/>
        <pt x="143" y="630" on="1"/>
        <pt x="327" y="630" on="1"/>
        <pt x="324" y="612" on="1"/>
        <pt x="279" y="612" on="1"/>
        <pt x="266" y="612" on="0"/>
      </contour>
    </TTGlyph>
    <TTGlyph name="Iacute" xMin="10" yMin="0" xMax="345" yMax="837">
      <component glyphName="I" x="0" y="0" flags="0x1004"/>
      <component glyphName="acute" x="144" y="198" flags="0x1004"/>
    </TTGlyph>
    <TTGlyph name="Icircumflex" xMin="10" yMin="0" xMax="346" yMax="837">
      <contour>
        <pt x="262" y="598" on="1"/>
        <pt x="142" y="28" on="1"/>
        <pt x="142" y="18" on="0"/>
        <pt x="153" y="18" on="1"/>
        <pt x="197" y="18" on="1"/>
        <pt x="194" y="0" on="1"/>
        <pt x="10" y="0" on="1"/>
        <pt x="13" y="18" on="1"/>
        <pt x="59" y="18" on="1"/>
        <pt x="72" y="18" on="0"/>
        <pt x="75" y="33" on="1"/>
        <pt x="195" y="601" on="0"/>
        <pt x="195" y="612" on="0"/>
        <pt x="184" y="612" on="1"/>
        <pt x="140" y="612" on="1"/>
        <pt x="143" y="630" on="1"/>
        <pt x="327" y="630" on="1"/>
        <pt x="324" y="612" on="1"/>
        <pt x="279" y="612" on="1"/>
        <pt x="266" y="612" on="0"/>
      </contour>
      <contour>
        <pt x="330" y="687" on="1"/>
        <pt x="260" y="772" on="1"/>
        <pt x="158" y="687" on="1"/>
        <pt x="145" y="703" on="1"/>
        <pt x="230" y="815" on="1"/>
        <pt x="248" y="837" on="0"/>
        <pt x="293" y="837" on="0"/>
        <pt x="302" y="814" on="1"/>
        <pt x="346" y="696" on="1"/>
      </contour>
    </TTGlyph>
    <TTGlyph name="Idieresis" xMin="10" yMin="0" xMax="386" yMax="819">
      <component glyphName="I" x="0" y="0" flags="0x1004"/>
      <component glyphName="dieresis" x="106" y="198" flags="0x1004"/>
    </TTGlyph>
    <TTGlyph name="Igrave" xMin="10" yMin="0" xMax="346" yMax="837">
      <contour>
        <pt x="262" y="598" on="1"/>
        <pt x="142" y="28" on="1"/>
        <pt x="142" y="18" on="0"/>
        <pt x="153" y="18" on="1"/>
        <pt x="197" y="18" on="1"/>
        <pt x="194" y="0" on="1"/>
        <pt x="10" y="0" on="1"/>
        <pt x="13" y="18" on="1"/>
        <pt x="59" y="18" on="1"/>
        <pt x="72" y="18" on="0"/>
        <pt x="75" y="33" on="1"/>
        <pt x="195" y="601" on="0"/>
        <pt x="195" y="612" on="0"/>
        <pt x="184" y="612" on="1"/>
        <pt x="140" y="612" on="1"/>
        <pt x="143" y="630" on="1"/>
        <pt x="327" y="630" on="1"/>
        <pt x="324" y="612" on="1"/>
        <pt x="279" y="612" on="1"/>
        <pt x="266" y="612" on="0"/>
      </contour>
      <contour>
        <pt x="333" y="687" on="1"/>
        <pt x="202" y="764" on="1"/>
        <pt x="175" y="779" on="0"/>
        <pt x="175" y="804" on="1"/>
        <pt x="175" y="818" on="0"/>
        <pt x="191" y="837" on="0"/>
        <pt x="222" y="837" on="0"/>
        <pt x="235" y="823" on="1"/>
        <pt x="346" y="703" on="1"/>
      </contour>
    </TTGlyph>
    <TTGlyph name="J" xMin="-116" yMin="-159" xMax="327" yMax="630">
      <contour>
        <pt x="58" y="-45" on="1"/>
        <pt x="195" y="604" on="1"/>
        <pt x="195" y="612" on="0"/>
        <pt x="184" y="612" on="1"/>
        <pt x="140" y="612" on="1"/>
        <pt x="143" y="630" on="1"/>
        <pt x="327" y="630" on="1"/>
        <pt x="324" y="612" on="1"/>
        <pt x="279" y="612" on="1"/>
        <pt x="266" y="612" on="0"/>
        <pt x="262" y="598" on="1"/>
        <pt x="162" y="127" on="1"/>
        <pt x="101" y="-159" on="0"/>
        <pt x="-33" y="-159" on="1"/>
        <pt x="-77" y="-159" on="0"/>
        <pt x="-116" y="-120" on="0"/>
        <pt x="-116" y="-61" on="0"/>
        <pt x="-87" y="-12" on="0"/>
        <pt x="-36" y="-12" on="0"/>
        <pt x="-24" y="-27" on="1"/>
        <pt x="-53" y="-69" on="0"/>
        <pt x="-53" y="-102" on="1"/>
        <pt x="-53" y="-116" on="0"/>
        <pt x="-36" y="-135" on="0"/>
        <pt x="5" y="-135" on="0"/>
        <pt x="48" y="-91" on="0"/>
      </contour>
    </TTGlyph>
    <TTGlyph name="K" xMin="10" yMin="-12" xMax="603" yMax="630">
      <contour>
        <pt x="262" y="598" on="1"/>
        <pt x="142" y="28" on="1"/>
        <pt x="142" y="18" on="0"/>
        <pt x="153" y="18" on="1"/>
        <pt x="197" y="18" on="1"/>
        <pt x="194" y="0" on="1"/>
        <pt x="10" y="0" on="1"/>
        <pt x="13" y="18" on="1"/>
        <pt x="59" y="18" on="1"/>
        <pt x="72" y="18" on="0"/>
        <pt x="75" y="33" on="1"/>
        <pt x="195" y="601" on="0"/>
        <pt x="195" y="612" on="0"/>
        <pt x="184" y="612" on="1"/>
        <pt x="140" y="612" on="1"/>
        <pt x="143" y="630" on="1"/>
        <pt x="327" y="630" on="1"/>
        <pt x="324" y="612" on="1"/>
        <pt x="279" y="612" on="1"/>
        <pt x="266" y="612" on="0"/>
      </contour>
      <contour>
        <pt x="405" y="175" on="1"/>
        <pt x="407" y="83" on="1"/>
        <pt x="409" y="21" on="0"/>
        <pt x="440" y="21" on="1"/>
        <pt x="460" y="21" on="0"/>
        <pt x="487" y="63" on="0"/>
        <pt x="487" y="96" on="1"/>
        <pt x="506" y="99" on="1"/>
        <pt x="506" y="48" on="0"/>
        <pt x="453" y="-12" on="0"/>
        <pt x="413" y="-12" on="1"/>
        <pt x="342" y="-12" on="0"/>
        <pt x="338" y="95" on="1"/>
        <pt x="334" y="193" on="1"/>
        <pt x="331" y="258" on="0"/>
        <pt x="283" y="309" on="0"/>
        <pt x="228" y="309" on="1"/>
        <pt x="233" y="325" on="1"/>
        <pt x="518" y="612" on="1"/>
        <pt x="471" y="612" on="1"/>
        <pt x="474" y="630" on="1"/>
        <pt x="603" y="630" on="1"/>
        <pt x="600" y="612" on="1"/>
        <pt x="574" y="612" on="1"/>
        <pt x="558" y="612" on="0"/>
        <pt x="545" y="598" on="1"/>
        <pt x="274" y="327" on="1"/>
        <pt x="346" y="326" on="0"/>
        <pt x="403" y="244" on="0"/>
      </contour>
    </TTGlyph>
    <TTGlyph name="L" xMin="10" yMin="-9" xMax="433" yMax="630">
      <contour>
        <pt x="262" y="598" on="1"/>
        <pt x="141" y="23" on="1"/>
        <pt x="338" y="23" on="1"/>
        <pt x="363" y="23" on="0"/>
        <pt x="370" y="45" on="1"/>
        <pt x="411" y="167" on="1"/>
        <pt x="433" y="167" on="1"/>
        <pt x="423" y="120" on="1"/>
        <pt x="404" y="33" on="0"/>
        <pt x="404" y="-9" on="1"/>
        <pt x="375" y="0" on="0"/>
        <pt x="301" y="0" on="1"/>
        <pt x="10" y="0" on="1"/>
        <pt x="13" y="18" on="1"/>
        <pt x="59" y="18" on="1"/>
        <pt x="72" y="18" on="0"/>
        <pt x="75" y="33" on="1"/>
        <pt x="195" y="601" on="0"/>
        <pt x="195" y="612" on="0"/>
        <pt x="184" y="612" on="1"/>
        <pt x="140" y="612" on="1"/>
        <pt x="143" y="630" on="1"/>
        <pt x="327" y="630" on="1"/>
        <pt x="324" y="612" on="1"/>
        <pt x="279" y="612" on="1"/>
        <pt x="266" y="612" on="0"/>
      </contour>
    </TTGlyph>
    <TTGlyph name="Lslash" xMin="10" yMin="-9" xMax="433" yMax="630">
      <contour>
        <pt x="38" y="227" on="1"/>
        <pt x="23" y="255" on="1"/>
        <pt x="331" y="412" on="1"/>
        <pt x="346" y="384" on="1"/>
      </contour>
      <contour>
        <pt x="262" y="598" on="1"/>
        <pt x="141" y="23" on="1"/>
        <pt x="338" y="23" on="1"/>
        <pt x="363" y="23" on="0"/>
        <pt x="370" y="45" on="1"/>
        <pt x="411" y="167" on="1"/>
        <pt x="433" y="167" on="1"/>
        <pt x="423" y="120" on="1"/>
        <pt x="404" y="33" on="0"/>
        <pt x="404" y="-9" on="1"/>
        <pt x="375" y="0" on="0"/>
        <pt x="301" y="0" on="1"/>
        <pt x="10" y="0" on="1"/>
        <pt x="13" y="18" on="1"/>
        <pt x="59" y="18" on="1"/>
        <pt x="72" y="18" on="0"/>
        <pt x="75" y="33" on="1"/>
        <pt x="195" y="601" on="0"/>
        <pt x="195" y="612" on="0"/>
        <pt x="184" y="612" on="1"/>
        <pt x="140" y="612" on="1"/>
        <pt x="143" y="630" on="1"/>
        <pt x="327" y="630" on="1"/>
        <pt x="324" y="612" on="1"/>
        <pt x="279" y="612" on="1"/>
        <pt x="266" y="612" on="0"/>
      </contour>
    </TTGlyph>
    <TTGlyph name="M" xMin="0" yMin="0" xMax="789" yMax="630">
      <contour>
        <pt x="649" y="565" on="1"/>
        <pt x="321" y="0" on="1"/>
        <pt x="289" y="0" on="1"/>
        <pt x="209" y="565" on="1"/>
        <pt x="97" y="33" on="0"/>
        <pt x="97" y="18" on="0"/>
        <pt x="108" y="18" on="1"/>
        <pt x="152" y="18" on="1"/>
        <pt x="149" y="0" on="1"/>
        <pt x="0" y="0" on="1"/>
        <pt x="3" y="18" on="1"/>
        <pt x="49" y="18" on="1"/>
        <pt x="62" y="18" on="0"/>
        <pt x="65" y="33" on="1"/>
        <pt x="185" y="601" on="0"/>
        <pt x="185" y="612" on="0"/>
        <pt x="174" y="612" on="1"/>
        <pt x="130" y="612" on="1"/>
        <pt x="133" y="630" on="1"/>
        <pt x="269" y="630" on="1"/>
        <pt x="344" y="94" on="1"/>
        <pt x="653" y="630" on="1"/>
        <pt x="789" y="630" on="1"/>
        <pt x="786" y="612" on="1"/>
        <pt x="741" y="612" on="1"/>
        <pt x="728" y="612" on="0"/>
        <pt x="724" y="598" on="1"/>
        <pt x="711" y="535" on="0"/>
        <pt x="678" y="378" on="1"/>
        <pt x="604" y="35" on="0"/>
        <pt x="604" y="18" on="0"/>
        <pt x="615" y="18" on="1"/>
        <pt x="659" y="18" on="1"/>
        <pt x="656" y="0" on="1"/>
        <pt x="472" y="0" on="1"/>
        <pt x="475" y="18" on="1"/>
        <pt x="521" y="18" on="1"/>
        <pt x="534" y="18" on="0"/>
        <pt x="537" y="33" on="1"/>
      </contour>
    </TTGlyph>
    <TTGlyph name="N" xMin="0" yMin="0" xMax="669" yMax="630">
      <contour>
        <pt x="273" y="630" on="1"/>
        <pt x="472" y="125" on="1"/>
        <pt x="573" y="603" on="0"/>
        <pt x="573" y="612" on="0"/>
        <pt x="562" y="612" on="1"/>
        <pt x="518" y="612" on="1"/>
        <pt x="521" y="630" on="1"/>
        <pt x="669" y="630" on="1"/>
        <pt x="666" y="612" on="1"/>
        <pt x="621" y="612" on="1"/>
        <pt x="608" y="612" on="0"/>
        <pt x="604" y="598" on="1"/>
        <pt x="478" y="0" on="1"/>
        <pt x="448" y="0" on="1"/>
        <pt x="214" y="587" on="1"/>
        <pt x="97" y="31" on="0"/>
        <pt x="97" y="18" on="0"/>
        <pt x="108" y="18" on="1"/>
        <pt x="152" y="18" on="1"/>
        <pt x="149" y="0" on="1"/>
        <pt x="0" y="0" on="1"/>
        <pt x="3" y="18" on="1"/>
        <pt x="49" y="18" on="1"/>
        <pt x="62" y="18" on="0"/>
        <pt x="65" y="33" on="1"/>
        <pt x="185" y="601" on="0"/>
        <pt x="185" y="612" on="0"/>
        <pt x="174" y="612" on="1"/>
        <pt x="130" y="612" on="1"/>
        <pt x="133" y="630" on="1"/>
      </contour>
    </TTGlyph>
    <TTGlyph name="Ntilde" xMin="0" yMin="0" xMax="669" yMax="832">
      <component glyphName="N" x="0" y="0" flags="0x1004"/>
      <component glyphName="tilde" x="273" y="198" flags="0x1004"/>
    </TTGlyph>
    <TTGlyph name="O" xMin="50" yMin="-12" xMax="617" yMax="642">
      <contour>
        <pt x="280" y="616" on="1"/>
        <pt x="338" y="642" on="0"/>
        <pt x="403" y="642" on="1"/>
        <pt x="502" y="642" on="0"/>
        <pt x="617" y="523" on="0"/>
        <pt x="617" y="415" on="1"/>
        <pt x="617" y="342" on="0"/>
        <pt x="569" y="193" on="0"/>
        <pt x="483" y="67" on="0"/>
        <pt x="345" y="-12" on="0"/>
        <pt x="165" y="-12" on="0"/>
        <pt x="50" y="108" on="0"/>
        <pt x="50" y="336" on="0"/>
        <pt x="175" y="568" on="0"/>
      </contour>
      <contour>
        <pt x="466" y="616" on="0"/>
        <pt x="334" y="616" on="0"/>
        <pt x="222" y="531" on="0"/>
        <pt x="189" y="466" on="1"/>
        <pt x="120" y="332" on="0"/>
        <pt x="120" y="206" on="1"/>
        <pt x="120" y="115" on="0"/>
        <pt x="199" y="14" on="0"/>
        <pt x="332" y="14" on="0"/>
        <pt x="444" y="99" on="0"/>
        <pt x="478" y="163" on="1"/>
        <pt x="547" y="296" on="0"/>
        <pt x="547" y="423" on="1"/>
        <pt x="547" y="514" on="0"/>
      </contour>
    </TTGlyph>
    <TTGlyph name="OE" xMin="50" yMin="-12" xMax="855" yMax="642">
      <contour>
        <pt x="569" y="326" on="1"/>
        <pt x="564" y="303" on="1"/>
        <pt x="544" y="213" on="0"/>
        <pt x="449" y="62" on="0"/>
        <pt x="381" y="23" on="1"/>
        <pt x="665" y="23" on="1"/>
        <pt x="689" y="23" on="0"/>
        <pt x="696" y="45" on="1"/>
        <pt x="738" y="167" on="1"/>
        <pt x="760" y="167" on="1"/>
        <pt x="750" y="120" on="1"/>
        <pt x="731" y="31" on="0"/>
        <pt x="731" y="-9" on="1"/>
        <pt x="702" y="0" on="0"/>
        <pt x="628" y="0" on="1"/>
        <pt x="328" y="0" on="1"/>
        <pt x="285" y="-12" on="0"/>
        <pt x="249" y="-12" on="1"/>
        <pt x="157" y="-12" on="0"/>
        <pt x="50" y="108" on="0"/>
        <pt x="50" y="216" on="1"/>
        <pt x="50" y="336" on="0"/>
        <pt x="106" y="448" on="1"/>
        <pt x="168" y="570" on="0"/>
        <pt x="264" y="616" on="1"/>
        <pt x="318" y="642" on="0"/>
        <pt x="419" y="642" on="0"/>
        <pt x="452" y="630" on="1"/>
        <pt x="747" y="630" on="1"/>
        <pt x="823" y="630" on="0"/>
        <pt x="855" y="639" on="1"/>
        <pt x="840" y="604" on="0"/>
        <pt x="819" y="510" on="1"/>
        <pt x="809" y="463" on="1"/>
        <pt x="787" y="463" on="1"/>
        <pt x="800" y="590" on="1"/>
        <pt x="800" y="607" on="0"/>
        <pt x="778" y="607" on="1"/>
        <pt x="496" y="607" on="1"/>
        <pt x="577" y="548" on="0"/>
        <pt x="577" y="415" on="1"/>
        <pt x="577" y="374" on="0"/>
      </contour>
      <contour>
        <pt x="434" y="616" on="0"/>
        <pt x="314" y="616" on="0"/>
        <pt x="213" y="531" on="0"/>
        <pt x="183" y="466" on="1"/>
        <pt x="120" y="331" on="0"/>
        <pt x="120" y="206" on="1"/>
        <pt x="120" y="115" on="0"/>
        <pt x="192" y="14" on="0"/>
        <pt x="312" y="14" on="0"/>
        <pt x="414" y="99" on="0"/>
        <pt x="444" y="163" on="1"/>
        <pt x="507" y="297" on="0"/>
        <pt x="507" y="423" on="1"/>
        <pt x="507" y="514" on="0"/>
      </contour>
      <contour>
        <pt x="503" y="301" on="1"/>
        <pt x="508" y="329" on="1"/>
        <pt x="710" y="329" on="1"/>
        <pt x="720" y="330" on="0"/>
        <pt x="724" y="343" on="1"/>
        <pt x="744" y="405" on="1"/>
        <pt x="761" y="405" on="1"/>
        <pt x="722" y="225" on="1"/>
        <pt x="705" y="225" on="1"/>
        <pt x="714" y="287" on="1"/>
        <pt x="714" y="301" on="0"/>
        <pt x="703" y="301" on="1"/>
      </contour>
    </TTGlyph>
    <TTGlyph name="Oacute" xMin="50" yMin="-12" xMax="617" yMax="837">
      <component glyphName="O" x="0" y="0" flags="0x1004"/>
      <component glyphName="acute" x="307" y="198" flags="0x1004"/>
    </TTGlyph>
    <TTGlyph name="Ocircumflex" xMin="50" yMin="-12" xMax="617" yMax="837">
      <contour>
        <pt x="280" y="616" on="1"/>
        <pt x="338" y="642" on="0"/>
        <pt x="403" y="642" on="1"/>
        <pt x="502" y="642" on="0"/>
        <pt x="617" y="523" on="0"/>
        <pt x="617" y="415" on="1"/>
        <pt x="617" y="342" on="0"/>
        <pt x="569" y="193" on="0"/>
        <pt x="483" y="67" on="0"/>
        <pt x="345" y="-12" on="0"/>
        <pt x="165" y="-12" on="0"/>
        <pt x="50" y="108" on="0"/>
        <pt x="50" y="336" on="0"/>
        <pt x="175" y="568" on="0"/>
      </contour>
      <contour>
        <pt x="466" y="616" on="0"/>
        <pt x="334" y="616" on="0"/>
        <pt x="222" y="531" on="0"/>
        <pt x="189" y="466" on="1"/>
        <pt x="120" y="332" on="0"/>
        <pt x="120" y="206" on="1"/>
        <pt x="120" y="115" on="0"/>
        <pt x="199" y="14" on="0"/>
        <pt x="332" y="14" on="0"/>
        <pt x="444" y="99" on="0"/>
        <pt x="478" y="163" on="1"/>
        <pt x="547" y="296" on="0"/>
        <pt x="547" y="423" on="1"/>
        <pt x="547" y="514" on="0"/>
      </contour>
      <contour>
        <pt x="494" y="687" on="1"/>
        <pt x="424" y="772" on="1"/>
        <pt x="322" y="687" on="1"/>
        <pt x="309" y="703" on="1"/>
        <pt x="394" y="815" on="1"/>
        <pt x="412" y="837" on="0"/>
        <pt x="457" y="837" on="0"/>
        <pt x="466" y="814" on="1"/>
        <pt x="510" y="696" on="1"/>
      </contour>
    </TTGlyph>
    <TTGlyph name="Odieresis" xMin="50" yMin="-12" xMax="617" yMax="819">
      <component glyphName="O" x="0" y="0" flags="0x1004"/>
      <component glyphName="dieresis" x="272" y="198" flags="0x1004"/>
    </TTGlyph>
    <TTGlyph name="Ograve" xMin="50" yMin="-12" xMax="617" yMax="837">
      <contour>
        <pt x="280" y="616" on="1"/>
        <pt x="338" y="642" on="0"/>
        <pt x="403" y="642" on="1"/>
        <pt x="502" y="642" on="0"/>
        <pt x="617" y="523" on="0"/>
        <pt x="617" y="415" on="1"/>
        <pt x="617" y="342" on="0"/>
        <pt x="569" y="193" on="0"/>
        <pt x="483" y="67" on="0"/>
        <pt x="345" y="-12" on="0"/>
        <pt x="165" y="-12" on="0"/>
        <pt x="50" y="108" on="0"/>
        <pt x="50" y="336" on="0"/>
        <pt x="175" y="568" on="0"/>
      </contour>
      <contour>
        <pt x="466" y="616" on="0"/>
        <pt x="334" y="616" on="0"/>
        <pt x="222" y="531" on="0"/>
        <pt x="189" y="466" on="1"/>
        <pt x="120" y="332" on="0"/>
        <pt x="120" y="206" on="1"/>
        <pt x="120" y="115" on="0"/>
        <pt x="199" y="14" on="0"/>
        <pt x="332" y="14" on="0"/>
        <pt x="444" y="99" on="0"/>
        <pt x="478" y="163" on="1"/>
        <pt x="547" y="296" on="0"/>
        <pt x="547" y="423" on="1"/>
        <pt x="547" y="514" on="0"/>
      </contour>
      <contour>
        <pt x="496" y="687" on="1"/>
        <pt x="365" y="764" on="1"/>
        <pt x="338" y="779" on="0"/>
        <pt x="338" y="804" on="1"/>
        <pt x="338" y="818" on="0"/>
        <pt x="354" y="837" on="0"/>
        <pt x="385" y="837" on="0"/>
        <pt x="398" y="823" on="1"/>
        <pt x="509" y="703" on="1"/>
      </contour>
    </TTGlyph>
    <TTGlyph name="Omega" xMin="25" yMin="2" xMax="697" yMax="674">
      <contour>
        <pt x="617" y="547" on="0"/>
        <pt x="528" y="648" on="0"/>
        <pt x="376" y="648" on="0"/>
        <pt x="245" y="536" on="0"/>
        <pt x="179" y="378" on="0"/>
        <pt x="179" y="298" on="1"/>
        <pt x="179" y="183" on="0"/>
        <pt x="247" y="119" on="1"/>
        <pt x="223" y="2" on="1"/>
        <pt x="25" y="2" on="1"/>
        <pt x="28" y="20" on="1"/>
        <pt x="146" y="20" on="1"/>
        <pt x="160" y="20" on="0"/>
        <pt x="163" y="34" on="1"/>
        <pt x="184" y="117" on="1"/>
        <pt x="99" y="190" on="0"/>
        <pt x="99" y="305" on="1"/>
        <pt x="99" y="399" on="0"/>
        <pt x="193" y="568" on="0"/>
        <pt x="361" y="674" on="0"/>
        <pt x="569" y="674" on="0"/>
        <pt x="697" y="557" on="0"/>
        <pt x="697" y="342" on="0"/>
        <pt x="586" y="170" on="0"/>
        <pt x="502" y="117" on="1"/>
        <pt x="487" y="34" on="1"/>
        <pt x="489" y="20" on="0"/>
        <pt x="498" y="20" on="1"/>
        <pt x="616" y="20" on="1"/>
        <pt x="613" y="2" on="1"/>
        <pt x="415" y="2" on="1"/>
        <pt x="439" y="119" on="1"/>
        <pt x="511" y="167" on="0"/>
        <pt x="617" y="349" on="0"/>
      </contour>
    </TTGlyph>
    <TTGlyph name="Oslash" xMin="50" yMin="-80" xMax="617" yMax="714">
      <contour>
        <pt x="280" y="616" on="1"/>
        <pt x="338" y="642" on="0"/>
        <pt x="403" y="642" on="1"/>
        <pt x="502" y="642" on="0"/>
        <pt x="617" y="523" on="0"/>
        <pt x="617" y="415" on="1"/>
        <pt x="617" y="342" on="0"/>
        <pt x="569" y="193" on="0"/>
        <pt x="483" y="67" on="0"/>
        <pt x="345" y="-12" on="0"/>
        <pt x="165" y="-12" on="0"/>
        <pt x="50" y="108" on="0"/>
        <pt x="50" y="336" on="0"/>
        <pt x="175" y="568" on="0"/>
      </contour>
      <contour>
        <pt x="466" y="616" on="0"/>
        <pt x="334" y="616" on="0"/>
        <pt x="222" y="531" on="0"/>
        <pt x="189" y="466" on="1"/>
        <pt x="120" y="332" on="0"/>
        <pt x="120" y="206" on="1"/>
        <pt x="120" y="115" on="0"/>
        <pt x="199" y="14" on="0"/>
        <pt x="332" y="14" on="0"/>
        <pt x="444" y="99" on="0"/>
        <pt x="478" y="163" on="1"/>
        <pt x="547" y="296" on="0"/>
        <pt x="547" y="423" on="1"/>
        <pt x="547" y="514" on="0"/>
      </contour>
      <contour>
        <pt x="225" y="-80" on="1"/>
        <pt x="192" y="-80" on="1"/>
        <pt x="441" y="714" on="1"/>
        <pt x="475" y="714" on="1"/>
      </contour>
    </TTGlyph>
    <TTGlyph name="Otilde" xMin="50" yMin="-12" xMax="617" yMax="832">
      <component glyphName="O" x="0" y="0" flags="0x1004"/>
      <component glyphName="tilde" x="265" y="198" flags="0x1004"/>
    </TTGlyph>
    <TTGlyph name="P" xMin="10" yMin="0" xMax="522" yMax="630">
      <contour>
        <pt x="286" y="251" on="1"/>
        <pt x="188" y="251" on="1"/>
        <pt x="142" y="39" on="0"/>
        <pt x="142" y="18" on="0"/>
        <pt x="153" y="18" on="1"/>
        <pt x="226" y="18" on="1"/>
        <pt x="223" y="0" on="1"/>
        <pt x="10" y="0" on="1"/>
        <pt x="13" y="18" on="1"/>
        <pt x="59" y="18" on="1"/>
        <pt x="72" y="18" on="0"/>
        <pt x="75" y="33" on="1"/>
        <pt x="195" y="601" on="0"/>
        <pt x="195" y="612" on="0"/>
        <pt x="184" y="612" on="1"/>
        <pt x="140" y="612" on="1"/>
        <pt x="143" y="630" on="1"/>
        <pt x="366" y="630" on="1"/>
        <pt x="434" y="630" on="0"/>
        <pt x="522" y="554" on="0"/>
        <pt x="522" y="487" on="1"/>
        <pt x="522" y="381" on="0"/>
        <pt x="376" y="251" on="0"/>
      </contour>
      <contour>
        <pt x="355" y="607" on="1"/>
        <pt x="264" y="607" on="1"/>
        <pt x="193" y="274" on="1"/>
        <pt x="287" y="274" on="1"/>
        <pt x="359" y="274" on="0"/>
        <pt x="456" y="414" on="0"/>
        <pt x="456" y="491" on="1"/>
        <pt x="456" y="541" on="0"/>
        <pt x="405" y="607" on="0"/>
      </contour>
    </TTGlyph>
    <TTGlyph name="Q" xMin="50" yMin="-198" xMax="617" yMax="642">
      <contour>
        <pt x="338" y="27" on="1"/>
        <pt x="344" y="9" on="1"/>
        <pt x="290" y="-11" on="0"/>
        <pt x="242" y="-11" on="1"/>
        <pt x="152" y="-11" on="0"/>
        <pt x="50" y="119" on="0"/>
        <pt x="50" y="216" on="1"/>
        <pt x="50" y="336" on="0"/>
        <pt x="110" y="448" on="1"/>
        <pt x="175" y="568" on="0"/>
        <pt x="280" y="616" on="1"/>
        <pt x="338" y="642" on="0"/>
        <pt x="403" y="642" on="1"/>
        <pt x="502" y="642" on="0"/>
        <pt x="617" y="523" on="0"/>
        <pt x="617" y="319" on="0"/>
        <pt x="560" y="151" on="0"/>
        <pt x="467" y="36" on="0"/>
        <pt x="409" y="-5" on="1"/>
        <pt x="296" y="-85" on="0"/>
        <pt x="180" y="-85" on="1"/>
        <pt x="180" y="-90" on="1"/>
        <pt x="209" y="-90" on="0"/>
        <pt x="308" y="-139" on="0"/>
        <pt x="338" y="-139" on="1"/>
        <pt x="403" y="-139" on="0"/>
        <pt x="462" y="-43" on="1"/>
        <pt x="474" y="-49" on="1"/>
        <pt x="395" y="-198" on="0"/>
        <pt x="319" y="-198" on="1"/>
        <pt x="281" y="-198" on="0"/>
        <pt x="180" y="-116" on="0"/>
        <pt x="127" y="-116" on="0"/>
        <pt x="90" y="-147" on="0"/>
        <pt x="70" y="-184" on="1"/>
        <pt x="58" y="-179" on="1"/>
        <pt x="86" y="-98" on="0"/>
        <pt x="130" y="-76" on="1"/>
        <pt x="151" y="-66" on="0"/>
        <pt x="222" y="-59" on="0"/>
        <pt x="302" y="-36" on="0"/>
        <pt x="411" y="30" on="0"/>
        <pt x="490" y="129" on="0"/>
        <pt x="547" y="308" on="0"/>
        <pt x="547" y="514" on="0"/>
        <pt x="466" y="616" on="0"/>
        <pt x="334" y="616" on="0"/>
        <pt x="222" y="531" on="0"/>
        <pt x="189" y="466" on="1"/>
        <pt x="120" y="332" on="0"/>
        <pt x="120" y="206" on="1"/>
        <pt x="120" y="124" on="0"/>
        <pt x="189" y="14" on="0"/>
        <pt x="263" y="14" on="1"/>
        <pt x="298" y="14" on="0"/>
      </contour>
    </TTGlyph>
    <TTGlyph name="R" xMin="10" yMin="-12" xMax="537" yMax="630">
      <contour>
        <pt x="259" y="291" on="1"/>
        <pt x="196" y="291" on="1"/>
        <pt x="142" y="34" on="0"/>
        <pt x="142" y="18" on="0"/>
        <pt x="153" y="18" on="1"/>
        <pt x="217" y="18" on="1"/>
        <pt x="214" y="0" on="1"/>
        <pt x="10" y="0" on="1"/>
        <pt x="13" y="18" on="1"/>
        <pt x="59" y="18" on="1"/>
        <pt x="72" y="18" on="0"/>
        <pt x="75" y="33" on="1"/>
        <pt x="195" y="601" on="0"/>
        <pt x="195" y="612" on="0"/>
        <pt x="184" y="612" on="1"/>
        <pt x="140" y="612" on="1"/>
        <pt x="143" y="630" on="1"/>
        <pt x="370" y="630" on="1"/>
        <pt x="439" y="630" on="0"/>
        <pt x="530" y="559" on="0"/>
        <pt x="530" y="422" on="0"/>
        <pt x="431" y="316" on="0"/>
        <pt x="358" y="298" on="1"/>
        <pt x="428" y="271" on="0"/>
        <pt x="428" y="189" on="1"/>
        <pt x="428" y="160" on="0"/>
        <pt x="409" y="64" on="0"/>
        <pt x="409" y="50" on="1"/>
        <pt x="409" y="22" on="0"/>
        <pt x="453" y="22" on="0"/>
        <pt x="501" y="85" on="0"/>
        <pt x="520" y="143" on="1"/>
        <pt x="537" y="139" on="1"/>
        <pt x="510" y="59" on="0"/>
        <pt x="444" y="-12" on="0"/>
        <pt x="399" y="-12" on="1"/>
        <pt x="377" y="-12" on="0"/>
        <pt x="347" y="21" on="0"/>
        <pt x="347" y="81" on="0"/>
        <pt x="366" y="175" on="0"/>
        <pt x="366" y="212" on="1"/>
        <pt x="366" y="291" on="0"/>
      </contour>
      <contour>
        <pt x="360" y="607" on="1"/>
        <pt x="264" y="607" on="1"/>
        <pt x="201" y="315" on="1"/>
        <pt x="301" y="315" on="1"/>
        <pt x="371" y="315" on="0"/>
        <pt x="464" y="433" on="0"/>
        <pt x="464" y="499" on="1"/>
        <pt x="464" y="546" on="0"/>
        <pt x="411" y="607" on="0"/>
      </contour>
    </TTGlyph>
    <TTGlyph name="S" xMin="-15" yMin="-12" xMax="472" yMax="642">
      <contour>
        <pt x="177" y="-12" on="1"/>
        <pt x="106" y="-12" on="0"/>
        <pt x="52" y="24" on="1"/>
        <pt x="34" y="35" on="0"/>
        <pt x="27" y="35" on="1"/>
        <pt x="9" y="35" on="0"/>
        <pt x="4" y="0" on="1"/>
        <pt x="-15" y="0" on="1"/>
        <pt x="20" y="167" on="1"/>
        <pt x="38" y="167" on="1"/>
        <pt x="37" y="159" on="0"/>
        <pt x="37" y="143" on="1"/>
        <pt x="37" y="78" on="0"/>
        <pt x="112" y="17" on="0"/>
        <pt x="243" y="17" on="0"/>
        <pt x="332" y="110" on="0"/>
        <pt x="332" y="231" on="0"/>
        <pt x="270" y="261" on="1"/>
        <pt x="190" y="302" on="1"/>
        <pt x="96" y="348" on="0"/>
        <pt x="96" y="445" on="1"/>
        <pt x="96" y="521" on="0"/>
        <pt x="214" y="642" on="0"/>
        <pt x="303" y="642" on="1"/>
        <pt x="362" y="642" on="0"/>
        <pt x="410" y="609" on="1"/>
        <pt x="426" y="598" on="0"/>
        <pt x="432" y="598" on="1"/>
        <pt x="442" y="598" on="0"/>
        <pt x="449" y="619" on="1"/>
        <pt x="454" y="636" on="1"/>
        <pt x="472" y="636" on="1"/>
        <pt x="435" y="463" on="1"/>
        <pt x="418" y="463" on="1"/>
        <pt x="420" y="483" on="0"/>
        <pt x="420" y="492" on="1"/>
        <pt x="420" y="554" on="0"/>
        <pt x="357" y="613" on="0"/>
        <pt x="239" y="613" on="0"/>
        <pt x="156" y="525" on="0"/>
        <pt x="156" y="470" on="1"/>
        <pt x="156" y="402" on="0"/>
        <pt x="217" y="370" on="1"/>
        <pt x="320" y="317" on="1"/>
        <pt x="403" y="274" on="0"/>
        <pt x="403" y="117" on="0"/>
        <pt x="267" y="-12" on="0"/>
      </contour>
    </TTGlyph>
    <TTGlyph name="Scaron" xMin="-15" yMin="-12" xMax="472" yMax="842">
      <contour>
        <pt x="177" y="-12" on="1"/>
        <pt x="106" y="-12" on="0"/>
        <pt x="52" y="24" on="1"/>
        <pt x="34" y="35" on="0"/>
        <pt x="27" y="35" on="1"/>
        <pt x="9" y="35" on="0"/>
        <pt x="4" y="0" on="1"/>
        <pt x="-15" y="0" on="1"/>
        <pt x="20" y="167" on="1"/>
        <pt x="38" y="167" on="1"/>
        <pt x="37" y="159" on="0"/>
        <pt x="37" y="143" on="1"/>
        <pt x="37" y="78" on="0"/>
        <pt x="112" y="17" on="0"/>
        <pt x="243" y="17" on="0"/>
        <pt x="332" y="110" on="0"/>
        <pt x="332" y="231" on="0"/>
        <pt x="270" y="261" on="1"/>
        <pt x="190" y="302" on="1"/>
        <pt x="96" y="348" on="0"/>
        <pt x="96" y="445" on="1"/>
        <pt x="96" y="521" on="0"/>
        <pt x="214" y="642" on="0"/>
        <pt x="303" y="642" on="1"/>
        <pt x="362" y="642" on="0"/>
        <pt x="410" y="609" on="1"/>
        <pt x="426" y="598" on="0"/>
        <pt x="432" y="598" on="1"/>
        <pt x="442" y="598" on="0"/>
        <pt x="449" y="619" on="1"/>
        <pt x="454" y="636" on="1"/>
        <pt x="472" y="636" on="1"/>
        <pt x="435" y="463" on="1"/>
        <pt x="418" y="463" on="1"/>
        <pt x="420" y="483" on="0"/>
        <pt x="420" y="492" on="1"/>
        <pt x="420" y="554" on="0"/>
        <pt x="357" y="613" on="0"/>
        <pt x="239" y="613" on="0"/>
        <pt x="156" y="525" on="0"/>
        <pt x="156" y="470" on="1"/>
        <pt x="156" y="402" on="0"/>
        <pt x="217" y="370" on="1"/>
        <pt x="320" y="317" on="1"/>
        <pt x="403" y="274" on="0"/>
        <pt x="403" y="117" on="0"/>
        <pt x="267" y="-12" on="0"/>
      </contour>
      <contour>
        <pt x="258" y="842" on="1"/>
        <pt x="328" y="757" on="1"/>
        <pt x="430" y="842" on="1"/>
        <pt x="443" y="826" on="1"/>
        <pt x="358" y="714" on="1"/>
        <pt x="340" y="692" on="0"/>
        <pt x="295" y="692" on="0"/>
        <pt x="286" y="715" on="1"/>
        <pt x="242" y="833" on="1"/>
      </contour>
    </TTGlyph>
    <TTGlyph name="T" xMin="50" yMin="0" xMax="552" yMax="639">
      <contour>
        <pt x="190" y="630" on="1"/>
        <pt x="445" y="630" on="1"/>
        <pt x="520" y="630" on="0"/>
        <pt x="552" y="639" on="1"/>
        <pt x="539" y="609" on="0"/>
        <pt x="517" y="510" on="1"/>
        <pt x="507" y="463" on="1"/>
        <pt x="485" y="463" on="1"/>
        <pt x="496" y="584" on="1"/>
        <pt x="496" y="602" on="0"/>
        <pt x="473" y="602" on="1"/>
        <pt x="345" y="602" on="1"/>
        <pt x="224" y="31" on="0"/>
        <pt x="224" y="18" on="0"/>
        <pt x="235" y="18" on="1"/>
        <pt x="321" y="18" on="1"/>
        <pt x="318" y="0" on="1"/>
        <pt x="50" y="0" on="1"/>
        <pt x="53" y="18" on="1"/>
        <pt x="141" y="18" on="1"/>
        <pt x="154" y="18" on="0"/>
        <pt x="157" y="33" on="1"/>
        <pt x="277" y="602" on="1"/>
        <pt x="150" y="602" on="1"/>
        <pt x="126" y="602" on="0"/>
        <pt x="119" y="580" on="1"/>
        <pt x="80" y="463" on="1"/>
        <pt x="58" y="463" on="1"/>
        <pt x="68" y="510" on="1"/>
        <pt x="87" y="597" on="0"/>
        <pt x="87" y="639" on="1"/>
        <pt x="116" y="630" on="0"/>
      </contour>
    </TTGlyph>
    <TTGlyph name="Thorn" xMin="10" yMin="0" xMax="495" yMax="630">
      <contour>
        <pt x="162" y="125" on="1"/>
        <pt x="142" y="28" on="1"/>
        <pt x="142" y="18" on="0"/>
        <pt x="153" y="18" on="1"/>
        <pt x="197" y="18" on="1"/>
        <pt x="194" y="0" on="1"/>
        <pt x="10" y="0" on="1"/>
        <pt x="13" y="18" on="1"/>
        <pt x="59" y="18" on="1"/>
        <pt x="72" y="18" on="0"/>
        <pt x="75" y="33" on="1"/>
        <pt x="195" y="601" on="0"/>
        <pt x="195" y="612" on="0"/>
        <pt x="184" y="612" on="1"/>
        <pt x="140" y="612" on="1"/>
        <pt x="143" y="630" on="1"/>
        <pt x="327" y="630" on="1"/>
        <pt x="324" y="612" on="1"/>
        <pt x="279" y="612" on="1"/>
        <pt x="266" y="612" on="0"/>
        <pt x="262" y="598" on="1"/>
        <pt x="242" y="504" on="1"/>
        <pt x="339" y="504" on="1"/>
        <pt x="407" y="504" on="0"/>
        <pt x="495" y="428" on="0"/>
        <pt x="495" y="361" on="1"/>
        <pt x="495" y="255" on="0"/>
        <pt x="349" y="125" on="0"/>
        <pt x="259" y="125" on="1"/>
      </contour>
      <contour>
        <pt x="328" y="481" on="1"/>
        <pt x="237" y="481" on="1"/>
        <pt x="166" y="148" on="1"/>
        <pt x="260" y="148" on="1"/>
        <pt x="332" y="148" on="0"/>
        <pt x="429" y="288" on="0"/>
        <pt x="429" y="365" on="1"/>
        <pt x="429" y="415" on="0"/>
        <pt x="378" y="481" on="0"/>
      </contour>
    </TTGlyph>
    <TTGlyph name="U" xMin="82" yMin="-12" xMax="659" yMax="630">
      <contour>
        <pt x="89" y="195" on="1"/>
        <pt x="176" y="604" on="1"/>
        <pt x="176" y="612" on="0"/>
        <pt x="165" y="612" on="1"/>
        <pt x="120" y="612" on="1"/>
        <pt x="123" y="630" on="1"/>
        <pt x="307" y="630" on="1"/>
        <pt x="304" y="612" on="1"/>
        <pt x="259" y="612" on="1"/>
        <pt x="246" y="612" on="0"/>
        <pt x="242" y="598" on="1"/>
        <pt x="155" y="188" on="1"/>
        <pt x="149" y="160" on="0"/>
        <pt x="149" y="137" on="1"/>
        <pt x="149" y="78" on="0"/>
        <pt x="219" y="21" on="0"/>
        <pt x="277" y="21" on="1"/>
        <pt x="332" y="21" on="0"/>
        <pt x="392" y="59" on="1"/>
        <pt x="456" y="100" on="0"/>
        <pt x="476" y="194" on="1"/>
        <pt x="562" y="601" on="1"/>
        <pt x="562" y="612" on="0"/>
        <pt x="552" y="612" on="1"/>
        <pt x="507" y="612" on="1"/>
        <pt x="510" y="630" on="1"/>
        <pt x="659" y="630" on="1"/>
        <pt x="656" y="612" on="1"/>
        <pt x="611" y="612" on="1"/>
        <pt x="598" y="612" on="0"/>
        <pt x="594" y="598" on="1"/>
        <pt x="509" y="195" on="1"/>
        <pt x="487" y="91" on="0"/>
        <pt x="352" y="-12" on="0"/>
        <pt x="263" y="-12" on="1"/>
        <pt x="82" y="-12" on="0"/>
        <pt x="82" y="135" on="1"/>
        <pt x="82" y="164" on="0"/>
      </contour>
    </TTGlyph>
    <TTGlyph name="Uacute" xMin="82" yMin="-12" xMax="659" yMax="837">
      <component glyphName="U" x="0" y="0" flags="0x1004"/>
      <component glyphName="acute" x="323" y="198" flags="0x1004"/>
    </TTGlyph>
    <TTGlyph name="Ucircumflex" xMin="82" yMin="-12" xMax="659" yMax="837">
      <contour>
        <pt x="89" y="195" on="1"/>
        <pt x="176" y="604" on="1"/>
        <pt x="176" y="612" on="0"/>
        <pt x="165" y="612" on="1"/>
        <pt x="120" y="612" on="1"/>
        <pt x="123" y="630" on="1"/>
        <pt x="307" y="630" on="1"/>
        <pt x="304" y="612" on="1"/>
        <pt x="259" y="612" on="1"/>
        <pt x="246" y="612" on="0"/>
        <pt x="242" y="598" on="1"/>
        <pt x="155" y="188" on="1"/>
        <pt x="149" y="160" on="0"/>
        <pt x="149" y="137" on="1"/>
        <pt x="149" y="78" on="0"/>
        <pt x="219" y="21" on="0"/>
        <pt x="277" y="21" on="1"/>
        <pt x="332" y="21" on="0"/>
        <pt x="392" y="59" on="1"/>
        <pt x="456" y="100" on="0"/>
        <pt x="476" y="194" on="1"/>
        <pt x="562" y="601" on="1"/>
        <pt x="562" y="612" on="0"/>
        <pt x="552" y="612" on="1"/>
        <pt x="507" y="612" on="1"/>
        <pt x="510" y="630" on="1"/>
        <pt x="659" y="630" on="1"/>
        <pt x="656" y="612" on="1"/>
        <pt x="611" y="612" on="1"/>
        <pt x="598" y="612" on="0"/>
        <pt x="594" y="598" on="1"/>
        <pt x="509" y="195" on="1"/>
        <pt x="487" y="91" on="0"/>
        <pt x="352" y="-12" on="0"/>
        <pt x="263" y="-12" on="1"/>
        <pt x="82" y="-12" on="0"/>
        <pt x="82" y="135" on="1"/>
        <pt x="82" y="164" on="0"/>
      </contour>
      <contour>
        <pt x="510" y="687" on="1"/>
        <pt x="440" y="772" on="1"/>
        <pt x="338" y="687" on="1"/>
        <pt x="325" y="703" on="1"/>
        <pt x="410" y="815" on="1"/>
        <pt x="428" y="837" on="0"/>
        <pt x="473" y="837" on="0"/>
        <pt x="482" y="814" on="1"/>
        <pt x="526" y="696" on="1"/>
      </contour>
    </TTGlyph>
    <TTGlyph name="Udieresis" xMin="82" yMin="-12" xMax="659" yMax="819">
      <component glyphName="U" x="0" y="0" flags="0x1004"/>
      <component glyphName="dieresis" x="287" y="198" flags="0x1004"/>
    </TTGlyph>
    <TTGlyph name="Ugrave" xMin="82" yMin="-12" xMax="659" yMax="837">
      <contour>
        <pt x="89" y="195" on="1"/>
        <pt x="176" y="604" on="1"/>
        <pt x="176" y="612" on="0"/>
        <pt x="165" y="612" on="1"/>
        <pt x="120" y="612" on="1"/>
        <pt x="123" y="630" on="1"/>
        <pt x="307" y="630" on="1"/>
        <pt x="304" y="612" on="1"/>
        <pt x="259" y="612" on="1"/>
        <pt x="246" y="612" on="0"/>
        <pt x="242" y="598" on="1"/>
        <pt x="155" y="188" on="1"/>
        <pt x="149" y="160" on="0"/>
        <pt x="149" y="137" on="1"/>
        <pt x="149" y="78" on="0"/>
        <pt x="219" y="21" on="0"/>
        <pt x="277" y="21" on="1"/>
        <pt x="332" y="21" on="0"/>
        <pt x="392" y="59" on="1"/>
        <pt x="456" y="100" on="0"/>
        <pt x="476" y="194" on="1"/>
        <pt x="562" y="601" on="1"/>
        <pt x="562" y="612" on="0"/>
        <pt x="552" y="612" on="1"/>
        <pt x="507" y="612" on="1"/>
        <pt x="510" y="630" on="1"/>
        <pt x="659" y="630" on="1"/>
        <pt x="656" y="612" on="1"/>
        <pt x="611" y="612" on="1"/>
        <pt x="598" y="612" on="0"/>
        <pt x="594" y="598" on="1"/>
        <pt x="509" y="195" on="1"/>
        <pt x="487" y="91" on="0"/>
        <pt x="352" y="-12" on="0"/>
        <pt x="263" y="-12" on="1"/>
        <pt x="82" y="-12" on="0"/>
        <pt x="82" y="135" on="1"/>
        <pt x="82" y="164" on="0"/>
      </contour>
      <contour>
        <pt x="490" y="687" on="1"/>
        <pt x="359" y="764" on="1"/>
        <pt x="332" y="779" on="0"/>
        <pt x="332" y="804" on="1"/>
        <pt x="332" y="818" on="0"/>
        <pt x="348" y="837" on="0"/>
        <pt x="379" y="837" on="0"/>
        <pt x="392" y="823" on="1"/>
        <pt x="503" y="703" on="1"/>
      </contour>
    </TTGlyph>
    <TTGlyph name="V" xMin="70" yMin="0" xMax="601" yMax="630">
      <contour>
        <pt x="73" y="630" on="1"/>
        <pt x="239" y="630" on="1"/>
        <pt x="236" y="612" on="1"/>
        <pt x="189" y="612" on="1"/>
        <pt x="246" y="109" on="1"/>
        <pt x="516" y="612" on="1"/>
        <pt x="469" y="612" on="1"/>
        <pt x="472" y="630" on="1"/>
        <pt x="601" y="630" on="1"/>
        <pt x="598" y="612" on="1"/>
        <pt x="563" y="612" on="1"/>
        <pt x="549" y="612" on="0"/>
        <pt x="542" y="598" on="1"/>
        <pt x="220" y="0" on="1"/>
        <pt x="188" y="0" on="1"/>
        <pt x="120" y="598" on="1"/>
        <pt x="118" y="612" on="0"/>
        <pt x="105" y="612" on="1"/>
        <pt x="70" y="612" on="1"/>
      </contour>
    </TTGlyph>
    <TTGlyph name="W" xMin="80" yMin="0" xMax="914" yMax="630">
      <contour>
        <pt x="785" y="630" on="1"/>
        <pt x="914" y="630" on="1"/>
        <pt x="911" y="612" on="1"/>
        <pt x="876" y="612" on="1"/>
        <pt x="862" y="612" on="0"/>
        <pt x="855" y="598" on="1"/>
        <pt x="552" y="0" on="1"/>
        <pt x="520" y="0" on="1"/>
        <pt x="470" y="498" on="1"/>
        <pt x="211" y="0" on="1"/>
        <pt x="179" y="0" on="1"/>
        <pt x="130" y="598" on="1"/>
        <pt x="128" y="612" on="0"/>
        <pt x="115" y="612" on="1"/>
        <pt x="80" y="612" on="1"/>
        <pt x="83" y="630" on="1"/>
        <pt x="249" y="630" on="1"/>
        <pt x="246" y="612" on="1"/>
        <pt x="199" y="612" on="1"/>
        <pt x="240" y="117" on="1"/>
        <pt x="466" y="551" on="1"/>
        <pt x="461" y="598" on="1"/>
        <pt x="459" y="612" on="0"/>
        <pt x="446" y="612" on="1"/>
        <pt x="411" y="612" on="1"/>
        <pt x="414" y="630" on="1"/>
        <pt x="581" y="630" on="1"/>
        <pt x="578" y="612" on="1"/>
        <pt x="530" y="612" on="1"/>
        <pt x="580" y="120" on="1"/>
        <pt x="829" y="612" on="1"/>
        <pt x="782" y="612" on="1"/>
      </contour>
    </TTGlyph>
    <TTGlyph name="X" xMin="-55" yMin="0" xMax="578" yMax="630">
      <contour>
        <pt x="337" y="18" on="1"/>
        <pt x="245" y="280" on="1"/>
        <pt x="31" y="18" on="1"/>
        <pt x="78" y="18" on="1"/>
        <pt x="75" y="0" on="1"/>
        <pt x="-55" y="0" on="1"/>
        <pt x="-52" y="18" on="1"/>
        <pt x="-17" y="18" on="1"/>
        <pt x="-8" y="18" on="0"/>
        <pt x="4" y="32" on="1"/>
        <pt x="234" y="312" on="1"/>
        <pt x="135" y="598" on="1"/>
        <pt x="130" y="612" on="0"/>
        <pt x="120" y="612" on="1"/>
        <pt x="84" y="612" on="1"/>
        <pt x="87" y="630" on="1"/>
        <pt x="254" y="630" on="1"/>
        <pt x="251" y="612" on="1"/>
        <pt x="203" y="612" on="1"/>
        <pt x="289" y="365" on="1"/>
        <pt x="492" y="612" on="1"/>
        <pt x="445" y="612" on="1"/>
        <pt x="448" y="630" on="1"/>
        <pt x="578" y="630" on="1"/>
        <pt x="575" y="612" on="1"/>
        <pt x="540" y="612" on="1"/>
        <pt x="529" y="612" on="0"/>
        <pt x="519" y="600" on="1"/>
        <pt x="300" y="334" on="1"/>
        <pt x="406" y="32" on="1"/>
        <pt x="411" y="18" on="0"/>
        <pt x="421" y="18" on="1"/>
        <pt x="456" y="18" on="1"/>
        <pt x="453" y="0" on="1"/>
        <pt x="287" y="0" on="1"/>
        <pt x="290" y="18" on="1"/>
      </contour>
    </TTGlyph>
    <TTGlyph name="Y" xMin="61" yMin="0" xMax="555" yMax="630">
      <contour>
        <pt x="247" y="190" on="1"/>
        <pt x="203" y="185" on="1"/>
        <pt x="111" y="598" on="1"/>
        <pt x="108" y="612" on="0"/>
        <pt x="96" y="612" on="1"/>
        <pt x="61" y="612" on="1"/>
        <pt x="64" y="630" on="1"/>
        <pt x="229" y="630" on="1"/>
        <pt x="226" y="612" on="1"/>
        <pt x="179" y="612" on="1"/>
        <pt x="259" y="257" on="1"/>
        <pt x="470" y="612" on="1"/>
        <pt x="423" y="612" on="1"/>
        <pt x="426" y="630" on="1"/>
        <pt x="555" y="630" on="1"/>
        <pt x="552" y="612" on="1"/>
        <pt x="517" y="612" on="1"/>
        <pt x="505" y="612" on="0"/>
        <pt x="496" y="598" on="1"/>
      </contour>
      <contour>
        <pt x="201" y="242" on="1"/>
        <pt x="265" y="225" on="1"/>
        <pt x="224" y="31" on="0"/>
        <pt x="224" y="18" on="0"/>
        <pt x="235" y="18" on="1"/>
        <pt x="301" y="18" on="1"/>
        <pt x="298" y="0" on="1"/>
        <pt x="70" y="0" on="1"/>
        <pt x="73" y="18" on="1"/>
        <pt x="141" y="18" on="1"/>
        <pt x="154" y="18" on="0"/>
        <pt x="157" y="33" on="1"/>
      </contour>
    </TTGlyph>
    <TTGlyph name="Yacute" xMin="61" yMin="0" xMax="555" yMax="837">
      <component glyphName="Y" x="0" y="0" flags="0x1004"/>
      <component glyphName="acute" x="249" y="198" flags="0x1004"/>
    </TTGlyph>
    <TTGlyph name="Ydieresis" xMin="61" yMin="0" xMax="555" yMax="819">
      <contour>
        <pt x="247" y="190" on="1"/>
        <pt x="203" y="185" on="1"/>
        <pt x="111" y="598" on="1"/>
        <pt x="108" y="612" on="0"/>
        <pt x="96" y="612" on="1"/>
        <pt x="61" y="612" on="1"/>
        <pt x="64" y="630" on="1"/>
        <pt x="229" y="630" on="1"/>
        <pt x="226" y="612" on="1"/>
        <pt x="179" y="612" on="1"/>
        <pt x="259" y="257" on="1"/>
        <pt x="470" y="612" on="1"/>
        <pt x="423" y="612" on="1"/>
        <pt x="426" y="630" on="1"/>
        <pt x="555" y="630" on="1"/>
        <pt x="552" y="612" on="1"/>
        <pt x="517" y="612" on="1"/>
        <pt x="505" y="612" on="0"/>
        <pt x="496" y="598" on="1"/>
      </contour>
      <contour>
        <pt x="201" y="242" on="1"/>
        <pt x="265" y="225" on="1"/>
        <pt x="224" y="31" on="0"/>
        <pt x="224" y="18" on="0"/>
        <pt x="235" y="18" on="1"/>
        <pt x="301" y="18" on="1"/>
        <pt x="298" y="0" on="1"/>
        <pt x="70" y="0" on="1"/>
        <pt x="73" y="18" on="1"/>
        <pt x="141" y="18" on="1"/>
        <pt x="154" y="18" on="0"/>
        <pt x="157" y="33" on="1"/>
      </contour>
      <contour>
        <pt x="231" y="755" on="0"/>
        <pt x="231" y="793" on="0"/>
        <pt x="257" y="819" on="0"/>
        <pt x="295" y="819" on="0"/>
        <pt x="321" y="793" on="0"/>
        <pt x="321" y="755" on="0"/>
        <pt x="295" y="729" on="0"/>
        <pt x="257" y="729" on="0"/>
      </contour>
      <contour>
        <pt x="391" y="755" on="0"/>
        <pt x="391" y="793" on="0"/>
        <pt x="417" y="819" on="0"/>
        <pt x="455" y="819" on="0"/>
        <pt x="481" y="793" on="0"/>
        <pt x="481" y="755" on="0"/>
        <pt x="455" y="729" on="0"/>
        <pt x="417" y="729" on="0"/>
      </contour>
    </TTGlyph>
    <TTGlyph name="Z" xMin="0" yMin="-9" xMax="566" yMax="639">
      <contour>
        <pt x="0" y="0" on="1"/>
        <pt x="5" y="28" on="1"/>
        <pt x="470" y="602" on="1"/>
        <pt x="219" y="602" on="1"/>
        <pt x="195" y="602" on="0"/>
        <pt x="188" y="580" on="1"/>
        <pt x="149" y="463" on="1"/>
        <pt x="127" y="463" on="1"/>
        <pt x="137" y="510" on="1"/>
        <pt x="155" y="592" on="0"/>
        <pt x="155" y="639" on="1"/>
        <pt x="186" y="630" on="0"/>
        <pt x="259" y="630" on="1"/>
        <pt x="566" y="630" on="1"/>
        <pt x="560" y="602" on="1"/>
        <pt x="96" y="28" on="1"/>
        <pt x="366" y="28" on="1"/>
        <pt x="391" y="28" on="0"/>
        <pt x="398" y="50" on="1"/>
        <pt x="437" y="167" on="1"/>
        <pt x="459" y="167" on="1"/>
        <pt x="449" y="120" on="1"/>
        <pt x="431" y="38" on="0"/>
        <pt x="431" y="-9" on="1"/>
        <pt x="402" y="0" on="0"/>
        <pt x="327" y="0" on="1"/>
      </contour>
    </TTGlyph>
    <TTGlyph name="Zcaron" xMin="0" yMin="-9" xMax="566" yMax="842">
      <component glyphName="Z" x="0" y="0" flags="0x1004"/>
      <component glyphName="caron" x="258" y="198" flags="0x1004"/>
    </TTGlyph>
    <TTGlyph name="a" xMin="40" yMin="-12" xMax="468" yMax="444">
      <contour>
        <pt x="410" y="321" on="0"/>
        <pt x="348" y="83" on="0"/>
        <pt x="348" y="16" on="0"/>
        <pt x="373" y="16" on="1"/>
        <pt x="392" y="16" on="0"/>
        <pt x="436" y="67" on="0"/>
        <pt x="452" y="114" on="1"/>
        <pt x="468" y="110" on="1"/>
        <pt x="425" y="-12" on="0"/>
        <pt x="356" y="-12" on="1"/>
        <pt x="294" y="-12" on="0"/>
        <pt x="294" y="63" on="1"/>
        <pt x="294" y="78" on="0"/>
        <pt x="299" y="111" on="1"/>
        <pt x="294" y="111" on="1"/>
        <pt x="232" y="-12" on="0"/>
        <pt x="150" y="-12" on="1"/>
        <pt x="103" y="-12" on="0"/>
        <pt x="40" y="71" on="0"/>
        <pt x="40" y="192" on="0"/>
        <pt x="72" y="296" on="0"/>
        <pt x="130" y="387" on="0"/>
        <pt x="226" y="444" on="0"/>
        <pt x="283" y="444" on="1"/>
        <pt x="357" y="444" on="0"/>
        <pt x="400" y="381" on="1"/>
        <pt x="431" y="435" on="1"/>
        <pt x="445" y="425" on="1"/>
      </contour>
      <contour>
        <pt x="174" y="18" on="1"/>
        <pt x="216" y="18" on="0"/>
        <pt x="259" y="83" on="1"/>
        <pt x="308" y="158" on="0"/>
        <pt x="350" y="328" on="1"/>
        <pt x="359" y="368" on="0"/>
        <pt x="364" y="386" on="1"/>
        <pt x="329" y="420" on="0"/>
        <pt x="238" y="420" on="0"/>
        <pt x="167" y="358" on="0"/>
        <pt x="147" y="311" on="1"/>
        <pt x="106" y="215" on="0"/>
        <pt x="106" y="130" on="1"/>
        <pt x="106" y="74" on="0"/>
        <pt x="143" y="18" on="0"/>
      </contour>
    </TTGlyph>
    <TTGlyph name="aacute" xMin="40" yMin="-12" xMax="468" yMax="639">
      <component glyphName="a" x="0" y="0" flags="0x1004"/>
      <component glyphName="acute" x="204" y="0" flags="0x1004"/>
    </TTGlyph>
    <TTGlyph name="acircumflex" xMin="40" yMin="-12" xMax="468" yMax="639">
      <component glyphName="a" x="0" y="0" flags="0x1004"/>
      <component glyphName="circumflex" x="171" y="0" flags="0x1004"/>
    </TTGlyph>
    <TTGlyph name="acute" xMin="30" yMin="489" xMax="201" yMax="639">
      <contour>
        <pt x="174" y="566" on="1"/>
        <pt x="43" y="489" on="1"/>
        <pt x="30" y="505" on="1"/>
        <pt x="141" y="625" on="1"/>
        <pt x="154" y="639" on="0"/>
        <pt x="185" y="639" on="0"/>
        <pt x="201" y="620" on="0"/>
        <pt x="201" y="606" on="1"/>
        <pt x="201" y="581" on="0"/>
      </contour>
    </TTGlyph>
    <TTGlyph name="adieresis" xMin="40" yMin="-12" xMax="468" yMax="621">
      <component glyphName="a" x="0" y="0" flags="0x1004"/>
      <component glyphName="dieresis" x="160" y="0" flags="0x1004"/>
    </TTGlyph>
    <TTGlyph name="ae" xMin="40" yMin="-12" xMax="659" yMax="444">
      <contour>
        <pt x="606" y="444" on="0"/>
        <pt x="659" y="393" on="0"/>
        <pt x="659" y="298" on="0"/>
        <pt x="622" y="263" on="1"/>
        <pt x="559" y="203" on="0"/>
        <pt x="435" y="203" on="1"/>
        <pt x="407" y="203" on="0"/>
        <pt x="386" y="206" on="1"/>
        <pt x="378" y="169" on="0"/>
        <pt x="378" y="74" on="0"/>
        <pt x="420" y="12" on="0"/>
        <pt x="458" y="12" on="1"/>
        <pt x="557" y="12" on="0"/>
        <pt x="603" y="120" on="1"/>
        <pt x="619" y="116" on="1"/>
        <pt x="595" y="55" on="0"/>
        <pt x="504" y="-12" on="0"/>
        <pt x="390" y="-12" on="0"/>
        <pt x="312" y="72" on="0"/>
        <pt x="312" y="147" on="1"/>
        <pt x="248" y="-12" on="0"/>
        <pt x="150" y="-12" on="1"/>
        <pt x="103" y="-12" on="0"/>
        <pt x="40" y="71" on="0"/>
        <pt x="40" y="192" on="0"/>
        <pt x="72" y="296" on="0"/>
        <pt x="130" y="387" on="0"/>
        <pt x="226" y="444" on="0"/>
        <pt x="341" y="444" on="0"/>
        <pt x="384" y="401" on="1"/>
        <pt x="415" y="435" on="1"/>
        <pt x="429" y="425" on="1"/>
        <pt x="414" y="388" on="1"/>
        <pt x="475" y="444" on="0"/>
        <pt x="553" y="444" on="1"/>
      </contour>
      <contour>
        <pt x="106" y="74" on="0"/>
        <pt x="143" y="18" on="0"/>
        <pt x="207" y="18" on="0"/>
        <pt x="272" y="97" on="0"/>
        <pt x="296" y="156" on="1"/>
        <pt x="344" y="271" on="0"/>
        <pt x="364" y="386" on="1"/>
        <pt x="329" y="420" on="0"/>
        <pt x="238" y="420" on="0"/>
        <pt x="167" y="358" on="0"/>
        <pt x="147" y="311" on="1"/>
        <pt x="106" y="215" on="0"/>
        <pt x="106" y="130" on="1"/>
      </contour>
      <contour>
        <pt x="548" y="420" on="1"/>
        <pt x="489" y="420" on="0"/>
        <pt x="408" y="305" on="0"/>
        <pt x="390" y="225" on="1"/>
        <pt x="416" y="223" on="0"/>
        <pt x="429" y="223" on="1"/>
        <pt x="512" y="223" on="0"/>
        <pt x="603" y="307" on="0"/>
        <pt x="603" y="357" on="1"/>
        <pt x="603" y="384" on="0"/>
        <pt x="574" y="420" on="0"/>
      </contour>
    </TTGlyph>
    <TTGlyph name="agrave" xMin="40" yMin="-12" xMax="468" yMax="639">
      <contour>
        <pt x="410" y="321" on="0"/>
        <pt x="348" y="83" on="0"/>
        <pt x="348" y="16" on="0"/>
        <pt x="373" y="16" on="1"/>
        <pt x="392" y="16" on="0"/>
        <pt x="436" y="67" on="0"/>
        <pt x="452" y="114" on="1"/>
        <pt x="468" y="110" on="1"/>
        <pt x="425" y="-12" on="0"/>
        <pt x="356" y="-12" on="1"/>
        <pt x="294" y="-12" on="0"/>
        <pt x="294" y="63" on="1"/>
        <pt x="294" y="78" on="0"/>
        <pt x="299" y="111" on="1"/>
        <pt x="294" y="111" on="1"/>
        <pt x="232" y="-12" on="0"/>
        <pt x="150" y="-12" on="1"/>
        <pt x="103" y="-12" on="0"/>
        <pt x="40" y="71" on="0"/>
        <pt x="40" y="192" on="0"/>
        <pt x="72" y="296" on="0"/>
        <pt x="130" y="387" on="0"/>
        <pt x="226" y="444" on="0"/>
        <pt x="283" y="444" on="1"/>
        <pt x="357" y="444" on="0"/>
        <pt x="400" y="381" on="1"/>
        <pt x="431" y="435" on="1"/>
        <pt x="445" y="425" on="1"/>
      </contour>
      <contour>
        <pt x="174" y="18" on="1"/>
        <pt x="216" y="18" on="0"/>
        <pt x="259" y="83" on="1"/>
        <pt x="308" y="158" on="0"/>
        <pt x="350" y="328" on="1"/>
        <pt x="359" y="368" on="0"/>
        <pt x="364" y="386" on="1"/>
        <pt x="329" y="420" on="0"/>
        <pt x="238" y="420" on="0"/>
        <pt x="167" y="358" on="0"/>
        <pt x="147" y="311" on="1"/>
        <pt x="106" y="215" on="0"/>
        <pt x="106" y="130" on="1"/>
        <pt x="106" y="74" on="0"/>
        <pt x="143" y="18" on="0"/>
      </contour>
      <contour>
        <pt x="371" y="489" on="1"/>
        <pt x="240" y="566" on="1"/>
        <pt x="213" y="581" on="0"/>
        <pt x="213" y="606" on="1"/>
        <pt x="213" y="620" on="0"/>
        <pt x="229" y="639" on="0"/>
        <pt x="260" y="639" on="0"/>
        <pt x="273" y="625" on="1"/>
        <pt x="384" y="505" on="1"/>
      </contour>
    </TTGlyph>
    <TTGlyph name="ampersand" xMin="20" yMin="-125" xMax="574" yMax="620">
      <contour>
        <pt x="334" y="-45" on="1"/>
        <pt x="334" y="-17" on="0"/>
        <pt x="356" y="86" on="1"/>
        <pt x="351" y="86" on="1"/>
        <pt x="284" y="-12" on="0"/>
        <pt x="177" y="-12" on="1"/>
        <pt x="100" y="-12" on="0"/>
        <pt x="20" y="55" on="0"/>
        <pt x="20" y="107" on="1"/>
        <pt x="20" y="174" on="0"/>
        <pt x="141" y="298" on="0"/>
        <pt x="243" y="319" on="1"/>
        <pt x="127" y="343" on="0"/>
        <pt x="127" y="447" on="1"/>
        <pt x="127" y="510" on="0"/>
        <pt x="242" y="620" on="0"/>
        <pt x="324" y="620" on="1"/>
        <pt x="388" y="620" on="0"/>
        <pt x="447" y="558" on="0"/>
        <pt x="447" y="479" on="0"/>
        <pt x="416" y="428" on="0"/>
        <pt x="366" y="428" on="0"/>
        <pt x="350" y="444" on="1"/>
        <pt x="381" y="487" on="0"/>
        <pt x="381" y="528" on="1"/>
        <pt x="381" y="590" on="0"/>
        <pt x="318" y="590" on="1"/>
        <pt x="265" y="590" on="0"/>
        <pt x="195" y="502" on="0"/>
        <pt x="195" y="398" on="0"/>
        <pt x="262" y="331" on="0"/>
        <pt x="382" y="331" on="0"/>
        <pt x="476" y="397" on="0"/>
        <pt x="501" y="463" on="1"/>
        <pt x="516" y="452" on="1"/>
        <pt x="513" y="440" on="0"/>
        <pt x="481" y="331" on="1"/>
        <pt x="574" y="331" on="1"/>
        <pt x="569" y="311" on="1"/>
        <pt x="476" y="311" on="1"/>
        <pt x="392" y="14" on="0"/>
        <pt x="392" y="-60" on="1"/>
        <pt x="392" y="-95" on="0"/>
        <pt x="419" y="-95" on="1"/>
        <pt x="440" y="-95" on="0"/>
        <pt x="487" y="-41" on="0"/>
        <pt x="503" y="9" on="1"/>
        <pt x="521" y="5" on="1"/>
        <pt x="474" y="-125" on="0"/>
        <pt x="401" y="-125" on="1"/>
        <pt x="334" y="-125" on="0"/>
      </contour>
      <contour>
        <pt x="182" y="14" on="1"/>
        <pt x="244" y="14" on="0"/>
        <pt x="360" y="117" on="0"/>
        <pt x="387" y="222" on="1"/>
        <pt x="410" y="311" on="1"/>
        <pt x="322" y="311" on="1"/>
        <pt x="214" y="311" on="0"/>
        <pt x="89" y="175" on="0"/>
        <pt x="89" y="99" on="1"/>
        <pt x="89" y="62" on="0"/>
        <pt x="138" y="14" on="0"/>
      </contour>
    </TTGlyph>
    <TTGlyph name="apple" xMin="100" yMin="-114" xMax="823" yMax="608">
      <contour>
        <pt x="589" y="-89" on="1"/>
        <pt x="566" y="-88" on="1"/>
        <pt x="552" y="-88" on="0"/>
        <pt x="517" y="-112" on="0"/>
        <pt x="508" y="-112" on="1"/>
        <pt x="462" y="-102" on="1"/>
        <pt x="454" y="-102" on="0"/>
        <pt x="423" y="-114" on="0"/>
        <pt x="406" y="-114" on="0"/>
        <pt x="374" y="-89" on="0"/>
        <pt x="361" y="-89" on="1"/>
        <pt x="337" y="-91" on="1"/>
        <pt x="322" y="-91" on="0"/>
        <pt x="304" y="-74" on="1"/>
        <pt x="286" y="-55" on="1"/>
        <pt x="274" y="-49" on="0"/>
        <pt x="248" y="-47" on="0"/>
        <pt x="230" y="-36" on="0"/>
        <pt x="216" y="-1" on="0"/>
        <pt x="205" y="8" on="0"/>
        <pt x="177" y="19" on="0"/>
        <pt x="171" y="28" on="1"/>
        <pt x="166" y="37" on="0"/>
        <pt x="162" y="66" on="0"/>
        <pt x="154" y="79" on="0"/>
        <pt x="144" y="86" on="1"/>
        <pt x="122" y="104" on="0"/>
        <pt x="122" y="124" on="1"/>
        <pt x="125" y="149" on="1"/>
        <pt x="125" y="158" on="0"/>
        <pt x="100" y="193" on="0"/>
        <pt x="100" y="211" on="0"/>
        <pt x="112" y="240" on="0"/>
        <pt x="112" y="257" on="0"/>
        <pt x="100" y="283" on="0"/>
        <pt x="100" y="301" on="0"/>
        <pt x="125" y="342" on="0"/>
        <pt x="125" y="351" on="1"/>
        <pt x="124" y="376" on="1"/>
        <pt x="124" y="391" on="0"/>
        <pt x="157" y="420" on="0"/>
        <pt x="162" y="430" on="0"/>
        <pt x="166" y="462" on="0"/>
        <pt x="174" y="474" on="0"/>
        <pt x="205" y="486" on="0"/>
        <pt x="215" y="496" on="0"/>
        <pt x="229" y="527" on="0"/>
        <pt x="242" y="538" on="0"/>
        <pt x="280" y="546" on="0"/>
        <pt x="291" y="552" on="0"/>
        <pt x="321" y="586" on="0"/>
        <pt x="335" y="587" on="1"/>
        <pt x="361" y="585" on="1"/>
        <pt x="374" y="585" on="0"/>
        <pt x="405" y="608" on="0"/>
        <pt x="416" y="608" on="1"/>
        <pt x="460" y="596" on="1"/>
        <pt x="505" y="608" on="1"/>
        <pt x="518" y="608" on="0"/>
        <pt x="550" y="583" on="0"/>
        <pt x="562" y="583" on="1"/>
        <pt x="590" y="586" on="1"/>
        <pt x="606" y="586" on="0"/>
        <pt x="632" y="553" on="0"/>
        <pt x="645" y="546" on="0"/>
        <pt x="675" y="540" on="0"/>
        <pt x="690" y="530" on="0"/>
        <pt x="700" y="502" on="0"/>
        <pt x="711" y="492" on="0"/>
        <pt x="751" y="471" on="0"/>
        <pt x="760" y="455" on="0"/>
        <pt x="761" y="423" on="0"/>
        <pt x="766" y="414" on="0"/>
        <pt x="800" y="385" on="0"/>
        <pt x="800" y="369" on="1"/>
        <pt x="799" y="344" on="1"/>
        <pt x="799" y="331" on="0"/>
        <pt x="823" y="294" on="0"/>
        <pt x="823" y="276" on="0"/>
        <pt x="812" y="250" on="0"/>
        <pt x="812" y="236" on="0"/>
        <pt x="823" y="207" on="0"/>
        <pt x="822" y="191" on="0"/>
        <pt x="798" y="166" on="0"/>
        <pt x="798" y="152" on="1"/>
        <pt x="800" y="120" on="1"/>
        <pt x="800" y="104" on="0"/>
        <pt x="768" y="78" on="0"/>
        <pt x="763" y="68" on="0"/>
        <pt x="754" y="30" on="0"/>
        <pt x="743" y="17" on="0"/>
        <pt x="718" y="6" on="0"/>
        <pt x="708" y="-4" on="0"/>
        <pt x="690" y="-37" on="0"/>
        <pt x="676" y="-47" on="0"/>
        <pt x="641" y="-56" on="0"/>
        <pt x="631" y="-62" on="0"/>
        <pt x="604" y="-89" on="0"/>
      </contour>
      <contour>
        <pt x="462" y="-6" on="1"/>
        <pt x="495" y="-13" on="1"/>
        <pt x="501" y="-13" on="0"/>
        <pt x="512" y="-6" on="1"/>
        <pt x="527" y="4" on="0"/>
        <pt x="539" y="4" on="1"/>
        <pt x="554" y="3" on="1"/>
        <pt x="566" y="3" on="0"/>
        <pt x="584" y="23" on="0"/>
        <pt x="591" y="27" on="0"/>
        <pt x="617" y="34" on="0"/>
        <pt x="628" y="42" on="0"/>
        <pt x="641" y="65" on="0"/>
        <pt x="648" y="72" on="0"/>
        <pt x="666" y="80" on="0"/>
        <pt x="674" y="89" on="0"/>
        <pt x="680" y="117" on="0"/>
        <pt x="685" y="125" on="0"/>
        <pt x="707" y="143" on="0"/>
        <pt x="707" y="157" on="1"/>
        <pt x="706" y="177" on="1"/>
        <pt x="706" y="188" on="0"/>
        <pt x="723" y="207" on="0"/>
        <pt x="724" y="213" on="1"/>
        <pt x="716" y="245" on="1"/>
        <pt x="724" y="273" on="1"/>
        <pt x="724" y="281" on="0"/>
        <pt x="706" y="309" on="0"/>
        <pt x="706" y="318" on="1"/>
        <pt x="707" y="335" on="1"/>
        <pt x="707" y="347" on="0"/>
        <pt x="683" y="367" on="0"/>
        <pt x="679" y="375" on="0"/>
        <pt x="678" y="398" on="0"/>
        <pt x="672" y="409" on="0"/>
        <pt x="643" y="424" on="0"/>
        <pt x="635" y="432" on="0"/>
        <pt x="627" y="452" on="0"/>
        <pt x="617" y="460" on="0"/>
        <pt x="595" y="464" on="0"/>
        <pt x="585" y="469" on="0"/>
        <pt x="567" y="493" on="0"/>
        <pt x="555" y="493" on="1"/>
        <pt x="535" y="491" on="1"/>
        <pt x="526" y="491" on="0"/>
        <pt x="504" y="509" on="0"/>
        <pt x="494" y="509" on="1"/>
        <pt x="461" y="500" on="1"/>
        <pt x="429" y="509" on="1"/>
        <pt x="421" y="509" on="0"/>
        <pt x="397" y="492" on="0"/>
        <pt x="387" y="492" on="1"/>
        <pt x="370" y="493" on="1"/>
        <pt x="359" y="493" on="0"/>
        <pt x="338" y="468" on="0"/>
        <pt x="329" y="463" on="0"/>
        <pt x="303" y="458" on="0"/>
        <pt x="293" y="450" on="0"/>
        <pt x="283" y="428" on="0"/>
        <pt x="275" y="420" on="0"/>
        <pt x="254" y="412" on="0"/>
        <pt x="250" y="407" on="1"/>
        <pt x="248" y="403" on="0"/>
        <pt x="244" y="380" on="0"/>
        <pt x="240" y="372" on="0"/>
        <pt x="216" y="351" on="0"/>
        <pt x="216" y="340" on="1"/>
        <pt x="217" y="324" on="1"/>
        <pt x="217" y="316" on="0"/>
        <pt x="200" y="286" on="0"/>
        <pt x="200" y="278" on="1"/>
        <pt x="208" y="248" on="1"/>
        <pt x="200" y="215" on="1"/>
        <pt x="200" y="207" on="0"/>
        <pt x="217" y="182" on="0"/>
        <pt x="217" y="174" on="1"/>
        <pt x="215" y="158" on="1"/>
        <pt x="215" y="147" on="0"/>
        <pt x="240" y="124" on="0"/>
        <pt x="244" y="116" on="0"/>
        <pt x="247" y="95" on="0"/>
        <pt x="255" y="82" on="0"/>
        <pt x="275" y="74" on="0"/>
        <pt x="283" y="67" on="0"/>
        <pt x="294" y="41" on="0"/>
        <pt x="306" y="33" on="0"/>
        <pt x="325" y="33" on="0"/>
        <pt x="337" y="27" on="0"/>
        <pt x="360" y="2" on="0"/>
        <pt x="371" y="2" on="1"/>
        <pt x="386" y="3" on="1"/>
        <pt x="396" y="3" on="0"/>
        <pt x="420" y="-14" on="0"/>
        <pt x="426" y="-15" on="1"/>
      </contour>
      <contour>
        <pt x="392" y="417" on="0"/>
        <pt x="532" y="417" on="0"/>
        <pt x="632" y="318" on="0"/>
        <pt x="632" y="176" on="0"/>
        <pt x="532" y="77" on="0"/>
        <pt x="392" y="77" on="0"/>
        <pt x="292" y="176" on="0"/>
        <pt x="292" y="318" on="0"/>
      </contour>
      <contour>
        <pt x="505" y="292" on="1"/>
        <pt x="557" y="292" on="1"/>
        <pt x="557" y="360" on="1"/>
        <pt x="366" y="360" on="1"/>
        <pt x="366" y="292" on="1"/>
        <pt x="420" y="292" on="1"/>
        <pt x="420" y="117" on="1"/>
        <pt x="505" y="117" on="1"/>
      </contour>
    </TTGlyph>
    <TTGlyph name="approxequal" xMin="50" yMin="80" xMax="448" yMax="324">
      <contour>
        <pt x="434" y="324" on="1"/>
        <pt x="448" y="289" on="1"/>
        <pt x="399" y="243" on="0"/>
        <pt x="339" y="243" on="1"/>
        <pt x="310" y="243" on="0"/>
        <pt x="201" y="268" on="0"/>
        <pt x="135" y="268" on="0"/>
        <pt x="99" y="243" on="1"/>
        <pt x="85" y="278" on="1"/>
        <pt x="133" y="322" on="0"/>
        <pt x="192" y="322" on="1"/>
        <pt x="221" y="322" on="0"/>
        <pt x="329" y="297" on="0"/>
        <pt x="396" y="297" on="0"/>
      </contour>
      <contour>
        <pt x="400" y="161" on="1"/>
        <pt x="413" y="126" on="1"/>
        <pt x="366" y="80" on="0"/>
        <pt x="305" y="80" on="1"/>
        <pt x="276" y="80" on="0"/>
        <pt x="167" y="105" on="0"/>
        <pt x="100" y="105" on="0"/>
        <pt x="65" y="80" on="1"/>
        <pt x="50" y="115" on="1"/>
        <pt x="98" y="159" on="0"/>
        <pt x="157" y="159" on="1"/>
        <pt x="186" y="159" on="0"/>
        <pt x="294" y="134" on="0"/>
        <pt x="361" y="134" on="0"/>
      </contour>
    </TTGlyph>
    <TTGlyph name="aring" xMin="40" yMin="-12" xMax="468" yMax="660">
      <component glyphName="a" x="0" y="0" flags="0x1004"/>
      <component glyphName="ring" x="190" y="0" flags="0x1004"/>
    </TTGlyph>
    <TTGlyph name="asciicircum" xMin="96" yMin="270" xMax="464" yMax="644">
      <contour>
        <pt x="384" y="644" on="1"/>
        <pt x="464" y="270" on="1"/>
        <pt x="412" y="270" on="1"/>
        <pt x="347" y="584" on="1"/>
        <pt x="149" y="270" on="1"/>
        <pt x="96" y="270" on="1"/>
        <pt x="334" y="644" on="1"/>
      </contour>
    </TTGlyph>
    <TTGlyph name="asciitilde" xMin="72" yMin="164" xMax="461" yMax="243">
      <contour>
        <pt x="449" y="243" on="1"/>
        <pt x="461" y="210" on="1"/>
        <pt x="404" y="164" on="0"/>
        <pt x="340" y="164" on="1"/>
        <pt x="310" y="164" on="0"/>
        <pt x="198" y="189" on="0"/>
        <pt x="125" y="189" on="0"/>
        <pt x="85" y="164" on="1"/>
        <pt x="72" y="197" on="1"/>
        <pt x="127" y="241" on="0"/>
        <pt x="189" y="241" on="1"/>
        <pt x="220" y="241" on="0"/>
        <pt x="333" y="216" on="0"/>
        <pt x="404" y="216" on="0"/>
      </contour>
    </TTGlyph>
    <TTGlyph name="asterisk" xMin="105" yMin="341" xMax="423" yMax="660">
      <contour>
        <pt x="250" y="499" on="1"/>
        <pt x="246" y="599" on="1"/>
        <pt x="246" y="628" on="0"/>
        <pt x="272" y="660" on="0"/>
        <pt x="292" y="660" on="1"/>
        <pt x="319" y="660" on="0"/>
        <pt x="319" y="632" on="1"/>
        <pt x="319" y="624" on="0"/>
        <pt x="315" y="607" on="0"/>
        <pt x="276" y="525" on="0"/>
        <pt x="266" y="499" on="1"/>
        <pt x="289" y="512" on="0"/>
        <pt x="320" y="531" on="1"/>
        <pt x="379" y="567" on="0"/>
        <pt x="407" y="567" on="0"/>
        <pt x="423" y="550" on="0"/>
        <pt x="423" y="521" on="0"/>
        <pt x="412" y="502" on="0"/>
        <pt x="381" y="493" on="0"/>
        <pt x="352" y="490" on="0"/>
        <pt x="290" y="486" on="0"/>
        <pt x="266" y="483" on="1"/>
        <pt x="281" y="465" on="0"/>
        <pt x="325" y="422" on="0"/>
        <pt x="344" y="398" on="0"/>
        <pt x="344" y="369" on="0"/>
        <pt x="316" y="341" on="0"/>
        <pt x="283" y="341" on="0"/>
        <pt x="270" y="365" on="0"/>
        <pt x="258" y="448" on="0"/>
        <pt x="252" y="474" on="1"/>
        <pt x="222" y="425" on="0"/>
        <pt x="195" y="377" on="0"/>
        <pt x="186" y="364" on="1"/>
        <pt x="169" y="341" on="0"/>
        <pt x="136" y="341" on="0"/>
        <pt x="120" y="359" on="0"/>
        <pt x="120" y="384" on="0"/>
        <pt x="140" y="409" on="0"/>
        <pt x="166" y="428" on="0"/>
        <pt x="221" y="466" on="0"/>
        <pt x="242" y="483" on="1"/>
        <pt x="220" y="486" on="0"/>
        <pt x="170" y="489" on="0"/>
        <pt x="142" y="491" on="0"/>
        <pt x="129" y="494" on="1"/>
        <pt x="105" y="498" on="0"/>
        <pt x="105" y="538" on="0"/>
        <pt x="131" y="567" on="0"/>
        <pt x="159" y="567" on="0"/>
        <pt x="185" y="550" on="0"/>
        <pt x="231" y="512" on="0"/>
      </contour>
    </TTGlyph>
    <TTGlyph name="at" xMin="58" yMin="-137" xMax="735" yMax="538">
      <contour>
        <pt x="457" y="115" on="1"/>
        <pt x="451" y="115" on="1"/>
        <pt x="423" y="53" on="0"/>
        <pt x="345" y="0" on="0"/>
        <pt x="255" y="0" on="0"/>
        <pt x="199" y="70" on="0"/>
        <pt x="199" y="172" on="0"/>
        <pt x="240" y="265" on="0"/>
        <pt x="316" y="346" on="0"/>
        <pt x="441" y="397" on="0"/>
        <pt x="517" y="398" on="1"/>
        <pt x="528" y="432" on="1"/>
        <pt x="554" y="432" on="1"/>
        <pt x="490" y="115" on="1"/>
        <pt x="482" y="73" on="0"/>
        <pt x="482" y="11" on="0"/>
        <pt x="513" y="-16" on="0"/>
        <pt x="538" y="-16" on="1"/>
        <pt x="592" y="-16" on="0"/>
        <pt x="699" y="120" on="0"/>
        <pt x="699" y="343" on="0"/>
        <pt x="541" y="502" on="0"/>
        <pt x="292" y="502" on="0"/>
        <pt x="94" y="307" on="0"/>
        <pt x="94" y="57" on="0"/>
        <pt x="253" y="-101" on="0"/>
        <pt x="371" y="-101" on="1"/>
        <pt x="368" y="-137" on="1"/>
        <pt x="236" y="-137" on="0"/>
        <pt x="58" y="40" on="0"/>
        <pt x="58" y="171" on="1"/>
        <pt x="58" y="320" on="0"/>
        <pt x="280" y="538" on="0"/>
        <pt x="558" y="538" on="0"/>
        <pt x="735" y="360" on="0"/>
        <pt x="735" y="105" on="0"/>
        <pt x="603" y="-52" on="0"/>
        <pt x="534" y="-52" on="1"/>
        <pt x="448" y="-52" on="0"/>
        <pt x="448" y="43" on="1"/>
        <pt x="448" y="72" on="0"/>
      </contour>
      <contour>
        <pt x="509" y="373" on="1"/>
        <pt x="411" y="367" on="0"/>
        <pt x="274" y="223" on="0"/>
        <pt x="274" y="120" on="1"/>
        <pt x="274" y="77" on="0"/>
        <pt x="304" y="34" on="0"/>
        <pt x="358" y="34" on="0"/>
        <pt x="412" y="83" on="0"/>
        <pt x="432" y="124" on="1"/>
        <pt x="466" y="194" on="0"/>
        <pt x="490" y="292" on="1"/>
      </contour>
    </TTGlyph>
    <TTGlyph name="atilde" xMin="40" yMin="-12" xMax="468" yMax="634">
      <contour>
        <pt x="410" y="321" on="0"/>
        <pt x="348" y="83" on="0"/>
        <pt x="348" y="16" on="0"/>
        <pt x="373" y="16" on="1"/>
        <pt x="392" y="16" on="0"/>
        <pt x="436" y="67" on="0"/>
        <pt x="452" y="114" on="1"/>
        <pt x="468" y="110" on="1"/>
        <pt x="425" y="-12" on="0"/>
        <pt x="356" y="-12" on="1"/>
        <pt x="294" y="-12" on="0"/>
        <pt x="294" y="63" on="1"/>
        <pt x="294" y="78" on="0"/>
        <pt x="299" y="111" on="1"/>
        <pt x="294" y="111" on="1"/>
        <pt x="232" y="-12" on="0"/>
        <pt x="150" y="-12" on="1"/>
        <pt x="103" y="-12" on="0"/>
        <pt x="40" y="71" on="0"/>
        <pt x="40" y="192" on="0"/>
        <pt x="72" y="296" on="0"/>
        <pt x="130" y="387" on="0"/>
        <pt x="226" y="444" on="0"/>
        <pt x="283" y="444" on="1"/>
        <pt x="357" y="444" on="0"/>
        <pt x="400" y="381" on="1"/>
        <pt x="431" y="435" on="1"/>
        <pt x="445" y="425" on="1"/>
      </contour>
      <contour>
        <pt x="174" y="18" on="1"/>
        <pt x="216" y="18" on="0"/>
        <pt x="259" y="83" on="1"/>
        <pt x="308" y="158" on="0"/>
        <pt x="350" y="328" on="1"/>
        <pt x="359" y="368" on="0"/>
        <pt x="364" y="386" on="1"/>
        <pt x="329" y="420" on="0"/>
        <pt x="238" y="420" on="0"/>
        <pt x="167" y="358" on="0"/>
        <pt x="147" y="311" on="1"/>
        <pt x="106" y="215" on="0"/>
        <pt x="106" y="130" on="1"/>
        <pt x="106" y="74" on="0"/>
        <pt x="143" y="18" on="0"/>
      </contour>
      <contour>
        <pt x="432" y="634" on="1"/>
        <pt x="450" y="627" on="1"/>
        <pt x="428" y="572" on="0"/>
        <pt x="385" y="530" on="0"/>
        <pt x="347" y="530" on="0"/>
        <pt x="283" y="553" on="0"/>
        <pt x="248" y="553" on="0"/>
        <pt x="224" y="535" on="0"/>
        <pt x="207" y="508" on="1"/>
        <pt x="190" y="515" on="1"/>
        <pt x="227" y="611" on="0"/>
        <pt x="277" y="611" on="1"/>
        <pt x="291" y="611" on="0"/>
        <pt x="355" y="588" on="0"/>
        <pt x="391" y="588" on="0"/>
        <pt x="415" y="607" on="0"/>
      </contour>
    </TTGlyph>
    <TTGlyph name="b" xMin="37" yMin="-12" xMax="447" yMax="657">
      <contour>
        <pt x="129" y="172" on="1"/>
        <pt x="137" y="172" on="1"/>
        <pt x="153" y="216" on="1"/>
        <pt x="237" y="444" on="0"/>
        <pt x="337" y="444" on="1"/>
        <pt x="384" y="444" on="0"/>
        <pt x="447" y="361" on="0"/>
        <pt x="447" y="240" on="0"/>
        <pt x="415" y="136" on="0"/>
        <pt x="357" y="45" on="0"/>
        <pt x="261" y="-12" on="0"/>
        <pt x="161" y="-12" on="0"/>
        <pt x="89" y="27" on="0"/>
        <pt x="69" y="59" on="1"/>
        <pt x="78" y="86" on="1"/>
        <pt x="126" y="10" on="0"/>
        <pt x="201" y="10" on="1"/>
        <pt x="258" y="10" on="0"/>
        <pt x="342" y="115" on="0"/>
        <pt x="377" y="242" on="0"/>
        <pt x="377" y="349" on="0"/>
        <pt x="342" y="406" on="0"/>
        <pt x="296" y="406" on="0"/>
        <pt x="250" y="367" on="0"/>
        <pt x="223" y="326" on="1"/>
        <pt x="165" y="236" on="0"/>
        <pt x="114" y="31" on="1"/>
        <pt x="84" y="63" on="1"/>
        <pt x="54" y="-12" on="1"/>
        <pt x="37" y="-6" on="1"/>
        <pt x="194" y="620" on="1"/>
        <pt x="130" y="615" on="1"/>
        <pt x="129" y="632" on="1"/>
        <pt x="198" y="641" on="0"/>
        <pt x="258" y="657" on="1"/>
        <pt x="272" y="647" on="1"/>
        <pt x="191" y="411" on="0"/>
      </contour>
    </TTGlyph>
    <TTGlyph name="backslash" xMin="18" yMin="-74" xMax="301" yMax="648">
      <contour>
        <pt x="301" y="-74" on="1"/>
        <pt x="268" y="-74" on="1"/>
        <pt x="18" y="648" on="1"/>
        <pt x="52" y="648" on="1"/>
      </contour>
    </TTGlyph>
    <TTGlyph name="bar" xMin="82" yMin="-107" xMax="154" yMax="630">
      <contour>
        <pt x="82" y="-107" on="1"/>
        <pt x="82" y="630" on="1"/>
        <pt x="154" y="630" on="1"/>
        <pt x="154" y="-107" on="1"/>
      </contour>
    </TTGlyph>
    <TTGlyph name="braceleft" xMin="45" yMin="-113" xMax="316" yMax="635">
      <contour>
        <pt x="128" y="263" on="1"/>
        <pt x="128" y="259" on="1"/>
        <pt x="166" y="259" on="0"/>
        <pt x="166" y="220" on="1"/>
        <pt x="166" y="204" on="0"/>
        <pt x="126" y="45" on="0"/>
        <pt x="126" y="-59" on="0"/>
        <pt x="164" y="-98" on="1"/>
        <pt x="150" y="-113" on="1"/>
        <pt x="64" y="-59" on="0"/>
        <pt x="64" y="53" on="1"/>
        <pt x="64" y="120" on="0"/>
        <pt x="93" y="236" on="0"/>
        <pt x="93" y="241" on="1"/>
        <pt x="93" y="252" on="0"/>
        <pt x="83" y="252" on="1"/>
        <pt x="45" y="252" on="1"/>
        <pt x="49" y="270" on="1"/>
        <pt x="87" y="270" on="1"/>
        <pt x="100" y="270" on="0"/>
        <pt x="103" y="284" on="1"/>
        <pt x="115" y="341" on="1"/>
        <pt x="150" y="508" on="0"/>
        <pt x="230" y="582" on="1"/>
        <pt x="263" y="613" on="0"/>
        <pt x="309" y="635" on="1"/>
        <pt x="316" y="620" on="1"/>
        <pt x="250" y="573" on="0"/>
        <pt x="227" y="498" on="1"/>
        <pt x="216" y="461" on="0"/>
        <pt x="195" y="347" on="0"/>
        <pt x="190" y="322" on="1"/>
        <pt x="177" y="263" on="0"/>
      </contour>
    </TTGlyph>
    <TTGlyph name="braceright" xMin="-33" yMin="-113" xMax="238" yMax="635">
      <contour>
        <pt x="155" y="259" on="1"/>
        <pt x="155" y="263" on="1"/>
        <pt x="117" y="263" on="0"/>
        <pt x="117" y="302" on="1"/>
        <pt x="117" y="318" on="0"/>
        <pt x="157" y="477" on="0"/>
        <pt x="157" y="581" on="0"/>
        <pt x="119" y="620" on="1"/>
        <pt x="133" y="635" on="1"/>
        <pt x="219" y="581" on="0"/>
        <pt x="219" y="469" on="1"/>
        <pt x="219" y="410" on="0"/>
        <pt x="190" y="286" on="0"/>
        <pt x="190" y="281" on="1"/>
        <pt x="190" y="270" on="0"/>
        <pt x="200" y="270" on="1"/>
        <pt x="238" y="270" on="1"/>
        <pt x="234" y="252" on="1"/>
        <pt x="196" y="252" on="1"/>
        <pt x="184" y="252" on="0"/>
        <pt x="180" y="238" on="1"/>
        <pt x="168" y="181" on="1"/>
        <pt x="133" y="14" on="0"/>
        <pt x="54" y="-60" on="1"/>
        <pt x="20" y="-91" on="0"/>
        <pt x="-26" y="-113" on="1"/>
        <pt x="-33" y="-98" on="1"/>
        <pt x="33" y="-51" on="0"/>
        <pt x="56" y="24" on="1"/>
        <pt x="67" y="61" on="0"/>
        <pt x="88" y="175" on="0"/>
        <pt x="93" y="200" on="1"/>
        <pt x="106" y="259" on="0"/>
      </contour>
    </TTGlyph>
    <TTGlyph name="bracketleft" xMin="-8" yMin="-113" xMax="305" yMax="636">
      <contour>
        <pt x="70" y="-75" on="1"/>
        <pt x="69" y="-79" on="1"/>
        <pt x="69" y="-89" on="0"/>
        <pt x="80" y="-89" on="1"/>
        <pt x="153" y="-89" on="1"/>
        <pt x="149" y="-107" on="1"/>
        <pt x="74" y="-107" on="1"/>
        <pt x="18" y="-107" on="0"/>
        <pt x="-8" y="-113" on="1"/>
        <pt x="152" y="636" on="1"/>
        <pt x="174" y="630" on="0"/>
        <pt x="230" y="630" on="1"/>
        <pt x="305" y="630" on="1"/>
        <pt x="302" y="612" on="1"/>
        <pt x="229" y="612" on="1"/>
        <pt x="215" y="612" on="0"/>
        <pt x="213" y="598" on="1"/>
      </contour>
    </TTGlyph>
    <TTGlyph name="bracketright" xMin="-42" yMin="-113" xMax="271" yMax="636">
      <contour>
        <pt x="52" y="-75" on="1"/>
        <pt x="195" y="598" on="1"/>
        <pt x="195" y="600" on="1"/>
        <pt x="195" y="612" on="0"/>
        <pt x="185" y="612" on="1"/>
        <pt x="111" y="612" on="1"/>
        <pt x="114" y="630" on="1"/>
        <pt x="190" y="630" on="1"/>
        <pt x="247" y="630" on="0"/>
        <pt x="271" y="636" on="1"/>
        <pt x="111" y="-113" on="1"/>
        <pt x="91" y="-107" on="0"/>
        <pt x="34" y="-107" on="1"/>
        <pt x="-42" y="-107" on="1"/>
        <pt x="-38" y="-89" on="1"/>
        <pt x="36" y="-89" on="1"/>
        <pt x="48" y="-89" on="0"/>
      </contour>
    </TTGlyph>
    <TTGlyph name="breve" xMin="30" yMin="532" xMax="235" yMax="640">
      <contour>
        <pt x="60" y="612" on="0"/>
        <pt x="93" y="590" on="0"/>
        <pt x="158" y="590" on="0"/>
        <pt x="202" y="618" on="0"/>
        <pt x="207" y="640" on="1"/>
        <pt x="235" y="640" on="1"/>
        <pt x="225" y="593" on="0"/>
        <pt x="158" y="532" on="0"/>
        <pt x="73" y="532" on="0"/>
        <pt x="30" y="576" on="0"/>
        <pt x="30" y="612" on="1"/>
        <pt x="30" y="625" on="0"/>
        <pt x="33" y="640" on="1"/>
        <pt x="61" y="640" on="1"/>
        <pt x="60" y="637" on="0"/>
        <pt x="60" y="631" on="1"/>
      </contour>
    </TTGlyph>
    <TTGlyph name="brokenbar" xMin="82" yMin="-107" xMax="154" yMax="630">
      <contour>
        <pt x="82" y="366" on="1"/>
        <pt x="82" y="630" on="1"/>
        <pt x="154" y="630" on="1"/>
        <pt x="154" y="366" on="1"/>
      </contour>
      <contour>
        <pt x="82" y="-107" on="1"/>
        <pt x="82" y="157" on="1"/>
        <pt x="154" y="157" on="1"/>
        <pt x="154" y="-107" on="1"/>
      </contour>
    </TTGlyph>
    <TTGlyph name="bullet" xMin="40" yMin="210" xMax="186" yMax="356">
      <contour>
        <pt x="40" y="253" on="0"/>
        <pt x="40" y="313" on="0"/>
        <pt x="83" y="356" on="0"/>
        <pt x="143" y="356" on="0"/>
        <pt x="186" y="313" on="0"/>
        <pt x="186" y="253" on="0"/>
        <pt x="143" y="210" on="0"/>
        <pt x="83" y="210" on="0"/>
      </contour>
    </TTGlyph>
    <TTGlyph name="c" xMin="40" yMin="-12" xMax="382" yMax="444">
      <contour>
        <pt x="276" y="420" on="1"/>
        <pt x="235" y="420" on="0"/>
        <pt x="166" y="358" on="0"/>
        <pt x="146" y="312" on="1"/>
        <pt x="106" y="215" on="0"/>
        <pt x="106" y="144" on="1"/>
        <pt x="106" y="12" on="0"/>
        <pt x="186" y="12" on="1"/>
        <pt x="285" y="12" on="0"/>
        <pt x="331" y="120" on="1"/>
        <pt x="347" y="116" on="1"/>
        <pt x="323" y="55" on="0"/>
        <pt x="232" y="-12" on="0"/>
        <pt x="118" y="-12" on="0"/>
        <pt x="40" y="72" on="0"/>
        <pt x="40" y="214" on="0"/>
        <pt x="94" y="347" on="0"/>
        <pt x="208" y="444" on="0"/>
        <pt x="281" y="444" on="1"/>
        <pt x="331" y="444" on="0"/>
        <pt x="382" y="393" on="0"/>
        <pt x="382" y="322" on="0"/>
        <pt x="357" y="266" on="0"/>
        <pt x="304" y="266" on="0"/>
        <pt x="291" y="282" on="1"/>
        <pt x="320" y="326" on="0"/>
        <pt x="320" y="368" on="1"/>
        <pt x="320" y="420" on="0"/>
      </contour>
    </TTGlyph>
    <TTGlyph name="caron" xMin="27" yMin="494" xMax="228" yMax="644">
      <contour>
        <pt x="43" y="644" on="1"/>
        <pt x="113" y="559" on="1"/>
        <pt x="215" y="644" on="1"/>
        <pt x="228" y="628" on="1"/>
        <pt x="143" y="516" on="1"/>
        <pt x="125" y="494" on="0"/>
        <pt x="80" y="494" on="0"/>
        <pt x="71" y="517" on="1"/>
        <pt x="27" y="635" on="1"/>
      </contour>
    </TTGlyph>
    <TTGlyph name="ccedilla" xMin="40" yMin="-216" xMax="382" yMax="444">
      <component glyphName="c" x="0" y="0" flags="0x1004"/>
      <component glyphName="cedilla" x="25" y="0" flags="0x1004"/>
    </TTGlyph>
    <TTGlyph name="cedilla" xMin="20" yMin="-216" xMax="193" yMax="0">
      <contour>
        <pt x="133" y="0" on="1"/>
        <pt x="149" y="0" on="1"/>
        <pt x="130" y="-46" on="1"/>
        <pt x="161" y="-52" on="0"/>
        <pt x="193" y="-92" on="0"/>
        <pt x="193" y="-153" on="0"/>
        <pt x="133" y="-216" on="0"/>
        <pt x="83" y="-216" on="1"/>
        <pt x="57" y="-216" on="0"/>
        <pt x="20" y="-183" on="0"/>
        <pt x="20" y="-132" on="0"/>
        <pt x="42" y="-105" on="0"/>
        <pt x="75" y="-105" on="0"/>
        <pt x="82" y="-112" on="1"/>
        <pt x="65" y="-133" on="0"/>
        <pt x="65" y="-194" on="0"/>
        <pt x="94" y="-194" on="1"/>
        <pt x="113" y="-194" on="0"/>
        <pt x="149" y="-156" on="0"/>
        <pt x="149" y="-125" on="1"/>
        <pt x="149" y="-84" on="0"/>
        <pt x="102" y="-75" on="1"/>
      </contour>
    </TTGlyph>
    <TTGlyph name="cent" xMin="36" yMin="-55" xMax="396" yMax="621">
      <contour>
        <pt x="181" y="-55" on="1"/>
        <pt x="151" y="-55" on="1"/>
        <pt x="176" y="65" on="1"/>
        <pt x="112" y="70" on="0"/>
        <pt x="36" y="153" on="0"/>
        <pt x="36" y="223" on="1"/>
        <pt x="36" y="340" on="0"/>
        <pt x="177" y="493" on="0"/>
        <pt x="269" y="502" on="1"/>
        <pt x="294" y="621" on="1"/>
        <pt x="324" y="621" on="1"/>
        <pt x="299" y="502" on="1"/>
        <pt x="349" y="500" on="0"/>
        <pt x="396" y="452" on="0"/>
        <pt x="396" y="386" on="0"/>
        <pt x="372" y="331" on="0"/>
        <pt x="319" y="331" on="0"/>
        <pt x="306" y="346" on="1"/>
        <pt x="332" y="388" on="0"/>
        <pt x="332" y="423" on="1"/>
        <pt x="332" y="478" on="0"/>
        <pt x="283" y="478" on="1"/>
        <pt x="218" y="478" on="0"/>
        <pt x="108" y="327" on="0"/>
        <pt x="108" y="209" on="1"/>
        <pt x="108" y="152" on="0"/>
        <pt x="156" y="89" on="0"/>
        <pt x="247" y="89" on="0"/>
        <pt x="330" y="143" on="0"/>
        <pt x="353" y="192" on="1"/>
        <pt x="371" y="187" on="1"/>
        <pt x="347" y="133" on="0"/>
        <pt x="257" y="68" on="0"/>
        <pt x="206" y="64" on="1"/>
      </contour>
    </TTGlyph>
    <TTGlyph name="circumflex" xMin="30" yMin="489" xMax="231" yMax="639">
      <contour>
        <pt x="215" y="489" on="1"/>
        <pt x="145" y="574" on="1"/>
        <pt x="43" y="489" on="1"/>
        <pt x="30" y="505" on="1"/>
        <pt x="115" y="617" on="1"/>
        <pt x="133" y="639" on="0"/>
        <pt x="178" y="639" on="0"/>
        <pt x="187" y="616" on="1"/>
        <pt x="231" y="498" on="1"/>
      </contour>
    </TTGlyph>
    <TTGlyph name="colon" xMin="40" yMin="-12" xMax="218" yMax="426">
      <contour>
        <pt x="40" y="19" on="0"/>
        <pt x="40" y="63" on="0"/>
        <pt x="71" y="94" on="0"/>
        <pt x="115" y="94" on="0"/>
        <pt x="146" y="63" on="0"/>
        <pt x="146" y="19" on="0"/>
        <pt x="115" y="-12" on="0"/>
        <pt x="71" y="-12" on="0"/>
      </contour>
      <contour>
        <pt x="112" y="351" on="0"/>
        <pt x="112" y="395" on="0"/>
        <pt x="143" y="426" on="0"/>
        <pt x="187" y="426" on="0"/>
        <pt x="218" y="395" on="0"/>
        <pt x="218" y="351" on="0"/>
        <pt x="187" y="320" on="0"/>
        <pt x="143" y="320" on="0"/>
      </contour>
    </TTGlyph>
    <TTGlyph name="comma" xMin="5" yMin="-125" xMax="153" yMax="100">
      <contour>
        <pt x="5" y="-111" on="1"/>
        <pt x="70" y="-61" on="0"/>
        <pt x="70" y="-6" on="1"/>
        <pt x="70" y="24" on="0"/>
        <pt x="49" y="43" on="1"/>
        <pt x="54" y="66" on="0"/>
        <pt x="91" y="100" on="0"/>
        <pt x="112" y="100" on="1"/>
        <pt x="153" y="100" on="0"/>
        <pt x="153" y="18" on="0"/>
        <pt x="72" y="-95" on="0"/>
        <pt x="13" y="-125" on="1"/>
      </contour>
    </TTGlyph>
    <TTGlyph name="copyright" xMin="70" yMin="176" xMax="542" yMax="660">
      <contour>
        <pt x="351" y="281" on="1"/>
        <pt x="349" y="281" on="0"/>
        <pt x="338" y="274" on="1"/>
        <pt x="303" y="254" on="0"/>
        <pt x="221" y="254" on="0"/>
        <pt x="162" y="315" on="0"/>
        <pt x="162" y="370" on="1"/>
        <pt x="162" y="465" on="0"/>
        <pt x="271" y="583" on="0"/>
        <pt x="341" y="583" on="1"/>
        <pt x="364" y="583" on="0"/>
        <pt x="408" y="560" on="0"/>
        <pt x="411" y="560" on="1"/>
        <pt x="418" y="560" on="0"/>
        <pt x="423" y="570" on="1"/>
        <pt x="427" y="581" on="1"/>
        <pt x="438" y="581" on="1"/>
        <pt x="418" y="487" on="1"/>
        <pt x="407" y="487" on="1"/>
        <pt x="407" y="495" on="1"/>
        <pt x="407" y="529" on="0"/>
        <pt x="368" y="560" on="0"/>
        <pt x="337" y="560" on="1"/>
        <pt x="291" y="560" on="0"/>
        <pt x="212" y="449" on="0"/>
        <pt x="212" y="364" on="1"/>
        <pt x="212" y="322" on="0"/>
        <pt x="246" y="276" on="0"/>
        <pt x="308" y="276" on="0"/>
        <pt x="365" y="312" on="0"/>
        <pt x="378" y="349" on="1"/>
        <pt x="389" y="349" on="1"/>
        <pt x="370" y="260" on="1"/>
        <pt x="359" y="260" on="1"/>
        <pt x="359" y="271" on="1"/>
        <pt x="359" y="281" on="0"/>
      </contour>
      <contour>
        <pt x="70" y="366" on="1"/>
        <pt x="70" y="475" on="0"/>
        <pt x="245" y="660" on="0"/>
        <pt x="358" y="660" on="1"/>
        <pt x="439" y="660" on="0"/>
        <pt x="542" y="553" on="0"/>
        <pt x="542" y="472" on="1"/>
        <pt x="542" y="356" on="0"/>
        <pt x="364" y="176" on="0"/>
        <pt x="255" y="176" on="1"/>
        <pt x="174" y="176" on="0"/>
        <pt x="70" y="284" on="0"/>
      </contour>
      <contour>
        <pt x="95" y="366" on="1"/>
        <pt x="95" y="295" on="0"/>
        <pt x="185" y="201" on="0"/>
        <pt x="255" y="201" on="1"/>
        <pt x="354" y="201" on="0"/>
        <pt x="517" y="366" on="0"/>
        <pt x="517" y="472" on="1"/>
        <pt x="517" y="542" on="0"/>
        <pt x="428" y="635" on="0"/>
        <pt x="358" y="635" on="1"/>
        <pt x="254" y="635" on="0"/>
        <pt x="95" y="466" on="0"/>
      </contour>
    </TTGlyph>
    <TTGlyph name="currency" xMin="26" yMin="89" xMax="437" yMax="500">
      <contour>
        <pt x="112" y="212" on="1"/>
        <pt x="149" y="174" on="1"/>
        <pt x="64" y="89" on="1"/>
        <pt x="26" y="126" on="1"/>
      </contour>
      <contour>
        <pt x="349" y="374" on="1"/>
        <pt x="311" y="411" on="1"/>
        <pt x="400" y="500" on="1"/>
        <pt x="437" y="462" on="1"/>
      </contour>
      <contour>
        <pt x="102" y="348" on="0"/>
        <pt x="102" y="240" on="0"/>
        <pt x="178" y="164" on="0"/>
        <pt x="286" y="164" on="0"/>
        <pt x="362" y="240" on="0"/>
        <pt x="362" y="348" on="0"/>
        <pt x="286" y="424" on="0"/>
        <pt x="178" y="424" on="0"/>
      </contour>
      <contour>
        <pt x="72" y="228" on="0"/>
        <pt x="72" y="360" on="0"/>
        <pt x="166" y="454" on="0"/>
        <pt x="298" y="454" on="0"/>
        <pt x="392" y="360" on="0"/>
        <pt x="392" y="228" on="0"/>
        <pt x="298" y="134" on="0"/>
        <pt x="166" y="134" on="0"/>
      </contour>
      <contour>
        <pt x="314" y="175" on="1"/>
        <pt x="352" y="212" on="1"/>
        <pt x="437" y="127" on="1"/>
        <pt x="400" y="89" on="1"/>
      </contour>
      <contour>
        <pt x="152" y="412" on="1"/>
        <pt x="115" y="374" on="1"/>
        <pt x="26" y="463" on="1"/>
        <pt x="64" y="500" on="1"/>
      </contour>
    </TTGlyph>
    <TTGlyph name="d" xMin="40" yMin="-12" xMax="503" yMax="657">
      <contour>
        <pt x="348" y="49" on="1"/>
        <pt x="348" y="16" on="0"/>
        <pt x="373" y="16" on="1"/>
        <pt x="392" y="16" on="0"/>
        <pt x="436" y="67" on="0"/>
        <pt x="452" y="114" on="1"/>
        <pt x="468" y="110" on="1"/>
        <pt x="425" y="-12" on="0"/>
        <pt x="356" y="-12" on="1"/>
        <pt x="294" y="-12" on="0"/>
        <pt x="294" y="145" on="0"/>
        <pt x="425" y="620" on="1"/>
        <pt x="361" y="615" on="1"/>
        <pt x="360" y="632" on="1"/>
        <pt x="429" y="641" on="0"/>
        <pt x="489" y="657" on="1"/>
        <pt x="503" y="647" on="1"/>
        <pt x="461" y="524" on="0"/>
        <pt x="348" y="103" on="0"/>
      </contour>
      <contour>
        <pt x="304" y="111" on="1"/>
        <pt x="294" y="111" on="1"/>
        <pt x="232" y="-12" on="0"/>
        <pt x="150" y="-12" on="1"/>
        <pt x="103" y="-12" on="0"/>
        <pt x="40" y="71" on="0"/>
        <pt x="40" y="192" on="0"/>
        <pt x="72" y="296" on="0"/>
        <pt x="130" y="387" on="0"/>
        <pt x="226" y="444" on="0"/>
        <pt x="276" y="444" on="1"/>
        <pt x="372" y="444" on="0"/>
        <pt x="412" y="360" on="1"/>
        <pt x="398" y="342" on="1"/>
        <pt x="351" y="420" on="0"/>
        <pt x="281" y="420" on="1"/>
        <pt x="238" y="420" on="0"/>
        <pt x="167" y="358" on="0"/>
        <pt x="147" y="311" on="1"/>
        <pt x="106" y="215" on="0"/>
        <pt x="106" y="130" on="1"/>
        <pt x="106" y="74" on="0"/>
        <pt x="143" y="18" on="0"/>
        <pt x="174" y="18" on="1"/>
        <pt x="217" y="18" on="0"/>
        <pt x="307" y="163" on="0"/>
        <pt x="342" y="298" on="1"/>
      </contour>
    </TTGlyph>
    <TTGlyph name="dagger" xMin="60" yMin="-107" xMax="391" yMax="660">
      <contour>
        <pt x="220" y="499" on="1"/>
        <pt x="218" y="585" on="1"/>
        <pt x="218" y="660" on="0"/>
        <pt x="269" y="660" on="1"/>
        <pt x="300" y="660" on="0"/>
        <pt x="300" y="630" on="1"/>
        <pt x="300" y="614" on="0"/>
        <pt x="246" y="498" on="0"/>
        <pt x="234" y="465" on="1"/>
        <pt x="270" y="470" on="0"/>
        <pt x="351" y="493" on="0"/>
        <pt x="362" y="493" on="1"/>
        <pt x="391" y="493" on="0"/>
        <pt x="391" y="467" on="1"/>
        <pt x="391" y="449" on="0"/>
        <pt x="366" y="423" on="0"/>
        <pt x="339" y="423" on="0"/>
        <pt x="253" y="447" on="1"/>
        <pt x="111" y="-107" on="1"/>
        <pt x="100" y="-107" on="1"/>
        <pt x="194" y="447" on="1"/>
        <pt x="181" y="444" on="0"/>
        <pt x="154" y="437" on="1"/>
        <pt x="101" y="423" on="0"/>
        <pt x="88" y="423" on="1"/>
        <pt x="60" y="423" on="0"/>
        <pt x="60" y="449" on="1"/>
        <pt x="60" y="467" on="0"/>
        <pt x="84" y="493" on="0"/>
        <pt x="114" y="493" on="0"/>
        <pt x="185" y="470" on="0"/>
        <pt x="219" y="465" on="1"/>
      </contour>
    </TTGlyph>
    <TTGlyph name="daggerdbl" xMin="-20" yMin="-119" xMax="391" yMax="660">
      <contour>
        <pt x="151" y="42" on="1"/>
        <pt x="153" y="-44" on="1"/>
        <pt x="153" y="-119" on="0"/>
        <pt x="102" y="-119" on="1"/>
        <pt x="71" y="-119" on="0"/>
        <pt x="71" y="-89" on="1"/>
        <pt x="71" y="-72" on="0"/>
        <pt x="125" y="43" on="0"/>
        <pt x="137" y="76" on="1"/>
        <pt x="101" y="71" on="0"/>
        <pt x="20" y="48" on="0"/>
        <pt x="9" y="48" on="1"/>
        <pt x="-20" y="48" on="0"/>
        <pt x="-20" y="74" on="1"/>
        <pt x="-20" y="92" on="0"/>
        <pt x="5" y="118" on="0"/>
        <pt x="32" y="118" on="0"/>
        <pt x="118" y="94" on="1"/>
        <pt x="179" y="270" on="1"/>
        <pt x="194" y="447" on="1"/>
        <pt x="181" y="444" on="0"/>
        <pt x="154" y="437" on="1"/>
        <pt x="101" y="423" on="0"/>
        <pt x="88" y="423" on="1"/>
        <pt x="60" y="423" on="0"/>
        <pt x="60" y="449" on="1"/>
        <pt x="60" y="467" on="0"/>
        <pt x="84" y="493" on="0"/>
        <pt x="114" y="493" on="0"/>
        <pt x="185" y="470" on="0"/>
        <pt x="219" y="465" on="1"/>
        <pt x="220" y="499" on="1"/>
        <pt x="218" y="585" on="1"/>
        <pt x="218" y="660" on="0"/>
        <pt x="269" y="660" on="1"/>
        <pt x="300" y="660" on="0"/>
        <pt x="300" y="630" on="1"/>
        <pt x="300" y="614" on="0"/>
        <pt x="246" y="498" on="0"/>
        <pt x="234" y="465" on="1"/>
        <pt x="270" y="470" on="0"/>
        <pt x="351" y="493" on="0"/>
        <pt x="362" y="493" on="1"/>
        <pt x="391" y="493" on="0"/>
        <pt x="391" y="467" on="1"/>
        <pt x="391" y="449" on="0"/>
        <pt x="366" y="423" on="0"/>
        <pt x="339" y="423" on="0"/>
        <pt x="253" y="447" on="1"/>
        <pt x="191" y="270" on="1"/>
        <pt x="177" y="94" on="1"/>
        <pt x="190" y="97" on="0"/>
        <pt x="216" y="104" on="1"/>
        <pt x="270" y="118" on="0"/>
        <pt x="283" y="118" on="1"/>
        <pt x="311" y="118" on="0"/>
        <pt x="311" y="92" on="1"/>
        <pt x="311" y="74" on="0"/>
        <pt x="287" y="48" on="0"/>
        <pt x="257" y="48" on="0"/>
        <pt x="186" y="71" on="0"/>
        <pt x="152" y="76" on="1"/>
        <pt x="151" y="64" on="0"/>
      </contour>
    </TTGlyph>
    <TTGlyph name="degree" xMin="90" yMin="430" xMax="298" yMax="639">
      <contour>
        <pt x="90" y="571" on="0"/>
        <pt x="155" y="639" on="0"/>
        <pt x="240" y="639" on="0"/>
        <pt x="298" y="584" on="0"/>
        <pt x="298" y="498" on="0"/>
        <pt x="232" y="430" on="0"/>
        <pt x="144" y="430" on="0"/>
        <pt x="90" y="486" on="0"/>
      </contour>
      <contour>
        <pt x="263" y="569" on="0"/>
        <pt x="226" y="605" on="0"/>
        <pt x="170" y="605" on="0"/>
        <pt x="125" y="558" on="0"/>
        <pt x="125" y="500" on="0"/>
        <pt x="159" y="464" on="0"/>
        <pt x="218" y="464" on="0"/>
        <pt x="263" y="511" on="0"/>
      </contour>
    </TTGlyph>
    <TTGlyph name="dieresis" xMin="30" yMin="531" xMax="280" yMax="621">
      <contour>
        <pt x="30" y="557" on="0"/>
        <pt x="30" y="595" on="0"/>
        <pt x="56" y="621" on="0"/>
        <pt x="94" y="621" on="0"/>
        <pt x="120" y="595" on="0"/>
        <pt x="120" y="557" on="0"/>
        <pt x="94" y="531" on="0"/>
        <pt x="56" y="531" on="0"/>
      </contour>
      <contour>
        <pt x="190" y="557" on="0"/>
        <pt x="190" y="595" on="0"/>
        <pt x="216" y="621" on="0"/>
        <pt x="254" y="621" on="0"/>
        <pt x="280" y="595" on="0"/>
        <pt x="280" y="557" on="0"/>
        <pt x="254" y="531" on="0"/>
        <pt x="216" y="531" on="0"/>
      </contour>
    </TTGlyph>
    <TTGlyph name="divide" xMin="74" yMin="9" xMax="458" yMax="384">
      <contour>
        <pt x="447" y="170" on="1"/>
        <pt x="74" y="170" on="1"/>
        <pt x="85" y="223" on="1"/>
        <pt x="458" y="223" on="1"/>
      </contour>
      <contour>
        <pt x="288" y="66" on="1"/>
        <pt x="285" y="40" on="0"/>
        <pt x="248" y="9" on="0"/>
        <pt x="214" y="9" on="0"/>
        <pt x="195" y="30" on="0"/>
        <pt x="195" y="68" on="0"/>
        <pt x="230" y="105" on="0"/>
        <pt x="267" y="105" on="0"/>
        <pt x="288" y="83" on="0"/>
      </contour>
      <contour>
        <pt x="347" y="345" on="1"/>
        <pt x="344" y="319" on="0"/>
        <pt x="309" y="288" on="0"/>
        <pt x="274" y="288" on="0"/>
        <pt x="254" y="309" on="0"/>
        <pt x="254" y="348" on="0"/>
        <pt x="289" y="384" on="0"/>
        <pt x="326" y="384" on="0"/>
        <pt x="347" y="362" on="0"/>
      </contour>
    </TTGlyph>
    <TTGlyph name="dollar" xMin="16" yMin="-101" xMax="419" yMax="667">
      <contour>
        <pt x="155" y="-12" on="1"/>
        <pt x="90" y="-12" on="0"/>
        <pt x="16" y="46" on="0"/>
        <pt x="16" y="90" on="1"/>
        <pt x="16" y="120" on="0"/>
        <pt x="44" y="168" on="0"/>
        <pt x="92" y="168" on="0"/>
        <pt x="106" y="152" on="1"/>
        <pt x="77" y="115" on="0"/>
        <pt x="77" y="49" on="0"/>
        <pt x="124" y="12" on="0"/>
        <pt x="160" y="12" on="1"/>
        <pt x="220" y="12" on="0"/>
        <pt x="307" y="95" on="0"/>
        <pt x="307" y="199" on="0"/>
        <pt x="250" y="230" on="1"/>
        <pt x="160" y="278" on="1"/>
        <pt x="94" y="312" on="0"/>
        <pt x="94" y="457" on="0"/>
        <pt x="204" y="579" on="0"/>
        <pt x="294" y="579" on="1"/>
        <pt x="357" y="579" on="0"/>
        <pt x="419" y="525" on="0"/>
        <pt x="419" y="450" on="0"/>
        <pt x="392" y="399" on="0"/>
        <pt x="342" y="399" on="0"/>
        <pt x="329" y="414" on="1"/>
        <pt x="355" y="457" on="0"/>
        <pt x="355" y="516" on="0"/>
        <pt x="321" y="551" on="0"/>
        <pt x="288" y="551" on="1"/>
        <pt x="229" y="551" on="0"/>
        <pt x="158" y="468" on="0"/>
        <pt x="158" y="366" on="0"/>
        <pt x="212" y="338" on="1"/>
        <pt x="304" y="290" on="1"/>
        <pt x="382" y="249" on="0"/>
        <pt x="382" y="95" on="0"/>
        <pt x="246" y="-12" on="0"/>
      </contour>
      <contour>
        <pt x="159" y="-101" on="1"/>
        <pt x="129" y="-101" on="1"/>
        <pt x="292" y="667" on="1"/>
        <pt x="322" y="667" on="1"/>
      </contour>
    </TTGlyph>
    <TTGlyph name="dotaccent" xMin="43" yMin="500" xMax="149" yMax="606">
      <contour>
        <pt x="43" y="531" on="0"/>
        <pt x="43" y="575" on="0"/>
        <pt x="74" y="606" on="0"/>
        <pt x="118" y="606" on="0"/>
        <pt x="149" y="575" on="0"/>
        <pt x="149" y="531" on="0"/>
        <pt x="118" y="500" on="0"/>
        <pt x="74" y="500" on="0"/>
      </contour>
    </TTGlyph>
    <TTGlyph name="dotlessi" xMin="70" yMin="-12" xMax="244" yMax="435">
      <contour>
        <pt x="70" y="63" on="1"/>
        <pt x="70" y="116" on="0"/>
        <pt x="143" y="398" on="1"/>
        <pt x="79" y="393" on="1"/>
        <pt x="78" y="410" on="1"/>
        <pt x="147" y="419" on="0"/>
        <pt x="207" y="435" on="1"/>
        <pt x="221" y="425" on="1"/>
        <pt x="186" y="321" on="0"/>
        <pt x="124" y="83" on="0"/>
        <pt x="124" y="16" on="0"/>
        <pt x="149" y="16" on="1"/>
        <pt x="168" y="16" on="0"/>
        <pt x="212" y="67" on="0"/>
        <pt x="228" y="114" on="1"/>
        <pt x="244" y="110" on="1"/>
        <pt x="201" y="-12" on="0"/>
        <pt x="132" y="-12" on="1"/>
        <pt x="70" y="-12" on="0"/>
      </contour>
    </TTGlyph>
    <TTGlyph name="e" xMin="40" yMin="-12" xMax="387" yMax="444">
      <contour>
        <pt x="334" y="444" on="0"/>
        <pt x="387" y="393" on="0"/>
        <pt x="387" y="298" on="0"/>
        <pt x="350" y="263" on="1"/>
        <pt x="287" y="203" on="0"/>
        <pt x="163" y="203" on="1"/>
        <pt x="126" y="203" on="0"/>
        <pt x="99" y="209" on="1"/>
        <pt x="99" y="228" on="1"/>
        <pt x="134" y="223" on="0"/>
        <pt x="157" y="223" on="1"/>
        <pt x="240" y="223" on="0"/>
        <pt x="331" y="307" on="0"/>
        <pt x="331" y="357" on="1"/>
        <pt x="331" y="384" on="0"/>
        <pt x="302" y="420" on="0"/>
        <pt x="235" y="420" on="0"/>
        <pt x="166" y="358" on="0"/>
        <pt x="146" y="312" on="1"/>
        <pt x="106" y="215" on="0"/>
        <pt x="106" y="144" on="1"/>
        <pt x="106" y="12" on="0"/>
        <pt x="186" y="12" on="1"/>
        <pt x="285" y="12" on="0"/>
        <pt x="331" y="120" on="1"/>
        <pt x="347" y="116" on="1"/>
        <pt x="323" y="55" on="0"/>
        <pt x="232" y="-12" on="0"/>
        <pt x="118" y="-12" on="0"/>
        <pt x="40" y="72" on="0"/>
        <pt x="40" y="214" on="0"/>
        <pt x="94" y="347" on="0"/>
        <pt x="208" y="444" on="0"/>
        <pt x="281" y="444" on="1"/>
      </contour>
    </TTGlyph>
    <TTGlyph name="eacute" xMin="40" yMin="-12" xMax="387" yMax="639">
      <contour>
        <pt x="334" y="444" on="0"/>
        <pt x="387" y="393" on="0"/>
        <pt x="387" y="298" on="0"/>
        <pt x="350" y="263" on="1"/>
        <pt x="287" y="203" on="0"/>
        <pt x="163" y="203" on="1"/>
        <pt x="126" y="203" on="0"/>
        <pt x="99" y="209" on="1"/>
        <pt x="99" y="228" on="1"/>
        <pt x="134" y="223" on="0"/>
        <pt x="157" y="223" on="1"/>
        <pt x="240" y="223" on="0"/>
        <pt x="331" y="307" on="0"/>
        <pt x="331" y="357" on="1"/>
        <pt x="331" y="384" on="0"/>
        <pt x="302" y="420" on="0"/>
        <pt x="235" y="420" on="0"/>
        <pt x="166" y="358" on="0"/>
        <pt x="146" y="312" on="1"/>
        <pt x="106" y="215" on="0"/>
        <pt x="106" y="144" on="1"/>
        <pt x="106" y="12" on="0"/>
        <pt x="186" y="12" on="1"/>
        <pt x="285" y="12" on="0"/>
        <pt x="331" y="120" on="1"/>
        <pt x="347" y="116" on="1"/>
        <pt x="323" y="55" on="0"/>
        <pt x="232" y="-12" on="0"/>
        <pt x="118" y="-12" on="0"/>
        <pt x="40" y="72" on="0"/>
        <pt x="40" y="214" on="0"/>
        <pt x="94" y="347" on="0"/>
        <pt x="208" y="444" on="0"/>
        <pt x="281" y="444" on="1"/>
      </contour>
      <contour>
        <pt x="354" y="566" on="1"/>
        <pt x="223" y="489" on="1"/>
        <pt x="210" y="505" on="1"/>
        <pt x="321" y="625" on="1"/>
        <pt x="334" y="639" on="0"/>
        <pt x="365" y="639" on="0"/>
        <pt x="381" y="620" on="0"/>
        <pt x="381" y="606" on="1"/>
        <pt x="381" y="581" on="0"/>
      </contour>
    </TTGlyph>
    <TTGlyph name="ecircumflex" xMin="40" yMin="-12" xMax="387" yMax="639">
      <contour>
        <pt x="334" y="444" on="0"/>
        <pt x="387" y="393" on="0"/>
        <pt x="387" y="298" on="0"/>
        <pt x="350" y="263" on="1"/>
        <pt x="287" y="203" on="0"/>
        <pt x="163" y="203" on="1"/>
        <pt x="126" y="203" on="0"/>
        <pt x="99" y="209" on="1"/>
        <pt x="99" y="228" on="1"/>
        <pt x="134" y="223" on="0"/>
        <pt x="157" y="223" on="1"/>
        <pt x="240" y="223" on="0"/>
        <pt x="331" y="307" on="0"/>
        <pt x="331" y="357" on="1"/>
        <pt x="331" y="384" on="0"/>
        <pt x="302" y="420" on="0"/>
        <pt x="235" y="420" on="0"/>
        <pt x="166" y="358" on="0"/>
        <pt x="146" y="312" on="1"/>
        <pt x="106" y="215" on="0"/>
        <pt x="106" y="144" on="1"/>
        <pt x="106" y="12" on="0"/>
        <pt x="186" y="12" on="1"/>
        <pt x="285" y="12" on="0"/>
        <pt x="331" y="120" on="1"/>
        <pt x="347" y="116" on="1"/>
        <pt x="323" y="55" on="0"/>
        <pt x="232" y="-12" on="0"/>
        <pt x="118" y="-12" on="0"/>
        <pt x="40" y="72" on="0"/>
        <pt x="40" y="214" on="0"/>
        <pt x="94" y="347" on="0"/>
        <pt x="208" y="444" on="0"/>
        <pt x="281" y="444" on="1"/>
      </contour>
      <contour>
        <pt x="367" y="489" on="1"/>
        <pt x="297" y="574" on="1"/>
        <pt x="195" y="489" on="1"/>
        <pt x="182" y="505" on="1"/>
        <pt x="267" y="617" on="1"/>
        <pt x="285" y="639" on="0"/>
        <pt x="330" y="639" on="0"/>
        <pt x="339" y="616" on="1"/>
        <pt x="383" y="498" on="1"/>
      </contour>
    </TTGlyph>
    <TTGlyph name="edieresis" xMin="40" yMin="-12" xMax="423" yMax="621">
      <contour>
        <pt x="334" y="444" on="0"/>
        <pt x="387" y="393" on="0"/>
        <pt x="387" y="298" on="0"/>
        <pt x="350" y="263" on="1"/>
        <pt x="287" y="203" on="0"/>
        <pt x="163" y="203" on="1"/>
        <pt x="126" y="203" on="0"/>
        <pt x="99" y="209" on="1"/>
        <pt x="99" y="228" on="1"/>
        <pt x="134" y="223" on="0"/>
        <pt x="157" y="223" on="1"/>
        <pt x="240" y="223" on="0"/>
        <pt x="331" y="307" on="0"/>
        <pt x="331" y="357" on="1"/>
        <pt x="331" y="384" on="0"/>
        <pt x="302" y="420" on="0"/>
        <pt x="235" y="420" on="0"/>
        <pt x="166" y="358" on="0"/>
        <pt x="146" y="312" on="1"/>
        <pt x="106" y="215" on="0"/>
        <pt x="106" y="144" on="1"/>
        <pt x="106" y="12" on="0"/>
        <pt x="186" y="12" on="1"/>
        <pt x="285" y="12" on="0"/>
        <pt x="331" y="120" on="1"/>
        <pt x="347" y="116" on="1"/>
        <pt x="323" y="55" on="0"/>
        <pt x="232" y="-12" on="0"/>
        <pt x="118" y="-12" on="0"/>
        <pt x="40" y="72" on="0"/>
        <pt x="40" y="214" on="0"/>
        <pt x="94" y="347" on="0"/>
        <pt x="208" y="444" on="0"/>
        <pt x="281" y="444" on="1"/>
      </contour>
      <contour>
        <pt x="173" y="557" on="0"/>
        <pt x="173" y="595" on="0"/>
        <pt x="199" y="621" on="0"/>
        <pt x="237" y="621" on="0"/>
        <pt x="263" y="595" on="0"/>
        <pt x="263" y="557" on="0"/>
        <pt x="237" y="531" on="0"/>
        <pt x="199" y="531" on="0"/>
      </contour>
      <contour>
        <pt x="333" y="557" on="0"/>
        <pt x="333" y="595" on="0"/>
        <pt x="359" y="621" on="0"/>
        <pt x="397" y="621" on="0"/>
        <pt x="423" y="595" on="0"/>
        <pt x="423" y="557" on="0"/>
        <pt x="397" y="531" on="0"/>
        <pt x="359" y="531" on="0"/>
      </contour>
    </TTGlyph>
    <TTGlyph name="egrave" xMin="40" yMin="-12" xMax="387" yMax="639">
      <component glyphName="e" x="0" y="0" flags="0x1004"/>
      <component glyphName="grave" x="168" y="0" flags="0x1004"/>
    </TTGlyph>
    <TTGlyph name="eight" xMin="40" yMin="-12" xMax="450" yMax="579">
      <contour>
        <pt x="191" y="300" on="1"/>
        <pt x="126" y="325" on="0"/>
        <pt x="126" y="472" on="0"/>
        <pt x="240" y="579" on="0"/>
        <pt x="320" y="579" on="1"/>
        <pt x="381" y="579" on="0"/>
        <pt x="450" y="522" on="0"/>
        <pt x="450" y="408" on="0"/>
        <pt x="381" y="318" on="0"/>
        <pt x="327" y="301" on="1"/>
        <pt x="414" y="275" on="0"/>
        <pt x="414" y="97" on="0"/>
        <pt x="282" y="-12" on="0"/>
        <pt x="192" y="-12" on="1"/>
        <pt x="122" y="-12" on="0"/>
        <pt x="40" y="51" on="0"/>
        <pt x="40" y="174" on="0"/>
        <pt x="124" y="280" on="0"/>
      </contour>
      <contour>
        <pt x="259" y="289" on="1"/>
        <pt x="194" y="289" on="0"/>
        <pt x="114" y="170" on="0"/>
        <pt x="114" y="103" on="1"/>
        <pt x="114" y="59" on="0"/>
        <pt x="158" y="9" on="0"/>
        <pt x="195" y="9" on="1"/>
        <pt x="248" y="9" on="0"/>
        <pt x="342" y="113" on="0"/>
        <pt x="342" y="194" on="1"/>
        <pt x="342" y="239" on="0"/>
        <pt x="296" y="289" on="0"/>
      </contour>
      <contour>
        <pt x="316" y="557" on="1"/>
        <pt x="260" y="557" on="0"/>
        <pt x="192" y="449" on="0"/>
        <pt x="192" y="353" on="0"/>
        <pt x="230" y="311" on="0"/>
        <pt x="260" y="311" on="1"/>
        <pt x="305" y="311" on="0"/>
        <pt x="385" y="403" on="0"/>
        <pt x="385" y="476" on="1"/>
        <pt x="385" y="514" on="0"/>
        <pt x="347" y="557" on="0"/>
      </contour>
    </TTGlyph>
    <TTGlyph name="ellipsis" xMin="43" yMin="-12" xMax="533" yMax="94">
      <contour>
        <pt x="43" y="19" on="0"/>
        <pt x="43" y="63" on="0"/>
        <pt x="74" y="94" on="0"/>
        <pt x="118" y="94" on="0"/>
        <pt x="149" y="63" on="0"/>
        <pt x="149" y="19" on="0"/>
        <pt x="118" y="-12" on="0"/>
        <pt x="74" y="-12" on="0"/>
      </contour>
      <contour>
        <pt x="235" y="19" on="0"/>
        <pt x="235" y="63" on="0"/>
        <pt x="266" y="94" on="0"/>
        <pt x="310" y="94" on="0"/>
        <pt x="341" y="63" on="0"/>
        <pt x="341" y="19" on="0"/>
        <pt x="310" y="-12" on="0"/>
        <pt x="266" y="-12" on="0"/>
      </contour>
      <contour>
        <pt x="427" y="19" on="0"/>
        <pt x="427" y="63" on="0"/>
        <pt x="458" y="94" on="0"/>
        <pt x="502" y="94" on="0"/>
        <pt x="533" y="63" on="0"/>
        <pt x="533" y="19" on="0"/>
        <pt x="502" y="-12" on="0"/>
        <pt x="458" y="-12" on="0"/>
      </contour>
    </TTGlyph>
    <TTGlyph name="emdash" xMin="30" yMin="211" xMax="609" yMax="251">
      <contour>
        <pt x="30" y="211" on="1"/>
        <pt x="39" y="251" on="1"/>
        <pt x="609" y="251" on="1"/>
        <pt x="600" y="211" on="1"/>
      </contour>
    </TTGlyph>
    <TTGlyph name="endash" xMin="30" yMin="211" xMax="368" yMax="251">
      <contour>
        <pt x="30" y="211" on="1"/>
        <pt x="39" y="251" on="1"/>
        <pt x="368" y="251" on="1"/>
        <pt x="359" y="211" on="1"/>
      </contour>
    </TTGlyph>
    <TTGlyph name="equal" xMin="28" yMin="85" xMax="448" yMax="308">
      <contour>
        <pt x="437" y="255" on="1"/>
        <pt x="64" y="255" on="1"/>
        <pt x="75" y="308" on="1"/>
        <pt x="448" y="308" on="1"/>
      </contour>
      <contour>
        <pt x="401" y="85" on="1"/>
        <pt x="28" y="85" on="1"/>
        <pt x="39" y="138" on="1"/>
        <pt x="412" y="138" on="1"/>
      </contour>
    </TTGlyph>
    <TTGlyph name="eth" xMin="45" yMin="-12" xMax="470" yMax="660">
      <contour>
        <pt x="382" y="373" on="1"/>
        <pt x="385" y="374" on="1"/>
        <pt x="374" y="566" on="0"/>
        <pt x="224" y="637" on="1"/>
        <pt x="235" y="660" on="1"/>
        <pt x="330" y="626" on="0"/>
        <pt x="430" y="436" on="0"/>
        <pt x="430" y="186" on="0"/>
        <pt x="304" y="-12" on="0"/>
        <pt x="197" y="-12" on="1"/>
        <pt x="127" y="-12" on="0"/>
        <pt x="45" y="72" on="0"/>
        <pt x="45" y="148" on="1"/>
        <pt x="45" y="271" on="0"/>
        <pt x="194" y="437" on="0"/>
        <pt x="349" y="437" on="0"/>
      </contour>
      <contour>
        <pt x="362" y="344" on="0"/>
        <pt x="317" y="409" on="0"/>
        <pt x="239" y="409" on="0"/>
        <pt x="170" y="352" on="0"/>
        <pt x="150" y="309" on="1"/>
        <pt x="108" y="219" on="0"/>
        <pt x="108" y="76" on="0"/>
        <pt x="156" y="10" on="0"/>
        <pt x="247" y="10" on="0"/>
        <pt x="327" y="110" on="0"/>
        <pt x="362" y="233" on="0"/>
      </contour>
      <contour>
        <pt x="238" y="488" on="1"/>
        <pt x="223" y="521" on="1"/>
        <pt x="455" y="633" on="1"/>
        <pt x="470" y="600" on="1"/>
      </contour>
    </TTGlyph>
    <TTGlyph name="exclam" xMin="45" yMin="-12" xMax="257" yMax="642">
      <contour>
        <pt x="130" y="170" on="1"/>
        <pt x="106" y="170" on="1"/>
        <pt x="149" y="465" on="0"/>
        <pt x="165" y="583" on="1"/>
        <pt x="169" y="610" on="0"/>
        <pt x="202" y="642" on="0"/>
        <pt x="223" y="642" on="1"/>
        <pt x="257" y="642" on="0"/>
        <pt x="257" y="605" on="1"/>
        <pt x="257" y="584" on="0"/>
        <pt x="213" y="443" on="0"/>
        <pt x="147" y="238" on="0"/>
      </contour>
      <contour>
        <pt x="45" y="16" on="0"/>
        <pt x="45" y="56" on="0"/>
        <pt x="74" y="84" on="0"/>
        <pt x="112" y="84" on="0"/>
        <pt x="141" y="56" on="0"/>
        <pt x="141" y="16" on="0"/>
        <pt x="112" y="-12" on="0"/>
        <pt x="74" y="-12" on="0"/>
      </contour>
    </TTGlyph>
    <TTGlyph name="exclamdown" xMin="3" yMin="-210" xMax="215" yMax="444">
      <contour>
        <pt x="130" y="262" on="1"/>
        <pt x="154" y="262" on="1"/>
        <pt x="111" y="-33" on="0"/>
        <pt x="95" y="-151" on="1"/>
        <pt x="91" y="-178" on="0"/>
        <pt x="58" y="-210" on="0"/>
        <pt x="37" y="-210" on="1"/>
        <pt x="3" y="-210" on="0"/>
        <pt x="3" y="-173" on="1"/>
        <pt x="3" y="-152" on="0"/>
        <pt x="47" y="-11" on="0"/>
        <pt x="113" y="194" on="0"/>
      </contour>
      <contour>
        <pt x="215" y="416" on="0"/>
        <pt x="215" y="376" on="0"/>
        <pt x="186" y="348" on="0"/>
        <pt x="148" y="348" on="0"/>
        <pt x="119" y="376" on="0"/>
        <pt x="119" y="416" on="0"/>
        <pt x="148" y="444" on="0"/>
        <pt x="186" y="444" on="0"/>
      </contour>
    </TTGlyph>
    <TTGlyph name="f" xMin="-125" yMin="-228" xMax="440" yMax="660">
      <contour>
        <pt x="52" y="396" on="1"/>
        <pt x="57" y="415" on="1"/>
        <pt x="309" y="415" on="1"/>
        <pt x="304" y="396" on="1"/>
      </contour>
      <contour>
        <pt x="222" y="471" on="1"/>
        <pt x="128" y="32" on="1"/>
        <pt x="99" y="-100" on="0"/>
        <pt x="15" y="-228" on="0"/>
        <pt x="-45" y="-228" on="1"/>
        <pt x="-83" y="-228" on="0"/>
        <pt x="-125" y="-182" on="0"/>
        <pt x="-125" y="-125" on="0"/>
        <pt x="-102" y="-80" on="0"/>
        <pt x="-52" y="-80" on="0"/>
        <pt x="-41" y="-93" on="1"/>
        <pt x="-54" y="-103" on="0"/>
        <pt x="-71" y="-143" on="0"/>
        <pt x="-71" y="-162" on="1"/>
        <pt x="-71" y="-205" on="0"/>
        <pt x="-35" y="-205" on="1"/>
        <pt x="5" y="-205" on="0"/>
        <pt x="47" y="-81" on="0"/>
        <pt x="84" y="106" on="1"/>
        <pt x="142" y="402" on="1"/>
        <pt x="163" y="508" on="0"/>
        <pt x="269" y="660" on="0"/>
        <pt x="339" y="660" on="1"/>
        <pt x="389" y="660" on="0"/>
        <pt x="440" y="614" on="0"/>
        <pt x="440" y="552" on="0"/>
        <pt x="415" y="502" on="0"/>
        <pt x="361" y="502" on="0"/>
        <pt x="349" y="516" on="1"/>
        <pt x="378" y="553" on="0"/>
        <pt x="378" y="591" on="1"/>
        <pt x="378" y="637" on="0"/>
        <pt x="291" y="637" on="0"/>
        <pt x="239" y="550" on="0"/>
      </contour>
    </TTGlyph>
    <TTGlyph name="ff" xMin="-125" yMin="-228" xMax="680" yMax="660">
      <contour>
        <pt x="38" y="396" on="1"/>
        <pt x="43" y="415" on="1"/>
        <pt x="144" y="415" on="1"/>
        <pt x="167" y="519" on="0"/>
        <pt x="271" y="660" on="0"/>
        <pt x="348" y="660" on="1"/>
        <pt x="439" y="660" on="0"/>
        <pt x="479" y="611" on="1"/>
        <pt x="525" y="660" on="0"/>
        <pt x="629" y="660" on="0"/>
        <pt x="680" y="614" on="0"/>
        <pt x="680" y="552" on="0"/>
        <pt x="655" y="502" on="0"/>
        <pt x="601" y="502" on="0"/>
        <pt x="589" y="516" on="1"/>
        <pt x="618" y="553" on="0"/>
        <pt x="618" y="591" on="1"/>
        <pt x="618" y="637" on="0"/>
        <pt x="531" y="637" on="0"/>
        <pt x="479" y="550" on="0"/>
        <pt x="462" y="471" on="1"/>
        <pt x="450" y="415" on="1"/>
        <pt x="549" y="415" on="1"/>
        <pt x="544" y="396" on="1"/>
        <pt x="446" y="396" on="1"/>
        <pt x="368" y="32" on="1"/>
        <pt x="339" y="-100" on="0"/>
        <pt x="255" y="-228" on="0"/>
        <pt x="195" y="-228" on="1"/>
        <pt x="157" y="-228" on="0"/>
        <pt x="115" y="-182" on="0"/>
        <pt x="115" y="-125" on="0"/>
        <pt x="138" y="-80" on="0"/>
        <pt x="188" y="-80" on="0"/>
        <pt x="199" y="-93" on="1"/>
        <pt x="186" y="-103" on="0"/>
        <pt x="169" y="-143" on="0"/>
        <pt x="169" y="-162" on="1"/>
        <pt x="169" y="-205" on="0"/>
        <pt x="205" y="-205" on="1"/>
        <pt x="245" y="-205" on="0"/>
        <pt x="287" y="-81" on="0"/>
        <pt x="324" y="106" on="1"/>
        <pt x="381" y="396" on="1"/>
        <pt x="206" y="396" on="1"/>
        <pt x="128" y="32" on="1"/>
        <pt x="73" y="-228" on="0"/>
        <pt x="-45" y="-228" on="1"/>
        <pt x="-83" y="-228" on="0"/>
        <pt x="-125" y="-182" on="0"/>
        <pt x="-125" y="-125" on="0"/>
        <pt x="-102" y="-80" on="0"/>
        <pt x="-52" y="-80" on="0"/>
        <pt x="-41" y="-93" on="1"/>
        <pt x="-54" y="-103" on="0"/>
        <pt x="-71" y="-143" on="0"/>
        <pt x="-71" y="-162" on="1"/>
        <pt x="-71" y="-205" on="0"/>
        <pt x="-35" y="-205" on="1"/>
        <pt x="5" y="-205" on="0"/>
        <pt x="48" y="-77" on="0"/>
        <pt x="84" y="106" on="1"/>
        <pt x="141" y="396" on="1"/>
      </contour>
      <contour>
        <pt x="222" y="471" on="1"/>
        <pt x="210" y="415" on="1"/>
        <pt x="384" y="415" on="1"/>
        <pt x="402" y="491" on="0"/>
        <pt x="439" y="560" on="1"/>
        <pt x="438" y="593" on="0"/>
        <pt x="390" y="637" on="0"/>
        <pt x="296" y="637" on="0"/>
        <pt x="239" y="551" on="0"/>
      </contour>
    </TTGlyph>
    <TTGlyph name="ffi" xMin="-125" yMin="-228" xMax="734" yMax="660">
      <contour>
        <pt x="222" y="471" on="1"/>
        <pt x="210" y="415" on="1"/>
        <pt x="384" y="415" on="1"/>
        <pt x="402" y="491" on="0"/>
        <pt x="439" y="560" on="1"/>
        <pt x="438" y="593" on="0"/>
        <pt x="390" y="637" on="0"/>
        <pt x="296" y="637" on="0"/>
        <pt x="239" y="551" on="0"/>
      </contour>
      <contour>
        <pt x="450" y="415" on="1"/>
        <pt x="549" y="415" on="1"/>
        <pt x="634" y="415" on="0"/>
        <pt x="697" y="435" on="1"/>
        <pt x="711" y="425" on="1"/>
        <pt x="676" y="321" on="0"/>
        <pt x="614" y="83" on="0"/>
        <pt x="614" y="16" on="0"/>
        <pt x="639" y="16" on="1"/>
        <pt x="658" y="16" on="0"/>
        <pt x="702" y="67" on="0"/>
        <pt x="718" y="114" on="1"/>
        <pt x="734" y="110" on="1"/>
        <pt x="691" y="-12" on="0"/>
        <pt x="622" y="-12" on="1"/>
        <pt x="560" y="-12" on="0"/>
        <pt x="560" y="63" on="1"/>
        <pt x="560" y="114" on="0"/>
        <pt x="633" y="396" on="1"/>
        <pt x="446" y="396" on="1"/>
        <pt x="368" y="32" on="1"/>
        <pt x="339" y="-100" on="0"/>
        <pt x="255" y="-228" on="0"/>
        <pt x="195" y="-228" on="1"/>
        <pt x="157" y="-228" on="0"/>
        <pt x="115" y="-182" on="0"/>
        <pt x="115" y="-125" on="0"/>
        <pt x="138" y="-80" on="0"/>
        <pt x="188" y="-80" on="0"/>
        <pt x="199" y="-93" on="1"/>
        <pt x="186" y="-103" on="0"/>
        <pt x="169" y="-143" on="0"/>
        <pt x="169" y="-162" on="1"/>
        <pt x="169" y="-205" on="0"/>
        <pt x="205" y="-205" on="1"/>
        <pt x="245" y="-205" on="0"/>
        <pt x="287" y="-81" on="0"/>
        <pt x="324" y="106" on="1"/>
        <pt x="381" y="396" on="1"/>
        <pt x="206" y="396" on="1"/>
        <pt x="128" y="32" on="1"/>
        <pt x="73" y="-228" on="0"/>
        <pt x="-45" y="-228" on="1"/>
        <pt x="-83" y="-228" on="0"/>
        <pt x="-125" y="-182" on="0"/>
        <pt x="-125" y="-125" on="0"/>
        <pt x="-102" y="-80" on="0"/>
        <pt x="-52" y="-80" on="0"/>
        <pt x="-41" y="-93" on="1"/>
        <pt x="-54" y="-103" on="0"/>
        <pt x="-71" y="-143" on="0"/>
        <pt x="-71" y="-162" on="1"/>
        <pt x="-71" y="-205" on="0"/>
        <pt x="-35" y="-205" on="1"/>
        <pt x="5" y="-205" on="0"/>
        <pt x="48" y="-77" on="0"/>
        <pt x="84" y="106" on="1"/>
        <pt x="141" y="396" on="1"/>
        <pt x="52" y="396" on="1"/>
        <pt x="57" y="415" on="1"/>
        <pt x="144" y="415" on="1"/>
        <pt x="167" y="519" on="0"/>
        <pt x="271" y="660" on="0"/>
        <pt x="348" y="660" on="1"/>
        <pt x="439" y="660" on="0"/>
        <pt x="479" y="611" on="1"/>
        <pt x="525" y="660" on="0"/>
        <pt x="665" y="660" on="0"/>
        <pt x="730" y="597" on="0"/>
        <pt x="730" y="555" on="1"/>
        <pt x="730" y="533" on="0"/>
        <pt x="708" y="502" on="0"/>
        <pt x="662" y="502" on="0"/>
        <pt x="650" y="516" on="1"/>
        <pt x="666" y="544" on="0"/>
        <pt x="666" y="600" on="0"/>
        <pt x="626" y="637" on="0"/>
        <pt x="589" y="637" on="1"/>
        <pt x="536" y="637" on="0"/>
        <pt x="479" y="551" on="0"/>
        <pt x="462" y="471" on="1"/>
      </contour>
    </TTGlyph>
    <TTGlyph name="ffl" xMin="-125" yMin="-228" xMax="779" yMax="660">
      <contour>
        <pt x="222" y="471" on="1"/>
        <pt x="210" y="415" on="1"/>
        <pt x="384" y="415" on="1"/>
        <pt x="388" y="426" on="0"/>
        <pt x="402" y="475" on="0"/>
        <pt x="406" y="489" on="1"/>
        <pt x="419" y="528" on="0"/>
        <pt x="439" y="560" on="1"/>
        <pt x="438" y="593" on="0"/>
        <pt x="390" y="637" on="0"/>
        <pt x="296" y="637" on="0"/>
        <pt x="239" y="551" on="0"/>
      </contour>
      <contour>
        <pt x="680" y="557" on="1"/>
        <pt x="680" y="593" on="0"/>
        <pt x="637" y="637" on="0"/>
        <pt x="599" y="637" on="1"/>
        <pt x="497" y="637" on="0"/>
        <pt x="462" y="471" on="1"/>
        <pt x="450" y="415" on="1"/>
        <pt x="549" y="415" on="1"/>
        <pt x="544" y="396" on="1"/>
        <pt x="446" y="396" on="1"/>
        <pt x="368" y="32" on="1"/>
        <pt x="313" y="-228" on="0"/>
        <pt x="195" y="-228" on="1"/>
        <pt x="157" y="-228" on="0"/>
        <pt x="115" y="-182" on="0"/>
        <pt x="115" y="-125" on="0"/>
        <pt x="138" y="-80" on="0"/>
        <pt x="188" y="-80" on="0"/>
        <pt x="199" y="-93" on="1"/>
        <pt x="186" y="-103" on="0"/>
        <pt x="169" y="-143" on="0"/>
        <pt x="169" y="-162" on="1"/>
        <pt x="169" y="-205" on="0"/>
        <pt x="205" y="-205" on="1"/>
        <pt x="245" y="-205" on="0"/>
        <pt x="288" y="-77" on="0"/>
        <pt x="324" y="106" on="1"/>
        <pt x="381" y="396" on="1"/>
        <pt x="206" y="396" on="1"/>
        <pt x="128" y="32" on="1"/>
        <pt x="73" y="-228" on="0"/>
        <pt x="-45" y="-228" on="1"/>
        <pt x="-83" y="-228" on="0"/>
        <pt x="-125" y="-182" on="0"/>
        <pt x="-125" y="-125" on="0"/>
        <pt x="-102" y="-80" on="0"/>
        <pt x="-52" y="-80" on="0"/>
        <pt x="-41" y="-93" on="1"/>
        <pt x="-54" y="-103" on="0"/>
        <pt x="-71" y="-143" on="0"/>
        <pt x="-71" y="-162" on="1"/>
        <pt x="-71" y="-205" on="0"/>
        <pt x="-35" y="-205" on="1"/>
        <pt x="5" y="-205" on="0"/>
        <pt x="48" y="-77" on="0"/>
        <pt x="84" y="106" on="1"/>
        <pt x="141" y="396" on="1"/>
        <pt x="52" y="396" on="1"/>
        <pt x="57" y="415" on="1"/>
        <pt x="144" y="415" on="1"/>
        <pt x="167" y="519" on="0"/>
        <pt x="271" y="660" on="0"/>
        <pt x="348" y="660" on="1"/>
        <pt x="439" y="660" on="0"/>
        <pt x="479" y="611" on="1"/>
        <pt x="530" y="660" on="0"/>
        <pt x="598" y="660" on="1"/>
        <pt x="684" y="660" on="0"/>
        <pt x="720" y="608" on="1"/>
        <pt x="765" y="657" on="1"/>
        <pt x="779" y="647" on="1"/>
        <pt x="737" y="524" on="0"/>
        <pt x="624" y="103" on="0"/>
        <pt x="624" y="49" on="1"/>
        <pt x="624" y="16" on="0"/>
        <pt x="649" y="16" on="1"/>
        <pt x="668" y="16" on="0"/>
        <pt x="712" y="67" on="0"/>
        <pt x="728" y="114" on="1"/>
        <pt x="744" y="110" on="1"/>
        <pt x="701" y="-12" on="0"/>
        <pt x="632" y="-12" on="1"/>
        <pt x="570" y="-12" on="0"/>
        <pt x="570" y="63" on="1"/>
        <pt x="570" y="106" on="0"/>
        <pt x="680" y="545" on="0"/>
      </contour>
    </TTGlyph>
    <TTGlyph name="fi" xMin="-125" yMin="-228" xMax="494" yMax="660">
      <contour>
        <pt x="163" y="511" on="0"/>
        <pt x="268" y="660" on="0"/>
        <pt x="425" y="660" on="0"/>
        <pt x="490" y="597" on="0"/>
        <pt x="490" y="555" on="1"/>
        <pt x="490" y="533" on="0"/>
        <pt x="468" y="502" on="0"/>
        <pt x="422" y="502" on="0"/>
        <pt x="410" y="516" on="1"/>
        <pt x="426" y="544" on="0"/>
        <pt x="426" y="600" on="0"/>
        <pt x="386" y="637" on="0"/>
        <pt x="349" y="637" on="1"/>
        <pt x="296" y="637" on="0"/>
        <pt x="239" y="551" on="0"/>
        <pt x="222" y="471" on="1"/>
        <pt x="128" y="32" on="1"/>
        <pt x="73" y="-228" on="0"/>
        <pt x="-45" y="-228" on="1"/>
        <pt x="-83" y="-228" on="0"/>
        <pt x="-125" y="-182" on="0"/>
        <pt x="-125" y="-125" on="0"/>
        <pt x="-102" y="-80" on="0"/>
        <pt x="-52" y="-80" on="0"/>
        <pt x="-41" y="-93" on="1"/>
        <pt x="-54" y="-103" on="0"/>
        <pt x="-71" y="-143" on="0"/>
        <pt x="-71" y="-162" on="1"/>
        <pt x="-71" y="-205" on="0"/>
        <pt x="-35" y="-205" on="1"/>
        <pt x="5" y="-205" on="0"/>
        <pt x="48" y="-77" on="0"/>
        <pt x="84" y="106" on="1"/>
        <pt x="142" y="402" on="1"/>
      </contour>
      <contour>
        <pt x="393" y="396" on="1"/>
        <pt x="52" y="396" on="1"/>
        <pt x="57" y="415" on="1"/>
        <pt x="309" y="415" on="1"/>
        <pt x="394" y="415" on="0"/>
        <pt x="457" y="435" on="1"/>
        <pt x="471" y="425" on="1"/>
        <pt x="436" y="321" on="0"/>
        <pt x="374" y="83" on="0"/>
        <pt x="374" y="16" on="0"/>
        <pt x="399" y="16" on="1"/>
        <pt x="418" y="16" on="0"/>
        <pt x="462" y="67" on="0"/>
        <pt x="478" y="114" on="1"/>
        <pt x="494" y="110" on="1"/>
        <pt x="451" y="-12" on="0"/>
        <pt x="382" y="-12" on="1"/>
        <pt x="320" y="-12" on="0"/>
        <pt x="320" y="63" on="1"/>
        <pt x="320" y="114" on="0"/>
      </contour>
    </TTGlyph>
    <TTGlyph name="five" xMin="45" yMin="-12" xMax="458" yMax="609">
      <contour>
        <pt x="113" y="288" on="1"/>
        <pt x="183" y="566" on="1"/>
        <pt x="401" y="566" on="1"/>
        <pt x="426" y="566" on="0"/>
        <pt x="432" y="589" on="1"/>
        <pt x="438" y="609" on="1"/>
        <pt x="458" y="609" on="1"/>
        <pt x="449" y="575" on="1"/>
        <pt x="436" y="526" on="0"/>
        <pt x="403" y="504" on="0"/>
        <pt x="357" y="504" on="1"/>
        <pt x="197" y="504" on="1"/>
        <pt x="150" y="321" on="1"/>
        <pt x="205" y="331" on="0"/>
        <pt x="236" y="331" on="1"/>
        <pt x="322" y="331" on="0"/>
        <pt x="412" y="249" on="0"/>
        <pt x="412" y="189" on="1"/>
        <pt x="412" y="111" on="0"/>
        <pt x="279" y="-12" on="0"/>
        <pt x="172" y="-12" on="1"/>
        <pt x="109" y="-12" on="0"/>
        <pt x="45" y="41" on="0"/>
        <pt x="45" y="117" on="0"/>
        <pt x="69" y="168" on="0"/>
        <pt x="119" y="168" on="0"/>
        <pt x="133" y="152" on="1"/>
        <pt x="108" y="115" on="0"/>
        <pt x="108" y="72" on="1"/>
        <pt x="108" y="9" on="0"/>
        <pt x="249" y="9" on="0"/>
        <pt x="338" y="118" on="0"/>
        <pt x="338" y="243" on="0"/>
        <pt x="264" y="302" on="0"/>
        <pt x="158" y="302" on="0"/>
      </contour>
    </TTGlyph>
    <TTGlyph name="fl" xMin="-125" yMin="-228" xMax="539" yMax="660">
      <contour>
        <pt x="384" y="49" on="1"/>
        <pt x="384" y="16" on="0"/>
        <pt x="409" y="16" on="1"/>
        <pt x="428" y="16" on="0"/>
        <pt x="472" y="67" on="0"/>
        <pt x="488" y="114" on="1"/>
        <pt x="504" y="110" on="1"/>
        <pt x="461" y="-12" on="0"/>
        <pt x="392" y="-12" on="1"/>
        <pt x="330" y="-12" on="0"/>
        <pt x="330" y="63" on="1"/>
        <pt x="330" y="106" on="0"/>
        <pt x="440" y="545" on="0"/>
        <pt x="440" y="557" on="1"/>
        <pt x="440" y="593" on="0"/>
        <pt x="397" y="637" on="0"/>
        <pt x="359" y="637" on="1"/>
        <pt x="257" y="637" on="0"/>
        <pt x="222" y="471" on="1"/>
        <pt x="210" y="415" on="1"/>
        <pt x="309" y="415" on="1"/>
        <pt x="304" y="396" on="1"/>
        <pt x="206" y="396" on="1"/>
        <pt x="128" y="32" on="1"/>
        <pt x="73" y="-228" on="0"/>
        <pt x="-45" y="-228" on="1"/>
        <pt x="-83" y="-228" on="0"/>
        <pt x="-125" y="-182" on="0"/>
        <pt x="-125" y="-125" on="0"/>
        <pt x="-102" y="-80" on="0"/>
        <pt x="-52" y="-80" on="0"/>
        <pt x="-41" y="-93" on="1"/>
        <pt x="-54" y="-103" on="0"/>
        <pt x="-71" y="-143" on="0"/>
        <pt x="-71" y="-162" on="1"/>
        <pt x="-71" y="-205" on="0"/>
        <pt x="-35" y="-205" on="1"/>
        <pt x="5" y="-205" on="0"/>
        <pt x="48" y="-77" on="0"/>
        <pt x="84" y="106" on="1"/>
        <pt x="141" y="396" on="1"/>
        <pt x="52" y="396" on="1"/>
        <pt x="57" y="415" on="1"/>
        <pt x="144" y="415" on="1"/>
        <pt x="168" y="528" on="0"/>
        <pt x="277" y="660" on="0"/>
        <pt x="444" y="660" on="0"/>
        <pt x="480" y="608" on="1"/>
        <pt x="525" y="657" on="1"/>
        <pt x="539" y="647" on="1"/>
        <pt x="497" y="524" on="0"/>
        <pt x="384" y="103" on="0"/>
      </contour>
    </TTGlyph>
    <TTGlyph name="florin" xMin="-15" yMin="-222" xMax="441" yMax="579">
      <contour>
        <pt x="232" y="390" on="1"/>
        <pt x="213" y="278" on="1"/>
        <pt x="340" y="278" on="1"/>
        <pt x="335" y="247" on="1"/>
        <pt x="209" y="247" on="1"/>
        <pt x="154" y="-87" on="1"/>
        <pt x="143" y="-152" on="0"/>
        <pt x="71" y="-213" on="0"/>
        <pt x="-15" y="-222" on="1"/>
        <pt x="-15" y="-198" on="1"/>
        <pt x="73" y="-180" on="0"/>
        <pt x="85" y="-105" on="1"/>
        <pt x="85" y="-105" on="0"/>
        <pt x="141" y="247" on="1"/>
        <pt x="55" y="247" on="1"/>
        <pt x="60" y="278" on="1"/>
        <pt x="146" y="278" on="1"/>
        <pt x="203" y="579" on="0"/>
        <pt x="342" y="579" on="1"/>
        <pt x="391" y="579" on="0"/>
        <pt x="441" y="533" on="0"/>
        <pt x="441" y="464" on="0"/>
        <pt x="411" y="407" on="0"/>
        <pt x="361" y="407" on="0"/>
        <pt x="350" y="422" on="1"/>
        <pt x="375" y="467" on="0"/>
        <pt x="375" y="503" on="1"/>
        <pt x="375" y="554" on="0"/>
        <pt x="338" y="554" on="1"/>
        <pt x="293" y="554" on="0"/>
        <pt x="245" y="469" on="0"/>
      </contour>
    </TTGlyph>
    <TTGlyph name="four" xMin="-35" yMin="0" xMax="398" yMax="579">
      <contour>
        <pt x="344" y="134" on="1"/>
        <pt x="296" y="134" on="1"/>
        <pt x="274" y="29" on="1"/>
        <pt x="274" y="19" on="0"/>
        <pt x="285" y="19" on="1"/>
        <pt x="351" y="19" on="1"/>
        <pt x="348" y="0" on="1"/>
        <pt x="119" y="0" on="1"/>
        <pt x="122" y="19" on="1"/>
        <pt x="187" y="19" on="1"/>
        <pt x="200" y="19" on="0"/>
        <pt x="205" y="33" on="1"/>
        <pt x="226" y="134" on="1"/>
        <pt x="-35" y="134" on="1"/>
        <pt x="364" y="579" on="1"/>
        <pt x="395" y="579" on="1"/>
        <pt x="303" y="163" on="1"/>
        <pt x="351" y="163" on="1"/>
        <pt x="366" y="163" on="0"/>
        <pt x="368" y="177" on="1"/>
        <pt x="381" y="226" on="1"/>
        <pt x="398" y="226" on="1"/>
        <pt x="363" y="71" on="1"/>
        <pt x="346" y="71" on="1"/>
        <pt x="356" y="120" on="0"/>
        <pt x="356" y="123" on="1"/>
        <pt x="356" y="134" on="0"/>
      </contour>
      <contour>
        <pt x="22" y="163" on="1"/>
        <pt x="233" y="163" on="1"/>
        <pt x="301" y="471" on="1"/>
      </contour>
    </TTGlyph>
    <TTGlyph name="fraction" xMin="19" yMin="-74" xMax="300" yMax="648">
      <contour>
        <pt x="50" y="-74" on="1"/>
        <pt x="19" y="-74" on="1"/>
        <pt x="268" y="648" on="1"/>
        <pt x="300" y="648" on="1"/>
      </contour>
    </TTGlyph>
    <TTGlyph name="g" xMin="-24" yMin="-228" xMax="396" yMax="569">
      <contour>
        <pt x="111" y="58" on="1"/>
        <pt x="270" y="22" on="1"/>
        <pt x="322" y="10" on="0"/>
        <pt x="366" y="-31" on="0"/>
        <pt x="366" y="-67" on="1"/>
        <pt x="366" y="-125" on="0"/>
        <pt x="239" y="-228" on="0"/>
        <pt x="77" y="-228" on="0"/>
        <pt x="-24" y="-154" on="0"/>
        <pt x="-24" y="-103" on="1"/>
        <pt x="-24" y="-68" on="0"/>
        <pt x="23" y="-4" on="0"/>
        <pt x="69" y="18" on="1"/>
        <pt x="89" y="12" on="1"/>
        <pt x="59" y="-3" on="0"/>
        <pt x="27" y="-64" on="0"/>
        <pt x="27" y="-98" on="1"/>
        <pt x="27" y="-154" on="0"/>
        <pt x="101" y="-209" on="0"/>
        <pt x="218" y="-209" on="0"/>
        <pt x="317" y="-142" on="0"/>
        <pt x="317" y="-48" on="0"/>
        <pt x="256" y="-34" on="1"/>
        <pt x="84" y="4" on="1"/>
        <pt x="55" y="10" on="0"/>
        <pt x="23" y="52" on="0"/>
        <pt x="23" y="112" on="0"/>
        <pt x="73" y="162" on="0"/>
        <pt x="117" y="162" on="1"/>
        <pt x="218" y="162" on="1"/>
        <pt x="215" y="148" on="1"/>
        <pt x="117" y="148" on="1"/>
        <pt x="96" y="148" on="0"/>
        <pt x="71" y="122" on="0"/>
        <pt x="71" y="104" on="1"/>
        <pt x="71" y="67" on="0"/>
      </contour>
      <contour>
        <pt x="279" y="430" on="1"/>
        <pt x="278" y="444" on="1"/>
        <pt x="306" y="444" on="0"/>
        <pt x="344" y="471" on="0"/>
        <pt x="344" y="515" on="0"/>
        <pt x="312" y="535" on="1"/>
        <pt x="328" y="569" on="0"/>
        <pt x="373" y="569" on="0"/>
        <pt x="396" y="543" on="0"/>
        <pt x="396" y="523" on="1"/>
        <pt x="396" y="488" on="0"/>
        <pt x="333" y="430" on="0"/>
      </contour>
      <contour>
        <pt x="96" y="257" on="1"/>
        <pt x="96" y="331" on="0"/>
        <pt x="201" y="444" on="0"/>
        <pt x="278" y="444" on="1"/>
        <pt x="332" y="444" on="0"/>
        <pt x="395" y="387" on="0"/>
        <pt x="395" y="335" on="1"/>
        <pt x="395" y="251" on="0"/>
        <pt x="287" y="148" on="0"/>
        <pt x="215" y="148" on="1"/>
        <pt x="160" y="148" on="0"/>
        <pt x="96" y="205" on="0"/>
      </contour>
      <contour>
        <pt x="277" y="425" on="1"/>
        <pt x="222" y="425" on="0"/>
        <pt x="152" y="304" on="0"/>
        <pt x="152" y="210" on="0"/>
        <pt x="187" y="167" on="0"/>
        <pt x="216" y="167" on="1"/>
        <pt x="260" y="167" on="0"/>
        <pt x="340" y="267" on="0"/>
        <pt x="340" y="343" on="1"/>
        <pt x="340" y="381" on="0"/>
        <pt x="305" y="425" on="0"/>
      </contour>
    </TTGlyph>
    <TTGlyph name="germandbls" xMin="-125" yMin="-228" xMax="498" yMax="660">
      <contour>
        <pt x="405" y="457" on="0"/>
        <pt x="441" y="523" on="0"/>
        <pt x="441" y="592" on="0"/>
        <pt x="397" y="637" on="0"/>
        <pt x="359" y="637" on="1"/>
        <pt x="257" y="637" on="0"/>
        <pt x="222" y="471" on="1"/>
        <pt x="128" y="32" on="1"/>
        <pt x="73" y="-228" on="0"/>
        <pt x="-45" y="-228" on="1"/>
        <pt x="-83" y="-228" on="0"/>
        <pt x="-125" y="-182" on="0"/>
        <pt x="-125" y="-125" on="0"/>
        <pt x="-102" y="-80" on="0"/>
        <pt x="-52" y="-80" on="0"/>
        <pt x="-41" y="-93" on="1"/>
        <pt x="-54" y="-103" on="0"/>
        <pt x="-71" y="-143" on="0"/>
        <pt x="-71" y="-162" on="1"/>
        <pt x="-71" y="-205" on="0"/>
        <pt x="-35" y="-205" on="1"/>
        <pt x="5" y="-205" on="0"/>
        <pt x="48" y="-77" on="0"/>
        <pt x="84" y="106" on="1"/>
        <pt x="142" y="402" on="1"/>
        <pt x="165" y="520" on="0"/>
        <pt x="275" y="660" on="0"/>
        <pt x="434" y="660" on="0"/>
        <pt x="498" y="597" on="0"/>
        <pt x="498" y="521" on="0"/>
        <pt x="443" y="444" on="0"/>
        <pt x="377" y="389" on="0"/>
        <pt x="322" y="327" on="0"/>
        <pt x="322" y="283" on="0"/>
        <pt x="356" y="254" on="1"/>
        <pt x="401" y="216" on="1"/>
        <pt x="447" y="177" on="0"/>
        <pt x="447" y="137" on="1"/>
        <pt x="447" y="83" on="0"/>
        <pt x="353" y="-12" on="0"/>
        <pt x="282" y="-12" on="1"/>
        <pt x="239" y="-12" on="0"/>
        <pt x="184" y="27" on="0"/>
        <pt x="184" y="93" on="0"/>
        <pt x="208" y="138" on="0"/>
        <pt x="253" y="138" on="0"/>
        <pt x="262" y="124" on="1"/>
        <pt x="238" y="83" on="0"/>
        <pt x="238" y="54" on="1"/>
        <pt x="238" y="10" on="0"/>
        <pt x="287" y="10" on="1"/>
        <pt x="327" y="10" on="0"/>
        <pt x="390" y="67" on="0"/>
        <pt x="390" y="126" on="0"/>
        <pt x="354" y="157" on="1"/>
        <pt x="296" y="206" on="1"/>
        <pt x="264" y="233" on="0"/>
        <pt x="264" y="291" on="0"/>
        <pt x="300" y="350" on="0"/>
        <pt x="352" y="403" on="0"/>
      </contour>
      <contour>
        <pt x="52" y="396" on="1"/>
        <pt x="57" y="415" on="1"/>
        <pt x="204" y="415" on="1"/>
        <pt x="199" y="396" on="1"/>
      </contour>
    </TTGlyph>
    <TTGlyph name="grave" xMin="31" yMin="489" xMax="202" yMax="639">
      <contour>
        <pt x="189" y="489" on="1"/>
        <pt x="58" y="566" on="1"/>
        <pt x="31" y="581" on="0"/>
        <pt x="31" y="606" on="1"/>
        <pt x="31" y="620" on="0"/>
        <pt x="47" y="639" on="0"/>
        <pt x="78" y="639" on="0"/>
        <pt x="91" y="625" on="1"/>
        <pt x="202" y="505" on="1"/>
      </contour>
    </TTGlyph>
    <TTGlyph name="greater" xMin="56" yMin="88" xMax="479" yMax="505">
      <contour>
        <pt x="68" y="143" on="1"/>
        <pt x="418" y="296" on="1"/>
        <pt x="133" y="450" on="1"/>
        <pt x="145" y="505" on="1"/>
        <pt x="479" y="323" on="1"/>
        <pt x="468" y="270" on="1"/>
        <pt x="56" y="88" on="1"/>
      </contour>
    </TTGlyph>
    <TTGlyph name="greaterequal" xMin="22" yMin="-79" xMax="479" yMax="505">
      <contour>
        <pt x="68" y="143" on="1"/>
        <pt x="418" y="296" on="1"/>
        <pt x="133" y="450" on="1"/>
        <pt x="145" y="505" on="1"/>
        <pt x="479" y="323" on="1"/>
        <pt x="468" y="270" on="1"/>
        <pt x="56" y="88" on="1"/>
      </contour>
      <contour>
        <pt x="395" y="-79" on="1"/>
        <pt x="22" y="-79" on="1"/>
        <pt x="33" y="-26" on="1"/>
        <pt x="406" y="-26" on="1"/>
      </contour>
    </TTGlyph>
    <TTGlyph name="guillemotleft" xMin="33" yMin="54" xMax="378" yMax="408">
      <contour>
        <pt x="175" y="225" on="1"/>
        <pt x="178" y="237" on="1"/>
        <pt x="366" y="408" on="1"/>
        <pt x="378" y="394" on="1"/>
        <pt x="255" y="231" on="1"/>
        <pt x="309" y="68" on="1"/>
        <pt x="291" y="54" on="1"/>
      </contour>
      <contour>
        <pt x="33" y="225" on="1"/>
        <pt x="36" y="237" on="1"/>
        <pt x="224" y="408" on="1"/>
        <pt x="237" y="394" on="1"/>
        <pt x="113" y="231" on="1"/>
        <pt x="168" y="68" on="1"/>
        <pt x="149" y="54" on="1"/>
      </contour>
    </TTGlyph>
    <TTGlyph name="guillemotright" xMin="16" yMin="54" xMax="361" yMax="408">
      <contour>
        <pt x="219" y="237" on="1"/>
        <pt x="216" y="225" on="1"/>
        <pt x="28" y="54" on="1"/>
        <pt x="16" y="68" on="1"/>
        <pt x="140" y="231" on="1"/>
        <pt x="85" y="394" on="1"/>
        <pt x="103" y="408" on="1"/>
      </contour>
      <contour>
        <pt x="361" y="237" on="1"/>
        <pt x="358" y="225" on="1"/>
        <pt x="170" y="54" on="1"/>
        <pt x="158" y="68" on="1"/>
        <pt x="282" y="231" on="1"/>
        <pt x="227" y="394" on="1"/>
        <pt x="245" y="408" on="1"/>
      </contour>
    </TTGlyph>
    <TTGlyph name="guilsinglleft" xMin="30" yMin="54" xMax="234" yMax="408">
      <contour>
        <pt x="30" y="225" on="1"/>
        <pt x="33" y="237" on="1"/>
        <pt x="221" y="408" on="1"/>
        <pt x="234" y="394" on="1"/>
        <pt x="110" y="231" on="1"/>
        <pt x="165" y="68" on="1"/>
        <pt x="146" y="54" on="1"/>
      </contour>
    </TTGlyph>
    <TTGlyph name="guilsinglright" xMin="12" yMin="54" xMax="215" yMax="408">
      <contour>
        <pt x="215" y="237" on="1"/>
        <pt x="212" y="225" on="1"/>
        <pt x="24" y="54" on="1"/>
        <pt x="12" y="68" on="1"/>
        <pt x="136" y="231" on="1"/>
        <pt x="81" y="394" on="1"/>
        <pt x="99" y="408" on="1"/>
      </contour>
    </TTGlyph>
    <TTGlyph name="h" xMin="37" yMin="-12" xMax="463" yMax="657">
      <contour>
        <pt x="107" y="0" on="1"/>
        <pt x="37" y="-6" on="1"/>
        <pt x="194" y="620" on="1"/>
        <pt x="130" y="615" on="1"/>
        <pt x="129" y="632" on="1"/>
        <pt x="198" y="641" on="0"/>
        <pt x="258" y="657" on="1"/>
        <pt x="272" y="647" on="1"/>
        <pt x="191" y="411" on="0"/>
        <pt x="129" y="172" on="1"/>
        <pt x="137" y="172" on="1"/>
        <pt x="153" y="216" on="1"/>
        <pt x="207" y="367" on="0"/>
        <pt x="270" y="412" on="1"/>
        <pt x="300" y="432" on="0"/>
        <pt x="339" y="444" on="0"/>
        <pt x="398" y="444" on="0"/>
        <pt x="440" y="396" on="0"/>
        <pt x="440" y="310" on="0"/>
        <pt x="343" y="80" on="0"/>
        <pt x="343" y="16" on="0"/>
        <pt x="368" y="16" on="1"/>
        <pt x="387" y="16" on="0"/>
        <pt x="431" y="67" on="0"/>
        <pt x="447" y="114" on="1"/>
        <pt x="463" y="110" on="1"/>
        <pt x="420" y="-12" on="0"/>
        <pt x="351" y="-12" on="1"/>
        <pt x="289" y="-12" on="0"/>
        <pt x="289" y="56" on="1"/>
        <pt x="289" y="85" on="0"/>
        <pt x="380" y="315" on="0"/>
        <pt x="380" y="348" on="1"/>
        <pt x="380" y="411" on="0"/>
        <pt x="334" y="411" on="1"/>
        <pt x="284" y="411" on="0"/>
        <pt x="226" y="330" on="1"/>
        <pt x="159" y="233" on="0"/>
      </contour>
    </TTGlyph>
    <TTGlyph name="hungarumlaut" xMin="30" yMin="489" xMax="345" yMax="639">
      <contour>
        <pt x="174" y="566" on="1"/>
        <pt x="43" y="489" on="1"/>
        <pt x="30" y="505" on="1"/>
        <pt x="141" y="625" on="1"/>
        <pt x="154" y="639" on="0"/>
        <pt x="185" y="639" on="0"/>
        <pt x="201" y="620" on="0"/>
        <pt x="201" y="606" on="1"/>
        <pt x="201" y="581" on="0"/>
      </contour>
      <contour>
        <pt x="318" y="566" on="1"/>
        <pt x="187" y="489" on="1"/>
        <pt x="174" y="505" on="1"/>
        <pt x="285" y="625" on="1"/>
        <pt x="298" y="639" on="0"/>
        <pt x="329" y="639" on="0"/>
        <pt x="345" y="620" on="0"/>
        <pt x="345" y="606" on="1"/>
        <pt x="345" y="581" on="0"/>
      </contour>
    </TTGlyph>
    <TTGlyph name="hyphen" xMin="30" yMin="211" xMax="279" yMax="251">
      <contour>
        <pt x="30" y="211" on="1"/>
        <pt x="39" y="251" on="1"/>
        <pt x="279" y="251" on="1"/>
        <pt x="270" y="211" on="1"/>
      </contour>
    </TTGlyph>
    <TTGlyph name="i" xMin="70" yMin="-12" xMax="260" yMax="621">
      <contour>
        <pt x="170" y="557" on="0"/>
        <pt x="170" y="595" on="0"/>
        <pt x="196" y="621" on="0"/>
        <pt x="234" y="621" on="0"/>
        <pt x="260" y="595" on="0"/>
        <pt x="260" y="557" on="0"/>
        <pt x="234" y="531" on="0"/>
        <pt x="196" y="531" on="0"/>
      </contour>
      <contour>
        <pt x="70" y="63" on="1"/>
        <pt x="70" y="116" on="0"/>
        <pt x="143" y="398" on="1"/>
        <pt x="79" y="393" on="1"/>
        <pt x="78" y="410" on="1"/>
        <pt x="147" y="419" on="0"/>
        <pt x="207" y="435" on="1"/>
        <pt x="221" y="425" on="1"/>
        <pt x="186" y="321" on="0"/>
        <pt x="124" y="83" on="0"/>
        <pt x="124" y="16" on="0"/>
        <pt x="149" y="16" on="1"/>
        <pt x="168" y="16" on="0"/>
        <pt x="212" y="67" on="0"/>
        <pt x="228" y="114" on="1"/>
        <pt x="244" y="110" on="1"/>
        <pt x="201" y="-12" on="0"/>
        <pt x="132" y="-12" on="1"/>
        <pt x="70" y="-12" on="0"/>
      </contour>
    </TTGlyph>
    <TTGlyph name="iacute" xMin="70" yMin="-12" xMax="290" yMax="639">
      <component glyphName="dotlessi" x="0" y="0" flags="0x1004"/>
      <component glyphName="acute" x="89" y="0" flags="0x1004"/>
    </TTGlyph>
    <TTGlyph name="icircumflex" xMin="70" yMin="-12" xMax="291" yMax="639">
      <component glyphName="dotlessi" x="0" y="0" flags="0x1004"/>
      <component glyphName="circumflex" x="60" y="0" flags="0x1004"/>
    </TTGlyph>
    <TTGlyph name="idieresis" xMin="70" yMin="-12" xMax="321" yMax="621">
      <component glyphName="dotlessi" x="0" y="0" flags="0x1004"/>
      <component glyphName="dieresis" x="41" y="0" flags="0x1004"/>
    </TTGlyph>
    <TTGlyph name="igrave" xMin="70" yMin="-12" xMax="276" yMax="639">
      <contour>
        <pt x="70" y="63" on="1"/>
        <pt x="70" y="116" on="0"/>
        <pt x="143" y="398" on="1"/>
        <pt x="79" y="393" on="1"/>
        <pt x="78" y="410" on="1"/>
        <pt x="147" y="419" on="0"/>
        <pt x="207" y="435" on="1"/>
        <pt x="221" y="425" on="1"/>
        <pt x="186" y="321" on="0"/>
        <pt x="124" y="83" on="0"/>
        <pt x="124" y="16" on="0"/>
        <pt x="149" y="16" on="1"/>
        <pt x="168" y="16" on="0"/>
        <pt x="212" y="67" on="0"/>
        <pt x="228" y="114" on="1"/>
        <pt x="244" y="110" on="1"/>
        <pt x="201" y="-12" on="0"/>
        <pt x="132" y="-12" on="1"/>
        <pt x="70" y="-12" on="0"/>
      </contour>
      <contour>
        <pt x="263" y="489" on="1"/>
        <pt x="132" y="566" on="1"/>
        <pt x="105" y="581" on="0"/>
        <pt x="105" y="606" on="1"/>
        <pt x="105" y="620" on="0"/>
        <pt x="121" y="639" on="0"/>
        <pt x="152" y="639" on="0"/>
        <pt x="165" y="625" on="1"/>
        <pt x="276" y="505" on="1"/>
      </contour>
    </TTGlyph>
    <TTGlyph name="infinity" xMin="48" yMin="134" xMax="660" yMax="438">
      <contour>
        <pt x="536" y="438" on="1"/>
        <pt x="598" y="438" on="0"/>
        <pt x="660" y="372" on="0"/>
        <pt x="660" y="321" on="1"/>
        <pt x="660" y="250" on="0"/>
        <pt x="555" y="134" on="0"/>
        <pt x="471" y="134" on="1"/>
        <pt x="420" y="134" on="0"/>
        <pt x="367" y="191" on="0"/>
        <pt x="350" y="243" on="1"/>
        <pt x="310" y="192" on="0"/>
        <pt x="228" y="134" on="0"/>
        <pt x="112" y="134" on="0"/>
        <pt x="48" y="200" on="0"/>
        <pt x="48" y="251" on="1"/>
        <pt x="48" y="321" on="0"/>
        <pt x="155" y="438" on="0"/>
        <pt x="239" y="438" on="1"/>
        <pt x="289" y="438" on="0"/>
        <pt x="342" y="380" on="0"/>
        <pt x="359" y="328" on="1"/>
        <pt x="443" y="438" on="0"/>
      </contour>
      <contour>
        <pt x="603" y="367" on="0"/>
        <pt x="565" y="412" on="0"/>
        <pt x="507" y="412" on="0"/>
        <pt x="466" y="392" on="0"/>
        <pt x="444" y="368" on="1"/>
        <pt x="408" y="326" on="0"/>
        <pt x="374" y="275" on="1"/>
        <pt x="399" y="186" on="0"/>
        <pt x="436" y="167" on="1"/>
        <pt x="453" y="158" on="0"/>
        <pt x="476" y="158" on="1"/>
        <pt x="525" y="158" on="0"/>
        <pt x="603" y="259" on="0"/>
        <pt x="603" y="327" on="1"/>
      </contour>
      <contour>
        <pt x="107" y="206" on="0"/>
        <pt x="145" y="158" on="0"/>
        <pt x="202" y="158" on="0"/>
        <pt x="242" y="178" on="0"/>
        <pt x="264" y="202" on="1"/>
        <pt x="294" y="236" on="0"/>
        <pt x="334" y="296" on="1"/>
        <pt x="323" y="334" on="0"/>
        <pt x="305" y="376" on="0"/>
        <pt x="263" y="412" on="0"/>
        <pt x="233" y="412" on="1"/>
        <pt x="184" y="412" on="0"/>
        <pt x="107" y="319" on="0"/>
        <pt x="107" y="246" on="1"/>
      </contour>
    </TTGlyph>
    <TTGlyph name="integral" xMin="-77" yMin="-126" xMax="497" yMax="752">
      <contour>
        <pt x="3" y="-126" on="1"/>
        <pt x="-40" y="-126" on="0"/>
        <pt x="-77" y="-82" on="0"/>
        <pt x="-77" y="-51" on="1"/>
        <pt x="-77" y="-27" on="0"/>
        <pt x="-63" y="-14" on="0"/>
        <pt x="-37" y="-14" on="0"/>
        <pt x="-12" y="-25" on="0"/>
        <pt x="-11" y="-34" on="1"/>
        <pt x="-15" y="-51" on="0"/>
        <pt x="-15" y="-68" on="1"/>
        <pt x="-15" y="-101" on="0"/>
        <pt x="17" y="-101" on="1"/>
        <pt x="86" y="-101" on="0"/>
        <pt x="121" y="63" on="1"/>
        <pt x="195" y="412" on="1"/>
        <pt x="268" y="752" on="0"/>
        <pt x="416" y="752" on="1"/>
        <pt x="460" y="752" on="0"/>
        <pt x="497" y="708" on="0"/>
        <pt x="497" y="659" on="0"/>
        <pt x="488" y="640" on="0"/>
        <pt x="472" y="640" on="1"/>
        <pt x="431" y="640" on="0"/>
        <pt x="431" y="663" on="1"/>
        <pt x="434" y="680" on="0"/>
        <pt x="434" y="692" on="1"/>
        <pt x="434" y="727" on="0"/>
        <pt x="401" y="727" on="1"/>
        <pt x="333" y="727" on="0"/>
        <pt x="298" y="563" on="1"/>
        <pt x="224" y="214" on="1"/>
        <pt x="151" y="-126" on="0"/>
      </contour>
    </TTGlyph>
    <TTGlyph name="j" xMin="-125" yMin="-228" xMax="260" yMax="621">
      <contour>
        <pt x="170" y="557" on="0"/>
        <pt x="170" y="595" on="0"/>
        <pt x="196" y="621" on="0"/>
        <pt x="234" y="621" on="0"/>
        <pt x="260" y="595" on="0"/>
        <pt x="260" y="557" on="0"/>
        <pt x="234" y="531" on="0"/>
        <pt x="196" y="531" on="0"/>
      </contour>
      <contour>
        <pt x="143" y="398" on="1"/>
        <pt x="79" y="393" on="1"/>
        <pt x="78" y="410" on="1"/>
        <pt x="147" y="419" on="0"/>
        <pt x="207" y="435" on="1"/>
        <pt x="221" y="425" on="1"/>
        <pt x="126" y="32" on="1"/>
        <pt x="93" y="-102" on="0"/>
        <pt x="14" y="-228" on="0"/>
        <pt x="-45" y="-228" on="1"/>
        <pt x="-83" y="-228" on="0"/>
        <pt x="-125" y="-182" on="0"/>
        <pt x="-125" y="-125" on="0"/>
        <pt x="-102" y="-80" on="0"/>
        <pt x="-52" y="-80" on="0"/>
        <pt x="-41" y="-93" on="1"/>
        <pt x="-54" y="-103" on="0"/>
        <pt x="-71" y="-143" on="0"/>
        <pt x="-71" y="-162" on="1"/>
        <pt x="-71" y="-205" on="0"/>
        <pt x="-35" y="-205" on="1"/>
        <pt x="5" y="-205" on="0"/>
        <pt x="47" y="-81" on="0"/>
        <pt x="84" y="106" on="1"/>
      </contour>
    </TTGlyph>
    <TTGlyph name="k" xMin="37" yMin="-12" xMax="439" yMax="657">
      <contour>
        <pt x="162" y="220" on="1"/>
        <pt x="166" y="233" on="1"/>
        <pt x="206" y="233" on="1"/>
        <pt x="289" y="233" on="0"/>
        <pt x="386" y="320" on="0"/>
        <pt x="386" y="367" on="1"/>
        <pt x="386" y="388" on="0"/>
        <pt x="362" y="415" on="0"/>
        <pt x="315" y="415" on="0"/>
        <pt x="260" y="376" on="0"/>
        <pt x="229" y="332" on="1"/>
        <pt x="161" y="234" on="0"/>
        <pt x="107" y="0" on="1"/>
        <pt x="37" y="-6" on="1"/>
        <pt x="194" y="620" on="1"/>
        <pt x="130" y="615" on="1"/>
        <pt x="129" y="632" on="1"/>
        <pt x="198" y="641" on="0"/>
        <pt x="258" y="657" on="1"/>
        <pt x="272" y="647" on="1"/>
        <pt x="191" y="411" on="0"/>
        <pt x="129" y="172" on="1"/>
        <pt x="137" y="172" on="1"/>
        <pt x="154" y="216" on="1"/>
        <pt x="205" y="348" on="0"/>
        <pt x="308" y="444" on="0"/>
        <pt x="365" y="444" on="1"/>
        <pt x="400" y="444" on="0"/>
        <pt x="439" y="405" on="0"/>
        <pt x="439" y="375" on="1"/>
        <pt x="439" y="317" on="0"/>
        <pt x="318" y="217" on="0"/>
        <pt x="212" y="217" on="1"/>
        <pt x="184" y="217" on="0"/>
      </contour>
      <contour>
        <pt x="162" y="217" on="1"/>
        <pt x="184" y="228" on="1"/>
        <pt x="266" y="228" on="0"/>
        <pt x="318" y="158" on="0"/>
        <pt x="318" y="49" on="1"/>
        <pt x="318" y="16" on="0"/>
        <pt x="343" y="16" on="1"/>
        <pt x="362" y="16" on="0"/>
        <pt x="406" y="67" on="0"/>
        <pt x="422" y="114" on="1"/>
        <pt x="438" y="110" on="1"/>
        <pt x="395" y="-12" on="0"/>
        <pt x="326" y="-12" on="1"/>
        <pt x="294" y="-12" on="0"/>
        <pt x="258" y="24" on="0"/>
        <pt x="258" y="108" on="0"/>
        <pt x="249" y="171" on="0"/>
        <pt x="212" y="218" on="0"/>
        <pt x="178" y="218" on="1"/>
        <pt x="167" y="218" on="0"/>
      </contour>
      <contour>
        <pt x="245" y="205" on="1"/>
        <pt x="245" y="227" on="1"/>
        <pt x="263" y="227" on="1"/>
        <pt x="259" y="205" on="1"/>
      </contour>
    </TTGlyph>
    <TTGlyph name="l" xMin="60" yMin="-12" xMax="269" yMax="657">
      <contour>
        <pt x="114" y="49" on="1"/>
        <pt x="114" y="16" on="0"/>
        <pt x="139" y="16" on="1"/>
        <pt x="158" y="16" on="0"/>
        <pt x="202" y="67" on="0"/>
        <pt x="218" y="114" on="1"/>
        <pt x="234" y="110" on="1"/>
        <pt x="191" y="-12" on="0"/>
        <pt x="122" y="-12" on="1"/>
        <pt x="60" y="-12" on="0"/>
        <pt x="60" y="145" on="0"/>
        <pt x="191" y="620" on="1"/>
        <pt x="127" y="615" on="1"/>
        <pt x="126" y="632" on="1"/>
        <pt x="195" y="641" on="0"/>
        <pt x="255" y="657" on="1"/>
        <pt x="269" y="647" on="1"/>
        <pt x="227" y="524" on="0"/>
        <pt x="114" y="103" on="0"/>
      </contour>
    </TTGlyph>
    <TTGlyph name="less" xMin="95" yMin="88" xMax="518" yMax="505">
      <contour>
        <pt x="506" y="450" on="1"/>
        <pt x="155" y="296" on="1"/>
        <pt x="441" y="143" on="1"/>
        <pt x="429" y="88" on="1"/>
        <pt x="95" y="270" on="1"/>
        <pt x="106" y="323" on="1"/>
        <pt x="518" y="505" on="1"/>
      </contour>
    </TTGlyph>
    <TTGlyph name="lessequal" xMin="22" yMin="-79" xMax="518" yMax="505">
      <contour>
        <pt x="506" y="450" on="1"/>
        <pt x="155" y="296" on="1"/>
        <pt x="441" y="143" on="1"/>
        <pt x="429" y="88" on="1"/>
        <pt x="95" y="270" on="1"/>
        <pt x="106" y="323" on="1"/>
        <pt x="518" y="505" on="1"/>
      </contour>
      <contour>
        <pt x="395" y="-79" on="1"/>
        <pt x="22" y="-79" on="1"/>
        <pt x="33" y="-26" on="1"/>
        <pt x="406" y="-26" on="1"/>
      </contour>
    </TTGlyph>
    <TTGlyph name="logicalnot" xMin="74" yMin="44" xMax="458" yMax="223">
      <contour>
        <pt x="420" y="44" on="1"/>
        <pt x="370" y="44" on="1"/>
        <pt x="397" y="170" on="1"/>
        <pt x="74" y="170" on="1"/>
        <pt x="85" y="223" on="1"/>
        <pt x="458" y="223" on="1"/>
      </contour>
    </TTGlyph>
    <TTGlyph name="lozenge" xMin="45" yMin="-79" xMax="502" yMax="700">
      <contour>
        <pt x="220" y="-79" on="1"/>
        <pt x="162" y="-79" on="1"/>
        <pt x="45" y="310" on="1"/>
        <pt x="327" y="700" on="1"/>
        <pt x="385" y="700" on="1"/>
        <pt x="502" y="310" on="1"/>
      </contour>
      <contour>
        <pt x="324" y="640" on="1"/>
        <pt x="88" y="310" on="1"/>
        <pt x="183" y="-19" on="1"/>
        <pt x="424" y="310" on="1"/>
      </contour>
    </TTGlyph>
    <TTGlyph name="lslash" xMin="28" yMin="-12" xMax="269" yMax="657">
      <contour>
        <pt x="43" y="251" on="1"/>
        <pt x="28" y="279" on="1"/>
        <pt x="242" y="388" on="1"/>
        <pt x="257" y="360" on="1"/>
      </contour>
      <contour>
        <pt x="114" y="49" on="1"/>
        <pt x="114" y="16" on="0"/>
        <pt x="139" y="16" on="1"/>
        <pt x="158" y="16" on="0"/>
        <pt x="202" y="67" on="0"/>
        <pt x="218" y="114" on="1"/>
        <pt x="234" y="110" on="1"/>
        <pt x="191" y="-12" on="0"/>
        <pt x="122" y="-12" on="1"/>
        <pt x="60" y="-12" on="0"/>
        <pt x="60" y="145" on="0"/>
        <pt x="191" y="620" on="1"/>
        <pt x="127" y="615" on="1"/>
        <pt x="126" y="632" on="1"/>
        <pt x="195" y="641" on="0"/>
        <pt x="255" y="657" on="1"/>
        <pt x="269" y="647" on="1"/>
        <pt x="227" y="524" on="0"/>
        <pt x="114" y="103" on="0"/>
      </contour>
    </TTGlyph>
    <TTGlyph name="m" xMin="45" yMin="-12" xMax="704" yMax="444">
      <contour>
        <pt x="359" y="0" on="1"/>
        <pt x="288" y="-6" on="1"/>
        <pt x="324" y="131" on="1"/>
        <pt x="330" y="154" on="0"/>
        <pt x="355" y="244" on="0"/>
        <pt x="361" y="268" on="1"/>
        <pt x="378" y="334" on="0"/>
        <pt x="378" y="380" on="0"/>
        <pt x="355" y="411" on="0"/>
        <pt x="332" y="411" on="1"/>
        <pt x="282" y="411" on="0"/>
        <pt x="164" y="209" on="0"/>
        <pt x="115" y="0" on="1"/>
        <pt x="45" y="-6" on="1"/>
        <pt x="143" y="398" on="1"/>
        <pt x="79" y="393" on="1"/>
        <pt x="78" y="410" on="1"/>
        <pt x="147" y="419" on="0"/>
        <pt x="207" y="435" on="1"/>
        <pt x="221" y="425" on="1"/>
        <pt x="173" y="315" on="0"/>
        <pt x="137" y="172" on="1"/>
        <pt x="145" y="172" on="1"/>
        <pt x="161" y="216" on="1"/>
        <pt x="208" y="344" on="0"/>
        <pt x="314" y="444" on="0"/>
        <pt x="360" y="444" on="1"/>
        <pt x="430" y="444" on="0"/>
        <pt x="430" y="365" on="1"/>
        <pt x="430" y="319" on="0"/>
        <pt x="401" y="235" on="1"/>
        <pt x="380" y="172" on="1"/>
        <pt x="389" y="172" on="1"/>
        <pt x="405" y="216" on="1"/>
        <pt x="459" y="367" on="0"/>
        <pt x="522" y="412" on="1"/>
        <pt x="552" y="432" on="0"/>
        <pt x="591" y="444" on="0"/>
        <pt x="645" y="444" on="0"/>
        <pt x="681" y="396" on="0"/>
        <pt x="681" y="310" on="0"/>
        <pt x="584" y="80" on="0"/>
        <pt x="584" y="16" on="0"/>
        <pt x="609" y="16" on="1"/>
        <pt x="628" y="16" on="0"/>
        <pt x="672" y="67" on="0"/>
        <pt x="688" y="114" on="1"/>
        <pt x="704" y="110" on="1"/>
        <pt x="661" y="-12" on="0"/>
        <pt x="592" y="-12" on="1"/>
        <pt x="530" y="-12" on="0"/>
        <pt x="530" y="56" on="1"/>
        <pt x="530" y="85" on="0"/>
        <pt x="621" y="315" on="0"/>
        <pt x="621" y="357" on="1"/>
        <pt x="621" y="411" on="0"/>
        <pt x="586" y="411" on="1"/>
        <pt x="536" y="411" on="0"/>
        <pt x="478" y="330" on="1"/>
        <pt x="411" y="233" on="0"/>
      </contour>
    </TTGlyph>
    <TTGlyph name="macron" xMin="30" yMin="557" xMax="271" yMax="611">
      <contour>
        <pt x="30" y="557" on="1"/>
        <pt x="41" y="611" on="1"/>
        <pt x="271" y="611" on="1"/>
        <pt x="260" y="557" on="1"/>
      </contour>
    </TTGlyph>
    <TTGlyph name="minus" xMin="74" yMin="170" xMax="458" yMax="223">
      <contour>
        <pt x="447" y="170" on="1"/>
        <pt x="74" y="170" on="1"/>
        <pt x="85" y="223" on="1"/>
        <pt x="458" y="223" on="1"/>
      </contour>
    </TTGlyph>
    <TTGlyph name="mu" xMin="20" yMin="-216" xMax="462" yMax="435">
      <contour>
        <pt x="400" y="8" on="1"/>
        <pt x="393" y="-12" on="1"/>
        <pt x="311" y="-12" on="0"/>
        <pt x="311" y="63" on="1"/>
        <pt x="311" y="78" on="0"/>
        <pt x="316" y="111" on="1"/>
        <pt x="311" y="111" on="1"/>
        <pt x="247" y="-12" on="0"/>
        <pt x="163" y="-12" on="1"/>
        <pt x="103" y="-12" on="0"/>
        <pt x="84" y="36" on="1"/>
        <pt x="72" y="-26" on="0"/>
        <pt x="72" y="-60" on="1"/>
        <pt x="72" y="-137" on="0"/>
        <pt x="122" y="-179" on="1"/>
        <pt x="109" y="-195" on="0"/>
        <pt x="65" y="-216" on="0"/>
        <pt x="51" y="-216" on="1"/>
        <pt x="20" y="-216" on="0"/>
        <pt x="20" y="-111" on="0"/>
        <pt x="101" y="257" on="0"/>
        <pt x="137" y="398" on="1"/>
        <pt x="73" y="393" on="1"/>
        <pt x="72" y="410" on="1"/>
        <pt x="141" y="419" on="0"/>
        <pt x="201" y="435" on="1"/>
        <pt x="215" y="425" on="1"/>
        <pt x="131" y="164" on="0"/>
        <pt x="131" y="18" on="0"/>
        <pt x="186" y="18" on="1"/>
        <pt x="233" y="18" on="0"/>
        <pt x="319" y="149" on="0"/>
        <pt x="350" y="267" on="1"/>
        <pt x="384" y="398" on="1"/>
        <pt x="320" y="393" on="1"/>
        <pt x="319" y="410" on="1"/>
        <pt x="388" y="419" on="0"/>
        <pt x="448" y="435" on="1"/>
        <pt x="462" y="425" on="1"/>
        <pt x="427" y="321" on="0"/>
        <pt x="365" y="83" on="0"/>
        <pt x="365" y="8" on="0"/>
      </contour>
    </TTGlyph>
    <TTGlyph name="multiply" xMin="79" yMin="28" xMax="452" yMax="364">
      <contour>
        <pt x="178" y="363" on="1"/>
        <pt x="273" y="233" on="1"/>
        <pt x="425" y="364" on="1"/>
        <pt x="452" y="326" on="1"/>
        <pt x="301" y="196" on="1"/>
        <pt x="397" y="66" on="1"/>
        <pt x="353" y="28" on="1"/>
        <pt x="257" y="158" on="1"/>
        <pt x="107" y="29" on="1"/>
        <pt x="79" y="66" on="1"/>
        <pt x="230" y="196" on="1"/>
        <pt x="134" y="326" on="1"/>
      </contour>
    </TTGlyph>
    <TTGlyph name="n" xMin="45" yMin="-12" xMax="471" yMax="444">
      <contour>
        <pt x="448" y="310" on="0"/>
        <pt x="351" y="80" on="0"/>
        <pt x="351" y="16" on="0"/>
        <pt x="376" y="16" on="1"/>
        <pt x="395" y="16" on="0"/>
        <pt x="439" y="67" on="0"/>
        <pt x="455" y="114" on="1"/>
        <pt x="471" y="110" on="1"/>
        <pt x="428" y="-12" on="0"/>
        <pt x="359" y="-12" on="1"/>
        <pt x="297" y="-12" on="0"/>
        <pt x="297" y="56" on="1"/>
        <pt x="297" y="85" on="0"/>
        <pt x="388" y="315" on="0"/>
        <pt x="388" y="348" on="1"/>
        <pt x="388" y="411" on="0"/>
        <pt x="342" y="411" on="1"/>
        <pt x="292" y="411" on="0"/>
        <pt x="234" y="330" on="1"/>
        <pt x="167" y="233" on="0"/>
        <pt x="115" y="0" on="1"/>
        <pt x="45" y="-6" on="1"/>
        <pt x="143" y="398" on="1"/>
        <pt x="79" y="393" on="1"/>
        <pt x="78" y="410" on="1"/>
        <pt x="147" y="419" on="0"/>
        <pt x="207" y="435" on="1"/>
        <pt x="221" y="425" on="1"/>
        <pt x="173" y="315" on="0"/>
        <pt x="137" y="172" on="1"/>
        <pt x="145" y="172" on="1"/>
        <pt x="161" y="216" on="1"/>
        <pt x="215" y="367" on="0"/>
        <pt x="278" y="412" on="1"/>
        <pt x="308" y="432" on="0"/>
        <pt x="347" y="444" on="0"/>
        <pt x="406" y="444" on="0"/>
        <pt x="448" y="396" on="0"/>
      </contour>
    </TTGlyph>
    <TTGlyph name="nine" xMin="65" yMin="-12" xMax="444" yMax="579">
      <contour>
        <pt x="330" y="255" on="1"/>
        <pt x="324" y="259" on="1"/>
        <pt x="276" y="217" on="0"/>
        <pt x="157" y="217" on="0"/>
        <pt x="79" y="300" on="0"/>
        <pt x="79" y="368" on="1"/>
        <pt x="79" y="463" on="0"/>
        <pt x="200" y="579" on="0"/>
        <pt x="362" y="579" on="0"/>
        <pt x="444" y="495" on="0"/>
        <pt x="444" y="348" on="0"/>
        <pt x="359" y="177" on="0"/>
        <pt x="185" y="22" on="0"/>
        <pt x="73" y="-12" on="1"/>
        <pt x="65" y="11" on="1"/>
        <pt x="129" y="32" on="0"/>
        <pt x="290" y="160" on="0"/>
      </contour>
      <contour>
        <pt x="237" y="246" on="1"/>
        <pt x="302" y="246" on="0"/>
        <pt x="370" y="365" on="0"/>
        <pt x="370" y="493" on="0"/>
        <pt x="327" y="557" on="0"/>
        <pt x="240" y="557" on="0"/>
        <pt x="152" y="449" on="0"/>
        <pt x="152" y="365" on="1"/>
        <pt x="152" y="308" on="0"/>
        <pt x="200" y="246" on="0"/>
      </contour>
    </TTGlyph>
    <TTGlyph name="notequal" xMin="28" yMin="-165" xMax="448" yMax="557">
      <component glyphName="equal" x="0" y="0" flags="0x1004"/>
      <component glyphName="fraction" x="77" y="-91" flags="0x1004"/>
    </TTGlyph>
    <TTGlyph name="ntilde" xMin="45" yMin="-12" xMax="471" yMax="634">
      <component glyphName="n" x="0" y="0" flags="0x1004"/>
      <component glyphName="tilde" x="178" y="0" flags="0x1004"/>
    </TTGlyph>
    <TTGlyph name="numbersign" xMin="-48" yMin="-101" xMax="486" yMax="667">
      <contour>
        <pt x="14" y="-101" on="1"/>
        <pt x="-19" y="-101" on="1"/>
        <pt x="206" y="667" on="1"/>
        <pt x="239" y="667" on="1"/>
      </contour>
      <contour>
        <pt x="437" y="233" on="1"/>
        <pt x="427" y="202" on="1"/>
        <pt x="-48" y="202" on="1"/>
        <pt x="-38" y="233" on="1"/>
      </contour>
      <contour>
        <pt x="219" y="-101" on="1"/>
        <pt x="186" y="-101" on="1"/>
        <pt x="411" y="667" on="1"/>
        <pt x="444" y="667" on="1"/>
      </contour>
      <contour>
        <pt x="486" y="400" on="1"/>
        <pt x="476" y="369" on="1"/>
        <pt x="1" y="369" on="1"/>
        <pt x="11" y="400" on="1"/>
      </contour>
    </TTGlyph>
</ttFont>
